<?xml version="1.0" standalone="no"?>
<!DOCTYPE svg PUBLIC "-//W3C//DTD SVG 1.1//EN" "http://www.w3.org/Graphics/SVG/1.1/DTD/svg11.dtd" >
<svg xmlns="http://www.w3.org/2000/svg" xmlns:xlink="http://www.w3.org/1999/xlink" version="1.1">
<metadata>
Created by FontForge 20160405 at Thu Oct 25 10:14:52 2018
 By www-data
Copyright (c) 2015, Paul  Davy
</metadata>
<defs>
<font id="yorkwhiteletter" horiz-adv-x="331" >
  <font-face 
    font-family="yorkwhiteletter"
    font-weight="400"
    font-stretch="normal"
    units-per-em="1024"
    panose-1="2 0 5 3 0 0 0 0 0 0"
    ascent="819"
    descent="-205"
    x-height="820"
    cap-height="820"
    bbox="-404 -206 1621 1026"
    underline-thickness="51"
    underline-position="-200"
    unicode-range="U+0020-E058"
  />
<missing-glyph horiz-adv-x="374" 
d="M34 0v682h272v-682h-272zM68 34h204v614h-204v-614z" />
    <glyph glyph-name=".notdef" horiz-adv-x="374" 
d="M34 0v682h272v-682h-272zM68 34h204v614h-204v-614z" />
    <glyph glyph-name=".null" horiz-adv-x="0" 
 />
    <glyph glyph-name="nonmarkingreturn" horiz-adv-x="341" 
 />
    <glyph glyph-name="space" unicode=" " horiz-adv-x="339" 
 />
    <glyph glyph-name="exclam" unicode="!" horiz-adv-x="148" 
d="M-5 820h158v-820h-158v820z" />
    <glyph glyph-name="quotedbl" unicode="&#x22;" horiz-adv-x="265" 
d="M-5 20h275v-20h-275v20zM-5 820h275v-20h-275v20zM-5 780h275v-740h-275v740z" />
    <glyph glyph-name="numbersign" unicode="#" horiz-adv-x="345" 
d="M-5 820h355v-820h-355v820zM24 486v-56h71v-44h-71v-56h71v-70h56v70h44v-70h56v70h70v56h-70v44h70v56h-70v70h-56v-70h-44v70h-56v-70h-71zM151 386v44h44v-44h-44z" />
    <glyph glyph-name="dollar" unicode="$" horiz-adv-x="352" 
d="M44 800h-49v20h175q-4 -5 -10 -14.5t-22 -40t-28 -62t-22 -79t-10 -93.5q0 -20 12 -37t31 -22q14 28 40.5 45t58.5 17q46 0 79 -33t33 -79t-33 -79t-79 -33q-64 0 -97 55q-20 -5 -32.5 -21t-12.5 -37q0 -76 23 -152.5t46 -115.5l23 -39h-175v20h49v780zM-5 780h27v-740
h-27v740z" />
    <glyph glyph-name="percent" unicode="%" horiz-adv-x="486" 
d="M-5 780h496v-740h-496v740zM-5 820h496v-20h-496v20zM-5 20h496v-20h-496v20zM287 674l71 86h-306v-196l36 -50q-65 -27 -66 -74v-344q0 -37 47 -37h119l118 181l141 -186l20 118l-109 148l54 91l-54 87l-64 -99l-154 189v86h147zM127 135h-7q-3 0 -6.5 5t-3.5 11v263
q0 25 31 30l101 -127z" />
    <glyph glyph-name="ampersand" unicode="&#x26;" horiz-adv-x="486" 
d="M-5 820h496v-820h-496v820zM287 674l71 86h-306v-196l36 -50q-65 -27 -66 -74v-344q0 -37 47 -37h119l118 181l141 -186l20 118l-109 148l54 91l-54 87l-64 -99l-154 189v86h147zM127 135h-7q-3 0 -6.5 5t-3.5 11v263q0 25 31 30l101 -127z" />
    <glyph glyph-name="quotesingle" unicode="'" horiz-adv-x="265" 
d="M-5 820h275v-820h-275v820z" />
    <glyph glyph-name="parenleft" unicode="(" horiz-adv-x="103" 
d="M60 780h48v-740h-48v740zM20 0v820h88v-20h-68v-780h68v-20h-88z" />
    <glyph glyph-name="parenright" unicode=")" horiz-adv-x="103" 
d="M43 780v-740h-48v740h48zM83 0h-88v20h68v780h-68v20h88v-820z" />
    <glyph glyph-name="asterisk" unicode="*" horiz-adv-x="423" 
d="M-5 40v740q159 0 263.5 -105.5t104.5 -264.5t-104.5 -264.5t-263.5 -105.5zM-5 20q167 0 277.5 111.5t110.5 278.5t-110.5 278.5t-277.5 111.5v20q176 0 292 -117t116 -293t-116 -293t-292 -117v20zM314 410q0 22 -16 38.5t-39 16.5t-39 -16.5t-16 -38.5t16 -38.5
t39 -16.5t39 16.5t16 38.5z" />
    <glyph glyph-name="plus" unicode="+" horiz-adv-x="330" 
d="M335 820v-20h-53v-780h53v-20h-185q4 6 11 16t24.5 42.5t31 66.5t24.5 84t11 98q0 25 -17.5 42.5t-42.5 17.5t-42.5 -17.5t-17.5 -42.5t17.5 -42.5t42.5 -17.5q0 -15 -28 -15q-49 0 -96.5 46t-47.5 141q0 52 15.5 91t39 58.5t46.5 29t43 9.5q12 0 19 -4t8 -8l1 -4
q-25 0 -42.5 -17.5t-17.5 -42.5t17.5 -42.5t42.5 -17.5t42.5 17.5t17.5 42.5q0 73 -25.5 145t-50.5 108l-26 36h185zM335 780v-740h-33v740h33z" />
    <glyph glyph-name="comma" unicode="," horiz-adv-x="148" 
d="M123 60v96h-98v-96h98zM-5 20h158v-20h-158v20zM-5 820h158v-20h-158v20zM-5 780h158v-740h-158v740z" />
    <glyph glyph-name="hyphen" unicode="-" horiz-adv-x="345" 
d="M24 486v-96h297v96h-297zM-5 820h355v-820h-355v820z" />
    <glyph glyph-name="period" unicode="." horiz-adv-x="148" 
d="M123 60v96h-98v-96h98zM-5 820h158v-820h-158v820z" />
    <glyph glyph-name="slash" unicode="/" horiz-adv-x="330" 
d="M310 419q0 -95 -47.5 -141t-96.5 -46q-12 0 -19 4t-8 8l-1 3q25 0 42.5 17.5t17.5 42.5t-17.5 42.5t-42.5 17.5t-42.5 -17.5t-17.5 -42.5q0 -76 25.5 -152.5t50.5 -115.5l26 -39h-185v820h185q-4 -5 -11 -14.5t-24.5 -40t-31 -62t-24.5 -79t-11 -93.5q0 -25 17.5 -42.5
t42.5 -17.5t42.5 17.5t17.5 42.5t-17.5 42.5t-42.5 17.5q2 16 28 16q20 0 43 -9.5t46.5 -29t39 -58.5t15.5 -91z" />
    <glyph glyph-name="zero" unicode="0" horiz-adv-x="330" 
d="M24 119q0 -24 15.5 -41.5t38.5 -17.5h174q23 0 38.5 17t15.5 41v583q0 24 -15 41.5t-38 17.5h-175q-23 0 -38.5 -17t-15.5 -41v-583zM208 640v-460q0 -8 -5 -14t-12 -6h-54q-15 0 -15 20v460q0 20 15 20h56q15 0 15 -20zM-5 820h340v-820h-340v820z" />
    <glyph glyph-name="one" unicode="1" horiz-adv-x="188" 
d="M163 60v700h-70q-2 -9 -7 -22.5t-22.5 -35.5t-38.5 -22v-60h40v-560h98zM-5 820h198v-820h-198v820z" />
    <glyph glyph-name="two" unicode="2" 
d="M307 248h-98v-68q0 -8 -5.5 -14t-12.5 -6h-50q-4 0 -8.5 5t-6.5 10l-3 5l184 440v82q0 24 -16 41t-39 17h-173q-23 0 -38.5 -18t-15.5 -42v-122h98v62q0 8 5.5 14t12.5 6h50q4 0 8.5 -5t6.5 -10l3 -5l-184 -438v-142h282v188zM336 820v-820h-341v820h341z" />
    <glyph glyph-name="three" unicode="3" 
d="M250 60q23 0 39 17.5t16 41.5v271q0 12 -12.5 25.5t-24.5 20.5l-13 7q6 2 14 6.5t22 17.5t14 25v210q0 24 -16 41t-39 17h-173q-23 0 -38.5 -17t-15.5 -41v-102h98v40q0 8 5 14t12 6h53q16 0 16 -20v-148h-90v-102h90v-210q0 -8 -5 -14t-12 -6h-52q-7 0 -12 6t-5 14v144
h-98v-204q0 -25 15.5 -42.5t39.5 -17.5h172zM336 820v-820h-341v820h341z" />
    <glyph glyph-name="four" unicode="4" horiz-adv-x="357" 
d="M200 60h94v167h40v96h-40v437h-63l-207 -437v-95h176v-168zM202 323h-83l83 189v-189zM362 820v-820h-367v820h367z" />
    <glyph glyph-name="five" unicode="5" 
d="M253 492h-130v168h184v100h-282v-370h168q16 0 16 -20v-190q0 -20 -16 -20h-56q-14 0 -14 20v116h-98v-177q0 -24 15.5 -41.5t38.5 -17.5h174q23 0 38.5 17t15.5 41v315q0 24 -15.5 41.5t-38.5 17.5zM336 820v-820h-341v820h341z" />
    <glyph glyph-name="six" unicode="6" 
d="M-5 820h341v-820h-341v820zM24 118q0 -24 15.5 -41t38.5 -17h172q23 0 39.5 17.5t16.5 40.5v309q0 24 -15 42t-38 18h-131v153q0 8 5.5 14t13.5 6h46q8 0 14.5 -6t6.5 -14v-42h98v104q0 24 -15.5 41t-38.5 17h-174q-23 0 -38.5 -17t-15.5 -41v-584zM122 390q40 -2 65 -2
q8 0 14.5 -6t6.5 -14v-188q0 -8 -6.5 -14t-14.5 -6h-46q-8 0 -13.5 6t-5.5 14v210z" />
    <glyph glyph-name="seven" unicode="7" 
d="M133 60l174 560v140h-282v-182h98v62q0 8 5.5 14t12.5 6h50q4 0 8.5 -5t6.5 -10l3 -5l-184 -580h108zM336 820v-820h-341v820h341z" />
    <glyph glyph-name="eight" unicode="8" horiz-adv-x="330" 
d="M-5 820h340v-820h-340v820zM24 119q0 -24 15.5 -41.5t38.5 -17.5h174q23 0 38.5 17t15.5 41v274q0 12 -12.5 24.5t-25.5 19.5l-12 6q6 2 14 6.5t22 18t14 25.5v209q0 24 -15 41.5t-38 17.5h-175q-23 0 -38.5 -17t-15.5 -41v-210q0 -12 12.5 -24.5t25.5 -19.5l12 -6
q-6 -2 -14 -6.5t-22 -18t-14 -25.5v-273zM122 512v128q0 20 15 20h56q15 0 15 -20v-128q0 -20 -15 -20h-56q-15 0 -15 20zM208 370v-190q0 -8 -5 -14t-12 -6h-54q-15 0 -15 20v190q0 20 16 20h54q16 0 16 -20z" />
    <glyph glyph-name="nine" unicode="9" 
d="M-5 820h341v-820h-341v820zM306 702q0 24 -15.5 41t-38.5 17h-172q-23 0 -39.5 -17.5t-16.5 -40.5v-309q0 -24 15 -42t38 -18h131v-153q0 -8 -5.5 -14t-13.5 -6h-46q-8 0 -14.5 6t-6.5 14v92h-98v-154q0 -24 15.5 -41t38.5 -17h174q23 0 38.5 17t15.5 41v584zM208 430
q-40 2 -65 2q-8 0 -14.5 6t-6.5 14v188q0 8 6.5 14t14.5 6h46q8 0 13.5 -6t5.5 -14v-210z" />
    <glyph glyph-name="colon" unicode=":" horiz-adv-x="327" 
d="M137 488l-70 -70l70 -70l71 70zM332 0q-13 0 -24 12.5t-17.5 27.5t-16 27.5t-20.5 12.5v162q0 23 -11 56t-21 54l-11 22l-74 -73l-117 117l117 117l74 -73q43 80 43 132v146q16 0 39 40t39 40v-820z" />
    <glyph glyph-name="semicolon" unicode=";" horiz-adv-x="327" 
d="M190 488l-71 -70l71 -70l70 70zM-5 0v820q16 0 39 -40t39 -40v-146q0 -23 10.5 -56t21.5 -54l11 -22l74 73l117 -117l-117 -117l-74 73q-43 -80 -43 -132v-162q-11 0 -20.5 -12.5t-16 -27.5t-17.5 -27.5t-24 -12.5z" />
    <glyph glyph-name="less" unicode="&#x3c;" horiz-adv-x="103" 
d="M108 0h-88v820h88v-820z" />
    <glyph glyph-name="equal" unicode="=" horiz-adv-x="330" 
d="M-5 820h185q-4 -5 -11 -14.5t-24.5 -40t-31 -62t-24.5 -79t-11 -93.5q0 -25 17.5 -42.5t42.5 -17.5t42.5 17.5t17.5 42.5t-17.5 42.5t-42.5 17.5q2 16 28 16q20 0 43 -9.5t46.5 -29t39 -58.5t15.5 -91q0 -95 -47.5 -141t-96.5 -46q-12 0 -19 4t-8 8l-1 3q25 0 42.5 17.5
t17.5 42.5t-17.5 42.5t-42.5 17.5t-42.5 -17.5t-17.5 -42.5q0 -76 25.5 -152.5t50.5 -115.5l26 -39h-185v20h53v780h-53v20zM-5 780h33v-740h-33v740z" />
    <glyph glyph-name="greater" unicode="&#x3e;" horiz-adv-x="103" 
d="M83 0h-88v820h88v-820z" />
    <glyph glyph-name="question" unicode="?" horiz-adv-x="330" 
d="M20 419q0 52 15.5 91t39 58.5t46.5 29t43 9.5q12 0 19 -4t8 -8l1 -4q-25 0 -42.5 -17.5t-17.5 -42.5t17.5 -42.5t42.5 -17.5t42.5 17.5t17.5 42.5q0 73 -25.5 145t-50.5 108l-26 36h185v-820h-185q4 6 11 16t24.5 42.5t31 66.5t24.5 84t11 98q0 25 -17.5 42.5t-42.5 17.5
t-42.5 -17.5t-17.5 -42.5t17.5 -42.5t42.5 -17.5q0 -15 -28 -15q-49 0 -96.5 46t-47.5 141z" />
    <glyph glyph-name="at" unicode="@" horiz-adv-x="486" 
d="M464 62l-443 199v-60zM464 525v71l-246 110v-71l88 -38v-414l70 -31v413zM-5 820h496v-820h-496v820zM186 236l71 -31l-84 522l-66 29l-89 -445l69 -30l12 71l76 -34zM111 417l28 155l25 -179z" />
    <glyph glyph-name="A" unicode="A" horiz-adv-x="382" 
d="M-5 820h392v-820h-392v820zM259 60h98l-116 700h-93l-123 -700h96l17 110h105zM155 272l38 242l35 -242h-73z" />
    <glyph glyph-name="B" unicode="B" 
d="M253 760h-228v-700h228q23 0 38.5 17t15.5 41v266q0 12 -13.5 21.5t-27.5 13.5l-14 4l15 5t24.5 13.5t15.5 22.5v229q0 27 -15 47t-39 20zM209 634v-115l-86 -66v207h69q17 0 17 -26zM209 333v-153q0 -20 -16 -20h-70v177l38 33q48 -13 48 -37zM-5 820h341v-820h-341v820
z" />
    <glyph glyph-name="C" unicode="C" 
d="M23 118q0 -24 15.5 -41t38.5 -17l175 -1q23 0 38 18t15 42v223h-98v-162q0 -20 -15 -20h-55q-16 0 -16 20v460q0 20 16 20h55q15 0 15 -20v-107h98v169q0 24 -15.5 41t-38.5 17h-174q-23 0 -38.5 -17.5t-15.5 -41.5v-583zM-5 820h341v-820h-341v820z" />
    <glyph glyph-name="D" unicode="D" 
d="M25 760v-700h229q23 0 38 17t15 41v584q0 24 -15 41t-38 17h-229zM209 640v-460q0 -20 -16 -20h-70v500h70q16 0 16 -20zM-5 820h341v-820h-341v820z" />
    <glyph glyph-name="E" unicode="E" 
d="M26 60h227q24 0 39.5 17.5t15.5 42.5v204h-98v-144q0 -8 -5 -14t-12 -6h-69v260h90v102h-90v138h69q7 0 12 -6t5 -14v-40h98v102q0 24 -15.5 41t-38.5 17h-228v-700zM-5 820h341v-820h-341v820z" />
    <glyph glyph-name="F" unicode="F" 
d="M124 60v360h90v102h-90v138h69q7 0 12 -6t5 -14v-40h98v102q0 24 -15.5 41t-38.5 17h-228v-700h98zM-5 820h341v-820h-341v820z" />
    <glyph glyph-name="G" unicode="G" 
d="M24 118q0 -24 15.5 -41t38.5 -17h172q23 0 39.5 17.5t16.5 40.5v404h-146v-97l48 -2v-243q0 -8 -6.5 -14t-14.5 -6h-46q-8 0 -13.5 6t-5.5 14v460q0 8 5.5 14t13.5 6h46q8 0 14.5 -6t6.5 -14v-42h98v104q0 24 -15.5 41t-38.5 17h-174q-23 0 -38.5 -17t-15.5 -41v-584z
M-5 820h341v-820h-341v820z" />
    <glyph glyph-name="H" unicode="H" 
d="M209 60h98v700h-98v-237h-86v237h-98v-700h98v351h86v-351zM-5 820h341v-820h-341v820z" />
    <glyph glyph-name="I" unicode="I" horiz-adv-x="148" 
d="M123 60v700h-98v-700h98zM-5 820h158v-820h-158v820z" />
    <glyph glyph-name="J" unicode="J" 
d="M209 760v-580q0 -8 -6 -14t-13 -6h-47q-8 0 -14 6t-6 14v65h-98v-127q0 -24 15.5 -41t38.5 -17h175q23 0 38 17t15 41v642h-98zM-5 820h341v-820h-341v820z" />
    <glyph glyph-name="K" unicode="K" horiz-adv-x="363" 
d="M123 461l113 -402l105 1l-122 432l122 268h-109l-109 -249v249h-98v-700h98v401zM-5 820h373v-820h-373v820z" />
    <glyph glyph-name="L" unicode="L" 
d="M123 760h-98v-700h282v180h-98v-80h-86v600zM-5 820h341v-820h-341v820z" />
    <glyph glyph-name="M" unicode="M" horiz-adv-x="426" 
d="M285 760l-70 -332l-60 332h-131v-700h94v405l97 -406l90 410v-409h98v700h-118zM-5 820h436v-820h-436v820z" />
    <glyph glyph-name="N" unicode="N" horiz-adv-x="345" 
d="M25 60h94v429l112 -429h92v700h-94l-1 -331l-80 331h-123v-700zM-5 820h355v-820h-355v820z" />
    <glyph glyph-name="O" unicode="O" horiz-adv-x="330" 
d="M24 119q0 -24 15.5 -41.5t38.5 -17.5h174q23 0 38.5 17t15.5 41v583q0 24 -15 41.5t-38 17.5h-175q-23 0 -38.5 -17t-15.5 -41v-583zM208 640v-460q0 -8 -5 -14t-12 -6h-54q-15 0 -15 20v460q0 20 15 20h56q15 0 15 -20zM-5 820h340v-820h-340v820z" />
    <glyph glyph-name="P" unicode="P" 
d="M307 417v276q0 27 -15 47t-39 20h-228v-700h98v220zM209 644v-172l-86 -66v254h69q7 0 12 -4.5t5 -11.5zM-5 820h341v-820h-341v820z" />
    <glyph glyph-name="Q" unicode="Q" horiz-adv-x="330" 
d="M-5 820h340v-820h-340v820zM24 119q0 -24 15.5 -41.5t38.5 -17.5h140l13 -36h70l-23 64q28 14 28 30v583q0 24 -15 41.5t-38 17.5h-175q-23 0 -38.5 -17t-15.5 -41v-583zM208 204h-43l16 -44h-44q-15 0 -15 20v460q0 20 15 20h56q15 0 15 -20v-436z" />
    <glyph glyph-name="R" unicode="R" horiz-adv-x="343" 
d="M217 60h106l-94 313l77 61v268q0 24 -15.5 41t-38.5 17h-228v-700h98v238l23 19zM208 640v-169l-86 -67v256h68q7 0 12.5 -6t5.5 -14zM-5 820h353v-820h-353v820z" />
    <glyph glyph-name="S" unicode="S" 
d="M24 510l184 -130v-200q0 -8 -5.5 -14t-12.5 -6h-50q-7 0 -12.5 6t-5.5 14v142h-98v-203q0 -24 15.5 -41.5t38.5 -17.5h175q23 0 38 17t15 41v314l-184 125v83q0 8 5.5 14t12.5 6h50q7 0 12.5 -6t5.5 -14v-42h98v102q0 24 -15.5 42t-38.5 18h-173q-23 0 -39 -17t-16 -41
v-192zM-5 820h341v-820h-341v820z" />
    <glyph glyph-name="T" unicode="T" horiz-adv-x="391" 
d="M367 660v100h-344v-100h123v-600h98v600h123zM-5 820h401v-820h-401v820z" />
    <glyph glyph-name="U" unicode="U" horiz-adv-x="330" 
d="M208 760v-580q0 -8 -5 -14t-12 -6h-54q-15 0 -15 20v580h-98v-641q0 -24 15.5 -41.5t38.5 -17.5h174q23 0 38.5 17t15.5 41v642h-98zM-5 820h340v-820h-340v820z" />
    <glyph glyph-name="V" unicode="V" horiz-adv-x="356" 
d="M336 760h-101l-56 -363l-51 363h-107l118 -700h83zM-5 820h366v-820h-366v820z" />
    <glyph glyph-name="W" unicode="W" horiz-adv-x="468" 
d="M451 760h-103l-40 -359l-45 359h-61l-37 -358l-42 358h-105l100 -700h67l50 318l38 -318h70zM-5 820h478v-820h-478v820z" />
    <glyph glyph-name="X" unicode="X" horiz-adv-x="447" 
d="M-5 820h457v-820h-457v820zM385 760h-103l-59 -172l-59 172h-103l107 -300l-147 -400h104l98 272l98 -272h104l-147 400z" />
    <glyph glyph-name="Y" unicode="Y" horiz-adv-x="367" 
d="M-5 820h377v-820h-377v820zM228 60v370l116 330h-93l-69 -216l-69 216h-93l117 -330v-370h91z" />
    <glyph glyph-name="Z" unicode="Z" 
d="M253 60q23 0 38.5 17.5t15.5 41.5v129h-98v-68q0 -8 -5.5 -14t-12.5 -6h-50q-4 0 -8.5 5t-6.5 10l-3 5l184 440v82q0 24 -16 41t-39 17h-227v-182h98v62q0 8 5.5 14t12.5 6h50q4 0 8.5 -5t6.5 -10l3 -5l-184 -438v-142h228zM336 820v-820h-341v820h341z" />
    <glyph glyph-name="bracketleft" unicode="[" horiz-adv-x="539" 
d="M461 355q23 0 39 15.5t16 38.5t-16 39t-39 16t-39.5 -16t-16.5 -39t16.5 -38.5t39.5 -15.5zM20 410l165 151q7 -39 37.5 -65t71.5 -26q46 0 78.5 32.5t32.5 78.5q0 43 -28.5 74t-70.5 36q56 63 112 96t126 33v-820q-71 0 -128 34t-114 99q44 3 73.5 35t29.5 76
q0 46 -32.5 78.5t-78.5 32.5q-42 0 -73.5 -27.5t-36.5 -68.5zM172 355q23 0 39 16t16 39t-16 39t-39 16t-39.5 -16t-16.5 -39t16.5 -39t39.5 -16z" />
    <glyph glyph-name="backslash" unicode="\" horiz-adv-x="273" 
d="M71 424q0 -27 19 -46t46 -19t46 19t19 46t-19 46t-46 19t-46 -19t-19 -46zM-1 20h275v-20h-275v20zM-1 820h275v-20h-275v20zM-1 780h275v-740h-275v740z" />
    <glyph glyph-name="bracketright" unicode="]" horiz-adv-x="541" 
d="M78 355q23 0 39.5 15.5t16.5 38.5t-16.5 39t-39.5 16t-39 -16t-16 -39t16 -38.5t39 -15.5zM519 410l-164 -151q-5 41 -36.5 68.5t-73.5 27.5q-46 0 -78.5 -32.5t-32.5 -78.5q0 -44 29.5 -76t73.5 -35q-57 -65 -114 -99t-128 -34l2 820q70 0 125 -33t111 -96
q-42 -5 -70.5 -36t-28.5 -74q0 -46 32.5 -78.5t78.5 -32.5q41 0 71.5 26t37.5 65zM367 355q23 0 39.5 16t16.5 39t-16.5 39t-39.5 16t-39 -16t-16 -39t16 -39t39 -16z" />
    <glyph glyph-name="asciicircum" unicode="^" horiz-adv-x="423" 
d="M428 40q-159 0 -263.5 105.5t-104.5 264.5t104.5 264.5t263.5 105.5v-740zM428 20v-20q-176 0 -292 117t-116 293t116 293t292 117v-20q-167 0 -277.5 -111.5t-110.5 -278.5t110.5 -278.5t277.5 -111.5zM109 410q0 -22 16.5 -38.5t38.5 -16.5t38.5 16.5t16.5 38.5
t-16.5 38.5t-38.5 16.5t-38.5 -16.5t-16.5 -38.5z" />
    <glyph glyph-name="underscore" unicode="_" horiz-adv-x="353" 
d="M28 486v-96h297v96h-297zM-1 20h355v-20h-355v20zM-1 820h355v-20h-355v20zM-1 780h355v-740h-355v740z" />
    <glyph glyph-name="grave" unicode="`" horiz-adv-x="352" 
d="M332 422q0 -46 -33 -79t-79 -33q-64 0 -97 55q-20 -5 -32.5 -21t-12.5 -37q0 -76 23 -152.5t46 -115.5l23 -39h-175v820h175q-4 -5 -10 -14.5t-22 -40t-28 -62t-22 -79t-10 -93.5q0 -20 12 -36t31 -21q14 27 40.5 43.5t58.5 16.5q46 0 79 -33t33 -79z" />
    <glyph glyph-name="a" unicode="a" horiz-adv-x="382" 
d="M-5 20h392v-20h-392v20zM-5 820h392v-20h-392v20zM-5 780h392v-740h-392v740zM259 60h98l-116 700h-93l-123 -700h96l17 110h105zM155 272l38 242l35 -242h-73z" />
    <glyph glyph-name="b" unicode="b" 
d="M253 760h-228v-700h228q23 0 38.5 17t15.5 41v266q0 12 -13.5 21.5t-27.5 13.5l-14 4l15 5t24.5 13.5t15.5 22.5v229q0 27 -15 47t-39 20zM209 634v-115l-86 -66v207h69q17 0 17 -26zM209 333v-153q0 -20 -16 -20h-70v177l38 33q48 -13 48 -37zM-5 20h341v-20h-341v20z
M-5 820h341v-20h-341v20zM-5 780h341v-740h-341v740z" />
    <glyph glyph-name="c" unicode="c" 
d="M23 118q0 -24 15.5 -41t38.5 -17q34 0 87.5 -0.5t87.5 -0.5q23 0 38 18t15 42v223h-98v-162q0 -20 -15 -20h-55q-16 0 -16 20v460q0 20 16 20h55q15 0 15 -20v-117h98v179q0 24 -15.5 41t-38.5 17h-174q-23 0 -38.5 -17.5t-15.5 -41.5v-583zM-5 20h341v-20h-341v20z
M-5 820h341v-20h-341v20zM-5 780h341v-740h-341v740z" />
    <glyph glyph-name="d" unicode="d" 
d="M-5 20h341v-20h-341v20zM-5 820h341v-20h-341v20zM25 760v-700h229q23 0 38 17t15 41v584q0 24 -15 41t-38 17h-229zM209 640v-460q0 -20 -16 -20h-70v500h70q16 0 16 -20zM-5 780h341v-740h-341v740z" />
    <glyph glyph-name="e" unicode="e" 
d="M308 600v102q0 24 -15.5 41t-38.5 17h-228v-700h227q24 0 39.5 17.5t15.5 42.5v204h-98v-144q0 -8 -5 -14t-12 -6h-69v260h90v102h-90v138h69q7 0 12 -6t5 -14v-40h98zM-5 20h341v-20h-341v20zM-5 820h341v-20h-341v20zM-5 780h341v-740h-341v740z" />
    <glyph glyph-name="f" unicode="f" 
d="M308 600v102q0 24 -15.5 41t-38.5 17h-228v-700h98v360h90v102h-90v138h69q7 0 12 -6t5 -14v-40h98zM-5 20h341v-20h-341v20zM-5 820h341v-20h-341v20zM-5 780h341v-740h-341v740z" />
    <glyph glyph-name="g" unicode="g" 
d="M24 118q0 -24 15.5 -41t38.5 -17h172q23 0 39.5 17.5t16.5 40.5v404h-146v-97l48 -2v-243q0 -8 -6.5 -14t-14.5 -6h-46q-8 0 -13.5 6t-5.5 14v460q0 8 5.5 14t13.5 6h46q8 0 14.5 -6t6.5 -14v-42h98v104q0 24 -15.5 41t-38.5 17h-174q-23 0 -38.5 -17t-15.5 -41v-584z
M-5 20h341v-20h-341v20zM-5 820h341v-20h-341v20zM-5 780h341v-740h-341v740z" />
    <glyph glyph-name="h" unicode="h" 
d="M209 60h98v700h-98v-237h-86v237h-98v-700h98v351h86v-351zM-5 20h341v-20h-341v20zM-5 820h341v-20h-341v20zM-5 780h341v-740h-341v740z" />
    <glyph glyph-name="i" unicode="i" horiz-adv-x="148" 
d="M-5 20h158v-20h-158v20zM-5 820h158v-20h-158v20zM123 60v700h-98v-700h98zM-5 780h158v-740h-158v740z" />
    <glyph glyph-name="j" unicode="j" 
d="M209 760v-580q0 -8 -6 -14t-13 -6h-47q-8 0 -14 6t-6 14v65h-98v-127q0 -24 15.5 -41t38.5 -17h175q23 0 38 17t15 41v642h-98zM-5 20h341v-20h-341v20zM-5 820h341v-20h-341v20zM-5 780h341v-740h-341v740z" />
    <glyph glyph-name="k" unicode="k" horiz-adv-x="363" 
d="M-5 20h373v-20h-373v20zM-5 820h373v-20h-373v20zM123 431l113 -372l105 1l-122 402l122 298h-109l-109 -279v279h-98v-700h98v371zM-5 780h373v-740h-373v740z" />
    <glyph glyph-name="l" unicode="l" 
d="M123 760h-98v-700h282v180h-98v-80h-86v600zM-5 20h341v-20h-341v20zM-5 820h341v-20h-341v20zM-5 780h341v-740h-341v740z" />
    <glyph glyph-name="m" unicode="m" horiz-adv-x="426" 
d="M-5 20h436v-20h-436v20zM-5 820h436v-20h-436v20zM285 760l-70 -332l-60 332h-131v-700h94v405l97 -406l90 410v-409h98v700h-118zM-5 780h436v-740h-436v740z" />
    <glyph glyph-name="n" unicode="n" horiz-adv-x="345" 
d="M-5 20h355v-20h-355v20zM-5 820h355v-20h-355v20zM25 60h94v429l112 -429h92v700h-94l-1 -331l-80 331h-123v-700zM-5 780h355v-740h-355v740z" />
    <glyph glyph-name="o" unicode="o" horiz-adv-x="330" 
d="M-5 20h340v-20h-340v20zM-5 820h340v-20h-340v20zM24 119q0 -24 15.5 -41.5t38.5 -17.5h174q23 0 38.5 17t15.5 41v583q0 24 -15 41.5t-38 17.5h-175q-23 0 -38.5 -17t-15.5 -41v-583zM208 640v-460q0 -8 -5 -14t-12 -6h-54q-15 0 -15 20v460q0 20 15 20h56q15 0 15 -20z
M-5 780h340v-740h-340v740z" />
    <glyph glyph-name="p" unicode="p" 
d="M307 417v276q0 27 -15 47t-39 20h-228v-700h98v220zM209 644v-172l-86 -66v254h69q7 0 12 -4.5t5 -11.5zM-5 20h341v-20h-341v20zM-5 820h341v-20h-341v20zM-5 780h341v-740h-341v740z" />
    <glyph glyph-name="q" unicode="q" horiz-adv-x="330" 
d="M234 20l-7 16h70l9 -16h29v-20h-340v20h239zM-5 820h340v-20h-340v20zM296 40l-18 48q28 14 28 30v583q0 24 -15 41.5t-38 17.5h-175q-23 0 -38.5 -17t-15.5 -41v-583q0 -24 15.5 -41.5t38.5 -17.5h140l8 -20h-231v740h340v-740h-39zM208 204h-43l16 -44h-44
q-15 0 -15 20v460q0 20 15 20h56q15 0 15 -20v-436z" />
    <glyph glyph-name="r" unicode="r" horiz-adv-x="343" 
d="M217 60h106l-94 313l77 61v268q0 24 -15.5 41t-38.5 17h-228v-700h98v238l23 19zM208 640v-169l-86 -68v257h68q7 0 12.5 -6t5.5 -14zM-5 20h353v-20h-353v20zM-5 820h353v-20h-353v20zM-5 780h353v-740h-353v740z" />
    <glyph glyph-name="s" unicode="s" 
d="M24 510l184 -130v-200q0 -8 -5.5 -14t-12.5 -6h-50q-7 0 -12.5 6t-5.5 14v142h-98v-203q0 -24 15.5 -41.5t38.5 -17.5h175q23 0 38 17t15 41v314l-184 125v83q0 8 5.5 14t12.5 6h50q7 0 12.5 -6t5.5 -14v-42h98v102q0 24 -15.5 42t-38.5 18h-173q-23 0 -39 -17t-16 -41
v-192zM-5 20h341v-20h-341v20zM-5 820h341v-20h-341v20zM-5 780h341v-740h-341v740z" />
    <glyph glyph-name="t" unicode="t" horiz-adv-x="391" 
d="M-5 20h401v-20h-401v20zM-5 820h401v-20h-401v20zM367 660v100h-344v-100h123v-600h98v600h123zM-5 780h401v-740h-401v740z" />
    <glyph glyph-name="u" unicode="u" 
d="M-5 20h341v-20h-341v20zM-5 820h341v-20h-341v20zM208 760v-580q0 -8 -5 -14t-12 -6h-54q-15 0 -15 20v580h-98v-641q0 -24 15.5 -41.5t38.5 -17.5h174q23 0 38.5 17t15.5 41v642h-98zM-5 780h340v-740h-340v740z" />
    <glyph glyph-name="v" unicode="v" horiz-adv-x="356" 
d="M-5 20h366v-20h-366v20zM-5 820h366v-20h-366v20zM336 760h-101l-56 -363l-51 363h-107l118 -700h83zM-5 780h366v-740h-366v740z" />
    <glyph glyph-name="w" unicode="w" horiz-adv-x="468" 
d="M-5 20h478v-20h-478v20zM-5 820h478v-20h-478v20zM451 760h-103l-40 -359l-45 359h-61l-37 -358l-42 358h-105l100 -700h67l50 318l38 -318h70zM-5 780h478v-740h-478v740z" />
    <glyph glyph-name="x" unicode="x" horiz-adv-x="447" 
d="M-5 20h457v-20h-457v20zM-5 820h457v-20h-457v20zM-5 780h457v-740h-457v740zM385 760h-99l-63 -176l-63 176h-99l107 -300l-147 -400h100l102 276l102 -276h100l-147 400z" />
    <glyph glyph-name="y" unicode="y" horiz-adv-x="367" 
d="M-5 20h377v-20h-377v20zM-5 820h377v-20h-377v20zM-5 780h377v-740h-377v740zM228 60v370l116 330h-93l-69 -216l-69 216h-93l117 -330v-370h91z" />
    <glyph glyph-name="z" unicode="z" 
d="M253 60q23 0 38.5 17.5t15.5 41.5v129h-98v-68q0 -8 -5.5 -14t-12.5 -6h-50q-4 0 -8.5 5t-6.5 10l-3 5l184 440v82q0 24 -16 41t-39 17h-227v-182h98v62q0 8 5.5 14t12.5 6h50q4 0 8.5 -5t6.5 -10l3 -5l-184 -438v-142h228zM-5 20h341v-20h-341v20zM-5 820h341v-20h-341
v20zM336 780v-740h-341v740h341z" />
    <glyph glyph-name="braceleft" unicode="{" horiz-adv-x="499" 
d="M504 780v-740l-48 15v710zM504 20v-20q-104 0 -202 133q44 3 73.5 35t29.5 76q0 46 -32.5 78.5t-78.5 32.5q-42 0 -73.5 -27.5t-36.5 -68.5l-164 151l165 151q7 -39 37.5 -65t71.5 -26q46 0 78.5 32.5t32.5 78.5q0 43 -28.5 74t-70.5 36q96 129 198 129v-20l-68 -20v-740
zM172 355q23 0 39 16t16 39t-16 39t-39 16t-39.5 -16t-16.5 -39t16.5 -39t39.5 -16z" />
    <glyph glyph-name="bar" unicode="|" horiz-adv-x="265" 
d="M67 424q0 -27 19 -46t46 -19t46 19t19 46t-19 46t-46 19t-46 -19t-19 -46zM-5 820h275v-820h-275v820z" />
    <glyph glyph-name="braceright" unicode="}" horiz-adv-x="499" 
d="M-5 780l48 -15v-710l-48 -15v740zM-5 20l68 20v740l-68 20v20q102 0 198 -129q-42 -5 -70.5 -36t-28.5 -74q0 -46 32.5 -78.5t78.5 -32.5q41 0 71.5 26t37.5 65l165 -151l-164 -151q-5 41 -36.5 68.5t-73.5 27.5q-46 0 -78.5 -32.5t-32.5 -78.5q0 -44 29.5 -76t73.5 -35
q-98 -133 -202 -133v20zM327 355q23 0 39.5 16t16.5 39t-16.5 39t-39.5 16t-39 -16t-16 -39t16 -39t39 -16z" />
    <glyph glyph-name="asciitilde" unicode="~" horiz-adv-x="352" 
d="M20 422q0 46 33 79t79 33q32 0 58.5 -16.5t40.5 -43.5q19 5 31 21t12 36q0 73 -23 145t-46 108l-23 36h175v-820h-175q10 15 25.5 42.5t41 108t25.5 156.5q0 21 -12.5 37t-32.5 21q-33 -55 -97 -55q-46 0 -79 33t-33 79z" />
    <glyph glyph-name="exclamdown" unicode="&#xa1;" horiz-adv-x="684" 
d="M599 315q0 -8 -3 -17q3 0 8.5 -1t8.5 -1q4 13 -4 24q5 -3 11 -3q7 0 37 16q-3 6 -7.5 15.5t-6.5 13t-6.5 7t-10.5 4.5q13 4 18 16q-3 1 -8.5 4t-8.5 5q-12 -34 -41 -41q13 -16 13 -42zM513 654q26 0 41 -12v9q-10 6 -19 3q7 7 7 17q0 6 -5 33q-5 -1 -12.5 -1.5t-10.5 -1
t-7.5 -1.5t-7 -2.5t-5 -4t-4.5 -6.5q0 10 -12 21q-2 -2 -3 -4l-3 -3q21 -21 21 -47v-3q6 3 20 3zM171 654q14 0 20 -3v3q0 27 24 51q-3 0 -6.5 0.5t-6.5 0.5q-8 -8 -8 -19q-2 4 -4.5 7t-7.5 4.5t-8 2t-12.5 1.5t-14.5 2q-5 -27 -5 -33q0 -10 7 -17q-12 4 -24 -3v-17
q15 20 46 20zM314 143q0 -5 2.5 -9.5t5 -7.5t9.5 -10l11 -11l11 11t9.5 10t5 7.5t2.5 9.5v4q8 -11 20 -12l3 12q-33 2 -51 28q-18 -26 -51 -28q1 -2 1 -6t1 -6q13 1 21 12v-4zM85 315q0 26 13 42q-29 7 -41 41q-3 -2 -8.5 -5t-8.5 -4q5 -12 18 -16q-6 -1 -10.5 -4.5t-6.5 -7
t-6.5 -13t-7.5 -15.5q30 -16 38 -16q5 0 10 3q-8 -11 -4 -24q3 0 8.5 1t8.5 1q-3 9 -3 17zM574 369q21 0 33.5 19.5t12.5 41.5q0 31 -21 94q-24 76 -44 98q-19 20 -42 20q-17 0 -27.5 -12t-14 -26t-12.5 -26t-24 -12q-7 7 -7 16q0 14 25 36.5t25 48.5q0 17 -12 27.5
t-36 14.5t-41 5t-47 1t-47 -1t-41.5 -5t-36.5 -14.5t-12 -27.5q0 -26 25.5 -48.5t25.5 -37.5q0 -7 -4 -15q-15 0 -24.5 12t-13.5 26t-14.5 26t-27.5 12q-24 0 -42.5 -21.5t-26.5 -41.5t-18 -55q-21 -70 -21 -94q0 -23 12 -42t34 -19q13 0 34.5 15t32.5 15q10 0 20 -9
q-4 -22 -20 -28.5t-33.5 -4t-31.5 -6t-14 -33.5q0 -19 16.5 -41t28 -31t41.5 -32q3 -2 13.5 -10t15 -11t14 -10t16 -10t15 -7t16 -5.5t14.5 -1.5q18 0 33.5 13t15.5 29q0 9 -5.5 27t-5.5 26q0 15 16 27q16 -12 16 -27q0 -8 -5.5 -26t-5.5 -27q0 -16 15.5 -29t33.5 -13
q7 0 14.5 1.5t16 5.5t15 7t16 10t14 10t15 11t13.5 10q6 5 22.5 16t24.5 18t19 18t15.5 24t4.5 28q0 24 -14 32t-31.5 5.5t-33.5 5t-20 29.5q11 9 20 9q11 0 32.5 -15t34.5 -15zM415 322q0 -33 -63 -33h-20q-63 0 -63 33q0 9 13.5 18t13.5 29q-11 0 -20.5 -20.5t-24.5 -20.5
q-10 0 -17.5 5.5t-13 17t-8.5 19.5t-7 22q-11 35 -11 49q0 11 6.5 22t17.5 11q7 0 18.5 -7.5t17.5 -7.5q7 0 11 4q-3 17 -28.5 17t-25.5 21q0 23 47 56q41 29 55 29q10 0 17 -7t7 -16q0 -5 -1.5 -15t-1.5 -14q0 -10 8 -14q8 4 8 14q0 4 -2.5 14t-2.5 15q0 9 8 16t18 7
q14 0 55 -29q2 -1 15 -10t17 -13t9.5 -13.5t5.5 -19.5q0 -21 -25.5 -21t-28.5 -17q4 -4 11 -4q6 0 17.5 7.5t18.5 7.5q10 0 17.5 -10.5t7.5 -20.5q0 -14 -13 -51q-1 -2 -3 -9t-3 -10t-3.5 -9.5t-4 -9.5t-4.5 -8t-5.5 -7.5t-6 -5.5t-7.5 -4t-8 -1q-15 0 -23.5 20.5
t-19.5 20.5q0 -20 12.5 -29t12.5 -18zM293 438q0 -20 14.5 -34.5t34.5 -14.5t34 14.5t14 34.5t-14 34t-34 14t-34.5 -14t-14.5 -34zM-5 0v820h694v-820h-694z" />
    <glyph glyph-name="cent" unicode="&#xa2;" horiz-adv-x="684" 
d="M599 315q0 -8 -3 -17q3 0 8.5 -1t8.5 -1q4 13 -4 24q5 -3 11 -3q7 0 37 16q-3 6 -7.5 15.5t-6.5 13t-6.5 7t-10.5 4.5q13 4 18 16q-3 1 -8.5 4t-8.5 5q-12 -34 -41 -41q13 -16 13 -42zM513 654q26 0 41 -12v9q-10 6 -19 3q7 7 7 17q0 6 -5 33q-5 -1 -12.5 -1.5t-10.5 -1
t-7.5 -1.5t-7 -2.5t-5 -4t-4.5 -6.5q0 10 -12 21q-2 -2 -3 -4l-3 -3q21 -21 21 -47v-3q6 3 20 3zM171 654q14 0 20 -3v3q0 27 24 51q-3 0 -6.5 0.5t-6.5 0.5q-8 -8 -8 -19q-2 4 -4.5 7t-7.5 4.5t-8 2t-12.5 1.5t-14.5 2q-5 -27 -5 -33q0 -10 7 -17q-12 4 -24 -3v-17
q15 20 46 20zM314 143q0 -5 2.5 -9.5t5 -7.5t9.5 -10l11 -11l11 11t9.5 10t5 7.5t2.5 9.5v4q8 -11 20 -12l3 12q-33 2 -51 28q-18 -26 -51 -28q1 -2 1 -6t1 -6q13 1 21 12v-4zM85 315q0 26 13 42q-29 7 -41 41q-3 -2 -8.5 -5t-8.5 -4q5 -12 18 -16q-6 -1 -10.5 -4.5t-6.5 -7
t-6.5 -13t-7.5 -15.5q30 -16 38 -16q5 0 10 3q-8 -11 -4 -24q3 0 8.5 1t8.5 1q-3 9 -3 17zM574 369q21 0 33.5 19.5t12.5 41.5q0 31 -21 94q-24 76 -44 98q-19 20 -42 20q-17 0 -27.5 -12t-14 -26t-12.5 -26t-24 -12q-7 7 -7 16q0 14 25 36.5t25 48.5q0 17 -12 27.5
t-36 14.5t-41 5t-47 1t-47 -1t-41.5 -5t-36.5 -14.5t-12 -27.5q0 -26 25.5 -48.5t25.5 -37.5q0 -7 -4 -15q-15 0 -24.5 12t-13.5 26t-14.5 26t-27.5 12q-24 0 -42.5 -21.5t-26.5 -41.5t-18 -55q-21 -70 -21 -94q0 -23 12 -42t34 -19q13 0 34.5 15t32.5 15q10 0 20 -9
q-4 -22 -20 -28.5t-33.5 -4t-31.5 -6t-14 -33.5q0 -19 16.5 -41t28 -31t41.5 -32q3 -2 13.5 -10t15 -11t14 -10t16 -10t15 -7t16 -5.5t14.5 -1.5q18 0 33.5 13t15.5 29q0 9 -5.5 27t-5.5 26q0 15 16 27q16 -12 16 -27q0 -8 -5.5 -26t-5.5 -27q0 -16 15.5 -29t33.5 -13
q7 0 14.5 1.5t16 5.5t15 7t16 10t14 10t15 11t13.5 10q6 5 22.5 16t24.5 18t19 18t15.5 24t4.5 28q0 24 -14 32t-31.5 5.5t-33.5 5t-20 29.5q11 9 20 9q11 0 32.5 -15t34.5 -15zM415 322q0 -33 -63 -33h-20q-63 0 -63 33q0 9 13.5 18t13.5 29q-11 0 -20.5 -20.5t-24.5 -20.5
q-10 0 -17.5 5.5t-13 17t-8.5 19.5t-7 22q-11 35 -11 49q0 11 6.5 22t17.5 11q7 0 18.5 -7.5t17.5 -7.5q7 0 11 4q-3 17 -28.5 17t-25.5 21q0 23 47 56q41 29 55 29q10 0 17 -7t7 -16q0 -5 -1.5 -15t-1.5 -14q0 -10 8 -14q8 4 8 14q0 4 -2.5 14t-2.5 15q0 9 8 16t18 7
q14 0 55 -29q2 -1 15 -10t17 -13t9.5 -13.5t5.5 -19.5q0 -21 -25.5 -21t-28.5 -17q4 -4 11 -4q6 0 17.5 7.5t18.5 7.5q10 0 17.5 -10.5t7.5 -20.5q0 -14 -13 -51q-1 -2 -3 -9t-3 -10t-3.5 -9.5t-4 -9.5t-4.5 -8t-5.5 -7.5t-6 -5.5t-7.5 -4t-8 -1q-15 0 -23.5 20.5
t-19.5 20.5q0 -20 12.5 -29t12.5 -18zM293 438q0 -20 14.5 -34.5t34.5 -14.5t34 14.5t14 34.5t-14 34t-34 14t-34.5 -14t-14.5 -34zM-5 0v820h694v-820h-694z" />
    <glyph glyph-name="sterling" unicode="&#xa3;" horiz-adv-x="352" 
d="M308 20h49v-20h-175q10 15 25.5 42.5t41 108t25.5 156.5q0 21 -12.5 37t-32.5 21q-33 -55 -97 -55q-46 0 -79 33t-33 79t33 79t79 33q32 0 58.5 -17t40.5 -45q19 5 31 22t12 37q0 73 -23 145t-46 108l-23 36h175v-20h-47zM357 780v-740h-27v740h27z" />
    <glyph glyph-name="currency" unicode="&#xa4;" horiz-adv-x="684" 
d="M599 315q0 -8 -3 -17q3 0 8.5 -1t8.5 -1q4 13 -4 24q5 -3 11 -3q7 0 37 16q-3 6 -7.5 15.5t-6.5 13t-6.5 7t-10.5 4.5q13 4 18 16q-3 1 -8.5 4t-8.5 5q-12 -34 -41 -41q13 -16 13 -42zM513 654q26 0 41 -12v9q-10 6 -19 3q7 7 7 17q0 6 -5 33q-5 -1 -12.5 -1.5t-10.5 -1
t-7.5 -1.5t-7 -2.5t-5 -4t-4.5 -6.5q0 10 -12 21q-2 -2 -3 -4l-3 -3q21 -21 21 -47v-3q6 3 20 3zM171 654q14 0 20 -3v3q0 27 24 51q-3 0 -6.5 0.5t-6.5 0.5q-8 -8 -8 -19q-2 4 -4.5 7t-7.5 4.5t-8 2t-12.5 1.5t-14.5 2q-5 -27 -5 -33q0 -10 7 -17q-12 4 -24 -3v-17
q15 20 46 20zM314 143q0 -5 2.5 -9.5t5 -7.5t9.5 -10l11 -11l11 11t9.5 10t5 7.5t2.5 9.5v4q8 -11 20 -12l3 12q-33 2 -51 28q-18 -26 -51 -28q1 -2 1 -6t1 -6q13 1 21 12v-4zM85 315q0 26 13 42q-29 7 -41 41q-3 -2 -8.5 -5t-8.5 -4q5 -12 18 -16q-6 -1 -10.5 -4.5t-6.5 -7
t-6.5 -13t-7.5 -15.5q30 -16 38 -16q5 0 10 3q-8 -11 -4 -24q3 0 8.5 1t8.5 1q-3 9 -3 17zM574 369q21 0 33.5 19.5t12.5 41.5q0 31 -21 94q-24 76 -44 98q-19 20 -42 20q-17 0 -27.5 -12t-14 -26t-12.5 -26t-24 -12q-7 7 -7 16q0 14 25 36.5t25 48.5q0 17 -12 27.5
t-36 14.5t-41 5t-47 1t-47 -1t-41.5 -5t-36.5 -14.5t-12 -27.5q0 -26 25.5 -48.5t25.5 -37.5q0 -7 -4 -15q-15 0 -24.5 12t-13.5 26t-14.5 26t-27.5 12q-24 0 -42.5 -21.5t-26.5 -41.5t-18 -55q-21 -70 -21 -94q0 -23 12 -42t34 -19q13 0 34.5 15t32.5 15q10 0 20 -9
q-4 -22 -20 -28.5t-33.5 -4t-31.5 -6t-14 -33.5q0 -19 16.5 -41t28 -31t41.5 -32q3 -2 13.5 -10t15 -11t14 -10t16 -10t15 -7t16 -5.5t14.5 -1.5q18 0 33.5 13t15.5 29q0 9 -5.5 27t-5.5 26q0 15 16 27q16 -12 16 -27q0 -8 -5.5 -26t-5.5 -27q0 -16 15.5 -29t33.5 -13
q7 0 14.5 1.5t16 5.5t15 7t16 10t14 10t15 11t13.5 10q6 5 22.5 16t24.5 18t19 18t15.5 24t4.5 28q0 24 -14 32t-31.5 5.5t-33.5 5t-20 29.5q11 9 20 9q11 0 32.5 -15t34.5 -15zM415 322q0 -33 -63 -33h-20q-63 0 -63 33q0 9 13.5 18t13.5 29q-11 0 -20.5 -20.5t-24.5 -20.5
q-10 0 -17.5 5.5t-13 17t-8.5 19.5t-7 22q-11 35 -11 49q0 11 6.5 22t17.5 11q7 0 18.5 -7.5t17.5 -7.5q7 0 11 4q-3 17 -28.5 17t-25.5 21q0 23 47 56q41 29 55 29q10 0 17 -7t7 -16q0 -5 -1.5 -15t-1.5 -14q0 -10 8 -14q8 4 8 14q0 4 -2.5 14t-2.5 15q0 9 8 16t18 7
q14 0 55 -29q2 -1 15 -10t17 -13t9.5 -13.5t5.5 -19.5q0 -21 -25.5 -21t-28.5 -17q4 -4 11 -4q6 0 17.5 7.5t18.5 7.5q10 0 17.5 -10.5t7.5 -20.5q0 -14 -13 -51q-1 -2 -3 -9t-3 -10t-3.5 -9.5t-4 -9.5t-4.5 -8t-5.5 -7.5t-6 -5.5t-7.5 -4t-8 -1q-15 0 -23.5 20.5
t-19.5 20.5q0 -20 12.5 -29t12.5 -18zM293 438q0 -20 14.5 -34.5t34.5 -14.5t34 14.5t14 34.5t-14 34t-34 14t-34.5 -14t-14.5 -34zM-5 20h694v-20h-694v20zM-5 820h694v-20h-694v20zM-5 40v740h694v-740h-694z" />
    <glyph glyph-name="yen" unicode="&#xa5;" horiz-adv-x="360" 
d="M20 640q0 36 15.5 65t38.5 47t56.5 31.5t63.5 20.5t67 11t58.5 4.5t45.5 0.5v-820q-12 0 -31.5 -1.5t-72 -12t-96 -28t-86.5 -56.5t-59 -92v830z" />
    <glyph glyph-name="brokenbar" unicode="&#xa6;" horiz-adv-x="360" 
d="M340 180q0 -36 -15.5 -65t-38.5 -47t-56.5 -31.5t-63.5 -20.5t-67 -11t-58.5 -4.5t-45.5 -0.5v820q12 0 31.5 1.5t72 12t96 28t86.5 56.5t59 92v-830z" />
    <glyph glyph-name="section" unicode="&#xa7;" horiz-adv-x="345" 
d="M24 486v-56h71v-44h-71v-56h71v-70h56v70h44v-70h56v70h70v56h-70v44h70v56h-70v70h-56v-70h-44v70h-56v-70h-71zM151 386v44h44v-44h-44zM-5 20h355v-20h-355v20zM-5 820h355v-20h-355v20zM-5 780h355v-740h-355v740z" />
    <glyph glyph-name="dieresis" unicode="&#xa8;" horiz-adv-x="148" 
d="M-5 820h158v-820h-158v820z" />
    <glyph glyph-name="copyright" unicode="&#xa9;" horiz-adv-x="423" 
d="M109 410q0 -22 16.5 -38.5t38.5 -16.5t38.5 16.5t16.5 38.5t-16.5 38.5t-38.5 16.5t-38.5 -16.5t-16.5 -38.5zM428 0q-176 0 -292 117t-116 293t116 293t292 117v-820z" />
    <glyph glyph-name="ordfeminine" unicode="&#xaa;" horiz-adv-x="423" 
d="M314 410q0 22 -16 38.5t-39 16.5t-39 -16.5t-16 -38.5t16 -38.5t39 -16.5t39 16.5t16 38.5zM-5 0v820q176 0 292 -117t116 -293t-116 -293t-292 -117z" />
    <glyph glyph-name="guillemotleft" unicode="&#xab;" horiz-adv-x="352" 
d="M285 90q11 0 31 -35t36 -35v-20q-18 0 -30.5 12.5t-18.5 27.5t-18.5 27.5t-30.5 12.5v162q0 28 -11 61t-21 52l-11 19l-74 -73l-117 117l117 117l74 -73q43 69 43 132v146q18 0 30.5 12.5t18.5 27.5t18.5 27.5t30.5 12.5v-20q-16 0 -36 -35t-31 -35v-640zM352 780v-740
q-12 0 -26.5 28t-20.5 28v628q6 0 20.5 28t26.5 28zM137 488l-70 -70l70 -70l71 70z" />
    <glyph glyph-name="logicalnot" unicode="&#xac;" horiz-adv-x="384" 
d="M281 0v109q-49 1 -84.5 36t-36.5 85h-30v58q-49 1 -84.5 36.5t-35.5 85.5t35.5 85.5t84.5 36.5v62h30q0 50 35.5 85.5t85.5 36.5v104h108v-820h-108z" />
    <glyph glyph-name="uni00AD" unicode="&#xad;" horiz-adv-x="345" 
d="M24 486v-96h297v96h-297zM-5 820h355v-820h-355v820z" />
    <glyph glyph-name="registered" unicode="&#xae;" horiz-adv-x="394" 
d="M103 0h-108v820h108v-104q50 -1 85.5 -36.5t35.5 -85.5h30v-62q49 -1 84.5 -36.5t35.5 -85.5t-35.5 -85.5t-84.5 -36.5v-58h-30q-1 -50 -36.5 -85t-84.5 -36v-109z" />
    <glyph glyph-name="macron" unicode="&#xaf;" horiz-adv-x="148" 
d="M-5 820h158v-820h-158v820z" />
    <glyph glyph-name="degree" unicode="&#xb0;" horiz-adv-x="148" 
d="M-5 20h158v-20h-158v20zM-5 820h158v-20h-158v20zM-5 780h158v-740h-158v740z" />
    <glyph glyph-name="plusminus" unicode="&#xb1;" horiz-adv-x="486" 
d="M-5 20h496v-20h-496v20zM-5 820h496v-20h-496v20zM464 62l-443 199v-60zM464 525v71l-246 110v-71l88 -38v-414l70 -31v413zM-5 780h496v-740h-496v740zM186 236l71 -31l-84 522l-66 29l-89 -445l69 -30l12 71l76 -34zM111 417l28 155l25 -179z" />
    <glyph glyph-name="uni00B2" unicode="&#xb2;" horiz-adv-x="684" 
d="M295 412l-131 131l-133 -131l133 -131zM472 589l-131 133l-131 -133l131 -131zM472 235l-131 131l-131 -131l131 -133zM651 412l-133 131l-131 -131l131 -131zM-5 0v820h694v-820h-694z" />
    <glyph glyph-name="uni00B3" unicode="&#xb3;" horiz-adv-x="684" 
d="M295 412l-131 131l-133 -131l133 -131zM472 589l-131 133l-131 -133l131 -131zM472 235l-131 131l-131 -131l131 -133zM651 412l-133 131l-131 -131l131 -131zM-5 20h694v-20h-694v20zM-5 820h694v-20h-694v20zM-5 40v740h694v-740h-694z" />
    <glyph glyph-name="acute" unicode="&#xb4;" horiz-adv-x="442" 
d="M191 412l-85 131l-86 -131l86 -131zM306 589l-85 133l-85 -133l85 -131zM306 235l-85 131l-85 -131l85 -133zM422 412l-86 131l-85 -131l85 -131zM-5 0v820h452v-820h-452z" />
    <glyph glyph-name="mu" unicode="&#xb5;" horiz-adv-x="442" 
d="M-5 20h452v-20h-452v20zM-5 820h452v-20h-452v20zM191 412l-85 131l-86 -131l86 -131zM306 589l-85 133l-85 -133l85 -131zM306 235l-85 131l-85 -131l85 -133zM422 412l-86 131l-85 -131l85 -131zM-5 40v740h452v-740h-452z" />
    <glyph glyph-name="paragraph" unicode="&#xb6;" horiz-adv-x="624" 
d="M112 503q-39 0 -66.5 -27.5t-27.5 -66.5t27.5 -66.5t66.5 -27.5t66.5 27.5t27.5 66.5t-27.5 66.5t-66.5 27.5zM512 503q-39 0 -66.5 -27.5t-27.5 -66.5t27.5 -66.5t66.5 -27.5t66.5 27.5t27.5 66.5t-27.5 66.5t-66.5 27.5zM218 209q0 -39 27.5 -66.5t66.5 -27.5
t66.5 27.5t27.5 66.5t-27.5 66.5t-66.5 27.5t-66.5 -27.5t-27.5 -66.5zM218 609q0 -39 27.5 -66.5t66.5 -27.5t66.5 27.5t27.5 66.5t-27.5 66.5t-66.5 27.5t-66.5 -27.5t-27.5 -66.5zM-5 0v820h634v-820h-634z" />
    <glyph glyph-name="periodcentered" unicode="&#xb7;" horiz-adv-x="624" 
d="M-5 20h634v-20h-634v20zM-5 820h634v-20h-634v20zM112 503q-39 0 -66.5 -27.5t-27.5 -66.5t27.5 -66.5t66.5 -27.5t66.5 27.5t27.5 66.5t-27.5 66.5t-66.5 27.5zM512 503q-39 0 -66.5 -27.5t-27.5 -66.5t27.5 -66.5t66.5 -27.5t66.5 27.5t27.5 66.5t-27.5 66.5
t-66.5 27.5zM218 209q0 -39 27.5 -66.5t66.5 -27.5t66.5 27.5t27.5 66.5t-27.5 66.5t-66.5 27.5t-66.5 -27.5t-27.5 -66.5zM218 609q0 -39 27.5 -66.5t66.5 -27.5t66.5 27.5t27.5 66.5t-27.5 66.5t-66.5 27.5t-66.5 -27.5t-27.5 -66.5zM-5 40v740h634v-740h-634z" />
    <glyph glyph-name="cedilla" unicode="&#xb8;" horiz-adv-x="148" 
d="M-5 820h158v-820h-158v820z" />
    <glyph glyph-name="uni00B9" unicode="&#xb9;" horiz-adv-x="148" 
d="M-5 20h158v-20h-158v20zM-5 820h158v-20h-158v20zM-5 780h158v-740h-158v740z" />
    <glyph glyph-name="ordmasculine" unicode="&#xba;" horiz-adv-x="148" 
d="M-5 20h158v-20h-158v20zM-5 820h158v-20h-158v20zM-5 780h158v-740h-158v740z" />
    <glyph glyph-name="guillemotright" unicode="&#xbb;" horiz-adv-x="352" 
d="M67 90v640q-11 0 -31 35t-36 35v20q18 0 30.5 -12.5t18.5 -27.5t18.5 -27.5t30.5 -12.5v-146q0 -28 11 -61t21 -52l11 -19l74 73l117 -117l-117 -117l-74 73q-43 -69 -43 -132v-162q-18 0 -30.5 -12.5t-18.5 -27.5t-18.5 -27.5t-30.5 -12.5v20q16 0 36 35t31 35zM0 780
q12 0 26.5 -28t20.5 -28v-628q-6 0 -20.5 -28t-26.5 -28v740zM215 488l-71 -70l71 -70l70 70z" />
    <glyph glyph-name="onequarter" unicode="&#xbc;" horiz-adv-x="360" 
d="M365 40q-10 0 -27.5 -1.5t-64.5 -8t-86 -16.5t-78 -31.5t-55 -48.5v676q0 170 311 170v-740zM365 20v-20q-20 0 -45.5 -2t-75.5 -12.5t-90.5 -29t-79.5 -56.5t-54 -90v830q0 36 15.5 65t38.5 47t56.5 31.5t63.5 20.5t67 11t58.5 4.5t45.5 0.5v-20q-327 0 -327 -176v-739
q18 38 58.5 65.5t85.5 40.5t86.5 20t69.5 8z" />
    <glyph glyph-name="onehalf" unicode="&#xbd;" horiz-adv-x="360" 
d="M-5 780q10 0 27.5 1.5t64.5 8t86 16.5t78 31.5t55 48.5v-676q0 -170 -311 -170v740zM-5 800v20q20 0 45.5 2t75.5 12.5t90.5 29t79.5 56.5t54 90v-830q0 -36 -15.5 -65t-38.5 -47t-56.5 -31.5t-63.5 -20.5t-67 -11t-58.5 -4.5t-45.5 -0.5v20q327 0 327 176v739
q-18 -38 -58.5 -65.5t-85.5 -40.5t-86.5 -20t-69.5 -8z" />
    <glyph glyph-name="threequarters" unicode="&#xbe;" horiz-adv-x="360" 
d="M-5 40v740q311 0 311 -170v-676q-16 27 -53.5 48t-80.5 31.5t-83.5 17t-66.5 7.5zM-5 20q11 0 29 -1t66.5 -8t89 -20t82.5 -40.5t60 -65.5v739q0 176 -327 176v20q24 0 45.5 -0.5t58.5 -4.5t67 -11t63.5 -20.5t56.5 -31.5t38.5 -47t15.5 -65v-830q-15 52 -54 90
t-79.5 56.5t-90.5 29t-75.5 12.5t-45.5 2v20z" />
    <glyph glyph-name="questiondown" unicode="&#xbf;" horiz-adv-x="360" 
d="M365 780v-740q-311 0 -311 170v676q16 -27 53.5 -48t80.5 -31.5t83.5 -17t66.5 -7.5zM365 800q-11 0 -29 1t-66.5 8t-89 20t-82.5 40.5t-60 65.5v-739q0 -176 327 -176v-20q-24 0 -45.5 0.5t-58.5 4.5t-67 11t-63.5 20.5t-56.5 31.5t-38.5 47t-15.5 65v830q15 -52 54 -90
t79.5 -56.5t90.5 -29t75.5 -12.5t45.5 -2v-20z" />
    <glyph glyph-name="Agrave" unicode="&#xc0;" horiz-adv-x="969" 
d="M602 584q0 -14 9 -23t22 -9q17 0 26 12h63q-4 -93 -4 -153q0 -53 2 -129t4 -126l3 -49l14 -36l16 36q9 185 9 304l-5 153h63q9 -12 25 -12q13 0 22.5 9t9.5 23t-9.5 23t-22.5 9q-15 0 -25 -13h-63v103q12 9 12 26q0 14 -9 23t-22 9q-14 0 -23 -9t-9 -23q0 -17 12 -26
v-103h-63q-10 13 -26 13q-13 0 -22 -9t-9 -23zM476 407v-430q123 -22 251.5 -71t229.5 -112h-937l184 315l-184 298h456zM974 820v-820h-17q9 -5 15 -10l-20 10h-34q23 -10 53 -36q-40 24 -61 36h-32q58 -25 93 -55q-45 27 -102 55h-31q80 -35 134 -77q-83 48 -148 77h-29
q112 -45 176 -97q-116 65 -196 97h-26q141 -60 220 -117q-145 80 -249 117h-22q174 -68 269 -137q-173 94 -308 137h-18q202 -70 325 -158q-201 112 -379 158h-10q241 -72 387 -178q-230 129 -458 178v820h468z" />
    <glyph glyph-name="Aacute" unicode="&#xc1;" horiz-adv-x="969" 
d="M367 584q0 14 -9 23t-22 9q-16 0 -26 -13h-63v103q12 9 12 26q0 14 -9.5 23t-22.5 9t-22 -9t-9 -23q0 -17 12 -26v-103h-63q-10 13 -25 13q-14 0 -23 -9t-9 -23t9 -23t23 -9q16 0 25 12h63q-5 -93 -5 -153q0 -53 2.5 -129t4.5 -126l2 -49l16 -36l14 36q9 185 9 304
l-4 153h63q9 -12 26 -12q13 0 22 9t9 23zM493 407h456l-184 -298l184 -315h-937q101 63 229.5 112t251.5 71v430zM-5 820h468v-820q-228 -49 -458 -178q146 106 387 178h-10q-178 -46 -379 -158q123 88 325 158h-18q-135 -43 -308 -137q95 69 269 137h-24q-98 -35 -247 -117
q79 57 220 117h-26q-80 -32 -196 -97q64 52 176 97h-29q-74 -33 -150 -77q51 40 136 77h-31q-57 -28 -102 -55q35 30 93 55h-32q-21 -12 -61 -36q30 26 53 36h-34q-2 0 -22 -10l17 10h-17v820z" />
    <glyph glyph-name="Acircumflex" unicode="&#xc2;" horiz-adv-x="969" 
d="M881 569q0 14 -9 23t-22 9q-16 0 -26 -13h-63v103q12 9 12 26q0 13 -9.5 22.5t-22.5 9.5t-22 -9t-9 -23q0 -17 12 -26v-103h-63q-10 13 -25 13q-14 0 -23 -9.5t-9 -22.5t9 -22.5t23 -9.5q16 0 25 12h63q-5 -93 -5 -153q0 -53 2.5 -129t4.5 -125l2 -50l16 -36l14 36
q9 185 9 304l-4 153h63q9 -12 26 -12q13 0 22 9t9 23zM476 413h-456l184 298l-184 315h937q-101 -63 -229.5 -112t-251.5 -71v-430zM974 0h-468v820q228 49 458 178q-146 -106 -387 -178h10q178 46 379 158q-123 -88 -325 -158h18q135 43 308 137q-95 -69 -269 -137h24
q98 35 247 117q-79 -57 -220 -117h26q80 32 196 97q-64 -52 -176 -97h29q74 33 150 77q-51 -40 -136 -77h31q57 28 102 55q-35 -30 -93 -55h32q21 12 61 36q-30 -26 -53 -36h34q2 0 22 10l-17 -10h17v-820z" />
    <glyph glyph-name="Atilde" unicode="&#xc3;" horiz-adv-x="969" 
d="M88 569q0 -14 9 -23t22 -9q17 0 26 12h63q-4 -93 -4 -153q0 -53 2 -129t4 -125l3 -50l14 -36l16 36q9 185 9 304l-5 153h63q9 -12 25 -12q13 0 22.5 9.5t9.5 22.5t-9.5 22.5t-22.5 9.5q-15 0 -25 -13h-63v103q12 9 12 26q0 14 -9 23t-22 9q-14 0 -23 -9.5t-9 -22.5
q0 -17 12 -26v-103h-63q-10 13 -26 13q-13 0 -22 -9t-9 -23zM493 413v430q-123 22 -251.5 71t-229.5 112h937l-184 -315l184 -298h-456zM-5 0v820h17q-11 5 -17 10q20 -10 22 -10h34q-23 10 -53 36q40 -24 61 -36h32q-58 25 -93 55q45 -27 102 -55h31q-85 37 -136 77
q76 -44 150 -77h29q-112 45 -176 97q116 -65 196 -97h26q-141 60 -220 117q149 -82 247 -117h24q-174 68 -269 137q173 -94 308 -137h18q-202 70 -325 158q201 -112 379 -158h10q-241 72 -387 178q230 -129 458 -178v-820h-468z" />
    <glyph glyph-name="Adieresis" unicode="&#xc4;" horiz-adv-x="969" 
d="M974 780v-740h-428v740h428zM974 20v-20h-17q9 -5 15 -10l-20 10h-34q23 -10 53 -36q-40 24 -61 36h-32q58 -25 93 -55q-45 27 -102 55h-31q80 -35 134 -77q-83 48 -148 77h-29q112 -45 176 -97q-116 65 -196 97h-26q141 -60 220 -117q-145 80 -249 117h-22
q174 -68 269 -137q-173 94 -308 137h-18q202 -70 325 -158q-201 112 -379 158h-10q241 -72 387 -178q-230 129 -458 178v820h468v-20h-448v-780h448zM602 584q0 -14 9 -23t22 -9q17 0 26 12h63q-4 -93 -4 -153q0 -53 2 -129t4 -126l3 -49l14 -36l16 36q9 185 9 304l-5 153
h63q9 -12 25 -12q13 0 22.5 9t9.5 23t-9.5 23t-22.5 9q-15 0 -25 -13h-63v103q12 9 12 26q0 14 -9 23t-22 9q-14 0 -23 -9t-9 -23q0 -17 12 -26v-103h-63q-10 13 -26 13q-13 0 -22 -9t-9 -23zM476 407v-430q123 -22 251.5 -71t229.5 -112h-937l184 315l-184 298h456z" />
    <glyph glyph-name="Aring" unicode="&#xc5;" horiz-adv-x="969" 
d="M-5 780h428v-740h-428v740zM-5 20h448v780h-448v20h468v-820q-228 -49 -458 -178q146 106 387 178h-10q-178 -46 -379 -158q123 88 325 158h-18q-135 -43 -308 -137q95 69 269 137h-24q-98 -35 -247 -117q79 57 220 117h-26q-80 -32 -196 -97q64 52 176 97h-29
q-74 -33 -150 -77q51 40 136 77h-31q-57 -28 -102 -55q35 30 93 55h-32q-21 -12 -61 -36q30 26 53 36h-34q-2 0 -22 -10l17 10h-17v20zM367 584q0 14 -9 23t-22 9q-16 0 -26 -13h-63v103q12 9 12 26q0 14 -9.5 23t-22.5 9t-22 -9t-9 -23q0 -17 12 -26v-103h-63
q-10 13 -25 13q-14 0 -23 -9t-9 -23t9 -23t23 -9q16 0 25 12h63q-5 -93 -5 -153q0 -53 2.5 -129t4.5 -126l2 -49l16 -36l14 36q9 185 9 304l-4 153h63q9 -12 26 -12q13 0 22 9t9 23zM493 407h456l-184 -298l184 -315h-937q101 63 229.5 112t251.5 71v430z" />
    <glyph glyph-name="AE" unicode="&#xc6;" horiz-adv-x="969" 
d="M974 40h-428v740h428v-740zM974 800h-448v-780h448v-20h-468v820q228 49 458 178q-146 -106 -387 -178h10q178 46 379 158q-123 -88 -325 -158h18q135 43 308 137q-95 -69 -269 -137h24q98 35 247 117q-79 -57 -220 -117h26q80 32 196 97q-64 -52 -176 -97h29
q74 33 150 77q-51 -40 -136 -77h31q57 28 102 55q-35 -30 -93 -55h32q21 12 61 36q-30 -26 -53 -36h34q2 0 22 10l-17 -10h17v-20zM881 569q0 14 -9 23t-22 9q-16 0 -26 -13h-63v103q12 9 12 26q0 13 -9.5 22.5t-22.5 9.5t-22 -9t-9 -23q0 -17 12 -26v-103h-63
q-10 13 -25 13q-14 0 -23 -9.5t-9 -22.5t9 -22.5t23 -9.5q16 0 25 12h63q-5 -93 -5 -153q0 -53 2.5 -129t4.5 -125l2 -50l16 -36l14 36q9 185 9 304l-4 153h63q9 -12 26 -12q13 0 22 9t9 23zM476 413h-456l184 298l-184 315h937q-101 -63 -229.5 -112t-251.5 -71v-430z" />
    <glyph glyph-name="Ccedilla" unicode="&#xc7;" horiz-adv-x="969" 
d="M-5 40v740h428v-740h-428zM-5 800v20h17q-11 5 -17 10q20 -10 22 -10h34q-23 10 -53 36q40 -24 61 -36h32q-58 25 -93 55q45 -27 102 -55h31q-85 37 -136 77q76 -44 150 -77h29q-112 45 -176 97q116 -65 196 -97h26q-141 60 -220 117q149 -82 247 -117h24
q-174 68 -269 137q173 -94 308 -137h18q-202 70 -325 158q201 -112 379 -158h10q-241 72 -387 178q230 -129 458 -178v-820h-468v20h448v780h-448zM88 569q0 -14 9 -23t22 -9q17 0 26 12h63q-4 -93 -4 -153q0 -53 2 -129t4 -125l3 -50l14 -36l16 36q9 185 9 304l-5 153h63
q9 -12 25 -12q13 0 22.5 9.5t9.5 22.5t-9.5 22.5t-22.5 9.5q-15 0 -25 -13h-63v103q12 9 12 26q0 14 -9 23t-22 9q-14 0 -23 -9.5t-9 -22.5q0 -17 12 -26v-103h-63q-10 13 -26 13q-13 0 -22 -9t-9 -23zM493 413v430q-123 22 -251.5 71t-229.5 112h937l-184 -315l184 -298
h-456z" />
    <glyph glyph-name="Egrave" unicode="&#xc8;" horiz-adv-x="316" 
d="M18 569q0 -14 9 -23t22 -9q17 0 26 12h63q-4 -93 -4 -153q0 -53 2 -129t4 -125l3 -50l14 -36l16 36q9 185 9 304l-5 153h63q9 -12 25 -12q13 0 22.5 9.5t9.5 22.5t-9.5 22.5t-22.5 9.5q-15 0 -25 -13h-63v103q12 9 12 26q0 14 -9 23t-22 9q-14 0 -23 -9.5t-9 -22.5
q0 -17 12 -26v-103h-63q-10 13 -26 13q-13 0 -22 -9t-9 -23zM-5 820h326v-820h-326v820z" />
    <glyph glyph-name="Eacute" unicode="&#xc9;" horiz-adv-x="316" 
d="M-5 20h326v-20h-326v20zM-5 820h326v-20h-326v20zM18 569q0 -14 9 -23t22 -9q17 0 26 12h63q-4 -93 -4 -153q0 -53 2 -129t4 -125l3 -50l14 -36l16 36q9 185 9 304l-5 153h63q9 -12 25 -12q13 0 22.5 9.5t9.5 22.5t-9.5 22.5t-22.5 9.5q-15 0 -25 -13h-63v103q12 9 12 26
q0 14 -9 23t-22 9q-14 0 -23 -9.5t-9 -22.5q0 -17 12 -26v-103h-63q-10 13 -26 13q-13 0 -22 -9t-9 -23zM-5 780h326v-740h-326v740z" />
    <glyph glyph-name="Ecircumflex" unicode="&#xca;" horiz-adv-x="782" 
d="M441 557l71 86h-306v-196l36 -50q-65 -27 -66 -74v-344q0 -37 47 -37h119l118 181l141 -186l20 118l-109 148l54 91l-54 87l-64 -99l-154 189v86h147zM281 18h-7q-3 0 -6.5 5t-3.5 11v263q0 25 31 30l101 -127zM787 820v-820h-54v716q-136 28 -241 104h295zM298 703h186
q-6 5 -9 10q20 -10 22 -10h31q-22 10 -50 36q40 -24 61 -36h29q-56 25 -90 55q45 -27 102 -55h28q-83 37 -133 77q76 -44 150 -77h29q-112 45 -176 97q122 -66 201 -97h24v-820h-624v820h24q79 31 201 97q-64 -52 -176 -97h29q74 33 150 77q-50 -40 -133 -77h28
q57 28 102 55q-34 -30 -90 -55h29q21 12 61 36q-28 -26 -50 -36h31q2 0 22 10zM-5 820h295q-105 -76 -241 -104v-716h-54v820z" />
    <glyph glyph-name="Edieresis" unicode="&#xcb;" horiz-adv-x="782" 
d="M482 820h305v-20h-265zM260 800h-265v20h305zM733 20h54v-20h-54v20zM49 20v-20h-54v20h54zM119 -77v740h544v-740h-544zM99 -97h584v780h-584v-780zM441 557l71 86h-306v-196l36 -50q-65 -27 -66 -74v-344q0 -37 47 -37h119l118 181l141 -186l20 118l-109 148l54 91
l-54 87l-64 -99l-154 189v86h147zM281 18h-7q-3 0 -6.5 5t-3.5 11v263q0 25 31 30l101 -127zM787 780v-740h-54v676q-95 16 -171 64h225zM295 703h192q-8 5 -12 10q20 -10 22 -10h34q-23 10 -53 36q40 -24 61 -36h32q-58 25 -93 55q45 -27 102 -55h31q-85 37 -136 77
q76 -44 150 -77h29q-112 45 -176 97q116 -65 196 -97h29v-820h-624v820h29q80 32 196 97q-64 -52 -176 -97h29q74 33 150 77q-51 -40 -136 -77h31q57 28 102 55q-35 -30 -93 -55h32q21 12 61 36q-30 -26 -53 -36h34q2 0 22 10zM-5 780h225q-76 -48 -171 -64v-676h-54v740z
" />
    <glyph glyph-name="Igrave" unicode="&#xcc;" horiz-adv-x="573" 
d="M476 407v-430q123 -22 251.5 -71t229.5 -112h-937l184 315l-184 298h456zM957 0q9 -5 15 -10l-20 10h5zM918 0q23 -10 53 -36q-40 24 -61 36h8zM878 0q58 -25 93 -55q-45 27 -102 55h9zM838 0q80 -35 134 -77q-83 48 -148 77h14zM795 0q112 -45 176 -97q-116 65 -196 97
h20zM749 0q141 -60 220 -117q-145 80 -249 117h29zM698 0q174 -68 269 -137q-173 94 -308 137h39zM641 0q202 -70 325 -158q-201 112 -379 158h54zM578 0q240 -71 386 -178q-230 129 -458 178v820h72v-820z" />
    <glyph glyph-name="Iacute" unicode="&#xcd;" horiz-adv-x="568" 
d="M92 407h456l-184 -298l184 -315h-937q101 63 229.5 112t251.5 71v430zM-389 0h5l-20 -10zM-350 0h8q-21 -12 -61 -36q30 26 53 36zM-310 0h9q-57 -28 -102 -55q35 30 93 55zM-270 0h14q-65 -29 -148 -77q54 42 134 77zM-227 0h20q-80 -32 -196 -97q64 52 176 97zM-181 0
h29q-104 -37 -249 -117q79 57 220 117zM-130 0h39q-135 -43 -308 -137q95 69 269 137zM-73 0h54q-178 -46 -379 -158q123 88 325 158zM-10 0v820h72v-820q-228 -49 -458 -178q146 107 386 178z" />
    <glyph glyph-name="Icircumflex" unicode="&#xce;" horiz-adv-x="573" 
d="M578 780v-740h-31v740h31zM578 20v-20q240 -71 386 -178q-230 129 -458 178v820h72v-20h-51v-780h51zM476 407v-430q123 -22 251.5 -71t229.5 -112h-937l184 315l-184 298h456zM957 0q9 -5 15 -10l-20 10h5zM918 0q23 -10 53 -36q-40 24 -61 36h8zM878 0q58 -25 93 -55
q-45 27 -102 55h9zM838 0q80 -35 134 -77q-83 48 -148 77h14zM795 0q112 -45 176 -97q-116 65 -196 97h20zM749 0q141 -60 220 -117q-145 80 -249 117h29zM698 0q174 -68 269 -137q-173 94 -308 137h39zM641 0q202 -70 325 -158q-201 112 -379 158h54z" />
    <glyph glyph-name="Idieresis" unicode="&#xcf;" horiz-adv-x="573" 
d="M-5 780h33v-740h-33v740zM97 407h456l-184 -298l184 -315h-937q101 63 229.5 112t251.5 71v430zM-384 0h5l-20 -10zM-345 0h8q-21 -12 -61 -36q30 26 53 36zM-305 0h9q-57 -28 -102 -55q35 30 93 55zM-265 0h14q-65 -29 -148 -77q54 42 134 77zM-222 0h20
q-80 -32 -196 -97q64 52 176 97zM-176 0h29q-104 -37 -249 -117q79 57 220 117zM-125 0h39q-135 -43 -308 -137q95 69 269 137zM-68 0h54q-178 -46 -379 -158q123 88 325 158zM-5 820h72v-820q-228 -49 -458 -178q146 107 386 178v20h53v780h-53v20z" />
    <glyph glyph-name="Eth" unicode="&#xd0;" horiz-adv-x="573" 
d="M476 413h-456l184 298l-184 315h937q-101 -63 -229.5 -112t-251.5 -71v-430zM957 820h-5l20 10zM918 820h-8q21 12 61 36q-30 -26 -53 -36zM878 820h-9q57 28 102 55q-35 -30 -93 -55zM838 820h-14q65 29 148 77q-54 -42 -134 -77zM795 820h-20q80 32 196 97
q-64 -52 -176 -97zM749 820h-29q104 37 249 117q-79 -57 -220 -117zM698 820h-39q135 43 308 137q-95 -69 -269 -137zM641 820h-54q178 46 379 158q-123 -88 -325 -158zM578 820v-820h-72v820q228 49 458 178q-146 -107 -386 -178z" />
    <glyph glyph-name="Ntilde" unicode="&#xd1;" horiz-adv-x="573" 
d="M97 413v430q-123 22 -251.5 71t-229.5 112h937l-184 -315l184 -298h-456zM-384 820q-9 5 -15 10l20 -10h-5zM-345 820q-23 10 -53 36q40 -24 61 -36h-8zM-305 820q-58 25 -93 55q45 -27 102 -55h-9zM-265 820q-80 35 -134 77q83 -48 148 -77h-14zM-222 820
q-112 45 -176 97q116 -65 196 -97h-20zM-176 820q-141 60 -220 117q145 -80 249 -117h-29zM-125 820q-174 68 -269 137q173 -94 308 -137h-39zM-68 820q-202 70 -325 158q201 -112 379 -158h-54zM-5 820q-240 71 -386 178q230 -129 458 -178v-820h-72v820z" />
    <glyph glyph-name="Ograve" unicode="&#xd2;" horiz-adv-x="573" 
d="M578 40h-31v740h31v-740zM578 800h-51v-780h51v-20h-72v820q228 49 458 178q-146 -107 -386 -178v-20zM476 413h-456l184 298l-184 315h937q-101 -63 -229.5 -112t-251.5 -71v-430zM957 820h-5l20 10zM918 820h-8q21 12 61 36q-30 -26 -53 -36zM878 820h-9q57 28 102 55
q-35 -30 -93 -55zM838 820h-14q65 29 148 77q-54 -42 -134 -77zM795 820h-20q80 32 196 97q-64 -52 -176 -97zM749 820h-29q104 37 249 117q-79 -57 -220 -117zM698 820h-39q135 43 308 137q-95 -69 -269 -137zM641 820h-54q178 46 379 158q-123 -88 -325 -158z" />
    <glyph glyph-name="Oacute" unicode="&#xd3;" horiz-adv-x="573" 
d="M-5 40v740h31v-740h-31zM-5 800v20q-240 71 -386 178q230 -129 458 -178v-820h-72v20h51v780h-51zM97 413v430q-123 22 -251.5 71t-229.5 112h937l-184 -315l184 -298h-456zM-384 820q-9 5 -15 10l20 -10h-5zM-345 820q-23 10 -53 36q40 -24 61 -36h-8zM-305 820
q-58 25 -93 55q45 -27 102 -55h-9zM-265 820q-80 35 -134 77q83 -48 148 -77h-14zM-222 820q-112 45 -176 97q116 -65 196 -97h-20zM-176 820q-141 60 -220 117q145 -80 249 -117h-29zM-125 820q-174 68 -269 137q173 -94 308 -137h-39zM-68 820q-202 70 -325 158
q201 -112 379 -158h-54z" />
    <glyph glyph-name="Ocircumflex" unicode="&#xd4;" horiz-adv-x="360" 
d="M-5 820q24 0 45.5 -0.5t58.5 -4.5t67 -11t63.5 -20.5t56.5 -31.5t38.5 -47t15.5 -65v-830q-15 52 -54 90t-79.5 56.5t-90.5 29t-75.5 12.5t-45.5 2v820z" />
    <glyph glyph-name="Otilde" unicode="&#xd5;" horiz-adv-x="360" 
d="M365 0q-24 0 -45.5 0.5t-58.5 4.5t-67 11t-63.5 20.5t-56.5 31.5t-38.5 47t-15.5 65v830q15 -52 54 -90t79.5 -56.5t90.5 -29t75.5 -12.5t45.5 -2v-820z" />
    <glyph glyph-name="Odieresis" unicode="&#xd6;" horiz-adv-x="552" 
d="M446 470q-47 0 -83.5 -56t-37.5 -130h-28q2 45 33 143t31 145q0 14 -2 28t-5 26t-8 24t-9.5 21t-11.5 19.5l-11 16.5t-11.5 14.5t-10.5 12t-9.5 10l-7.5 7.5q-1 -1 -9 -9.5t-12.5 -13.5t-13.5 -17t-14.5 -21t-13 -23.5t-12 -28t-7.5 -31t-3 -34.5q0 -47 31 -145.5
t33 -143.5h-28q-1 74 -37.5 130t-83.5 56q-30 0 -58 -22t-28 -72q0 -74 81 -74q0 47 48 47q17 0 28.5 -20t12.5 -45h-50v-56h106q-4 -43 -46 -63q3 -10 16.5 -20.5t29.5 -10.5q7 -42 30 -66q26 27 32 66q15 0 28.5 10.5t16.5 20.5q-42 19 -46 63h104v56h-49q1 25 13 45
t29 20q48 0 48 -48q81 0 81 75q0 50 -28 72t-58 22zM-1 820h554v-820h-554v820z" />
    <glyph glyph-name="multiply" unicode="&#xd7;" horiz-adv-x="554" 
d="M446 470q-47 0 -83.5 -56t-37.5 -130h-28q2 45 33 143t31 145q0 14 -2 28t-5 26t-8 24t-9.5 21t-11.5 19.5l-11 16.5t-11.5 14.5t-10.5 12t-9.5 10l-7.5 7.5q-1 -1 -9 -9.5t-12.5 -13.5t-13.5 -17t-14.5 -21t-13 -23.5t-12 -28t-7.5 -31t-3 -34.5q0 -47 31 -145.5
t33 -143.5h-28q-1 74 -37.5 130t-83.5 56q-30 0 -58 -22t-28 -72q0 -74 81 -74q0 47 48 47q17 0 28.5 -20t12.5 -45h-50v-56h106q-4 -43 -46 -63q3 -10 16.5 -20.5t29.5 -10.5q7 -42 30 -66q26 27 32 66q15 0 28.5 10.5t16.5 20.5q-42 19 -46 63h104v56h-49q1 25 13 45
t29 20q48 0 48 -48q81 0 81 75q0 50 -28 72t-58 22zM-1 780h554v-740h-554v740zM-1 20h556v-20h-556v20zM-1 820h556v-20h-556v20z" />
    <glyph glyph-name="Oslash" unicode="&#xd8;" horiz-adv-x="487" 
d="M186 410q0 -29 20.5 -49.5t49.5 -20.5t49.5 20.5t20.5 49.5t-20.5 49.5t-49.5 20.5t-49.5 -20.5t-20.5 -49.5zM230 820h262v-820h-262q40 28 70 79.5t40 88.5l10 37q-5 0 -13 0.5t-33 4.5t-49.5 11t-58 22.5t-63 36.5t-60.5 54.5t-53 75.5q31 57 76.5 99t88.5 61.5
t81 30.5t61 13l23 1q-3 16 -10.5 41t-38.5 80.5t-71 83.5z" />
    <glyph glyph-name="Ugrave" unicode="&#xd9;" horiz-adv-x="487" 
d="M301 410q0 29 -20.5 49.5t-49.5 20.5t-49.5 -20.5t-20.5 -49.5t20.5 -49.5t49.5 -20.5t49.5 20.5t20.5 49.5zM257 820q-40 -28 -70 -79.5t-40 -88.5l-10 -37q9 0 24.5 -1.5t59 -12.5t82.5 -30.5t86 -61.5t78 -99q-31 -57 -76 -99t-88 -61.5t-81 -30.5t-62 -13l-23 -1
q3 -16 10.5 -41t38.5 -80.5t71 -83.5h-262v820h262z" />
    <glyph glyph-name="Uacute" unicode="&#xda;" horiz-adv-x="487" 
d="M492 780v-740h-48v740h48zM186 410q0 -29 20.5 -49.5t49.5 -20.5t49.5 20.5t20.5 49.5t-20.5 49.5t-49.5 20.5t-49.5 -20.5t-20.5 -49.5zM492 820v-20h-68v-780h68v-20h-262q40 28 70 79.5t40 88.5l10 37q-5 0 -13 0.5t-33 4.5t-49.5 11t-58 22.5t-63 36.5t-60.5 54.5
t-53 75.5q31 57 76.5 99t88.5 61.5t81 30.5t61 13l23 1q-3 16 -10.5 41t-38.5 80.5t-71 83.5h262z" />
    <glyph glyph-name="Ucircumflex" unicode="&#xdb;" horiz-adv-x="487" 
d="M-5 780h48v-740h-48v740zM301 410q0 29 -20.5 49.5t-49.5 20.5t-49.5 -20.5t-20.5 -49.5t20.5 -49.5t49.5 -20.5t49.5 20.5t20.5 49.5zM-5 820h262q-40 -28 -70 -79.5t-40 -88.5l-10 -37q9 0 24.5 -1.5t59 -12.5t82.5 -30.5t86 -61.5t78 -99q-31 -57 -76 -99t-88 -61.5
t-81 -30.5t-62 -13l-23 -1q3 -16 10.5 -41t38.5 -80.5t71 -83.5h-262v20h68v780h-68v20z" />
    <glyph glyph-name="Udieresis" unicode="&#xdc;" horiz-adv-x="487" 
d="M492 40h-170q24 26 43.5 74.5t27.5 84.5l8 36q-10 0 -27 2t-64 12.5t-87.5 27.5t-85 52t-69.5 81q25 46 69 81t88 52t84.5 27.5t66.5 12.5l25 2q-3 15 -8.5 39.5t-26 77t-44.5 78.5h170v-740zM492 20v-20h-262q40 28 70 78t40 86l10 36q-5 0 -13 0.5t-33 5.5t-49.5 12.5
t-58 23.5t-63 37t-60.5 55t-53 76q31 57 76.5 99.5t88.5 63t81 32t61 13.5l23 2q-3 15 -10.5 39.5t-38.5 78.5t-71 82h262v-20h-216q32 -27 56.5 -76t33.5 -84l9 -35q-9 0 -25 -2t-61 -14t-85 -30.5t-86 -57.5t-76 -91q29 -52 74 -91t88.5 -57.5t83 -30.5t63.5 -14l24 -2
q-3 -15 -9.5 -39t-32 -76.5t-57.5 -79.5h216zM186 410q0 -29 20.5 -49.5t49.5 -20.5t49.5 20.5t20.5 49.5t-20.5 49.5t-49.5 20.5t-49.5 -20.5t-20.5 -49.5z" />
    <glyph glyph-name="Yacute" unicode="&#xdd;" horiz-adv-x="487" 
d="M-5 40v740h170q-24 -26 -43.5 -74.5t-27.5 -84.5l-8 -36q10 0 27 -2t63.5 -12.5t87 -27.5t85.5 -52t70 -81q-25 -46 -68.5 -81t-87.5 -52t-85 -27.5t-66 -12.5l-26 -2q3 -15 8.5 -39.5t26 -77t44.5 -78.5h-170zM-5 20h216q-32 27 -56.5 76t-33.5 84l-9 35q9 0 25 2
t61.5 14t85.5 30.5t86 57.5t75 91q-30 52 -75 91t-88.5 57.5t-82.5 30.5t-63 14l-24 2q3 15 9.5 39t32 76.5t57.5 79.5h-216v20h262q-40 -28 -70 -78t-40 -86l-10 -36q9 0 24.5 -1.5t59 -14t82.5 -32.5t86 -62.5t78 -99.5q-31 -57 -76 -99.5t-88 -63t-81 -32t-62 -13.5
l-23 -2q3 -15 10.5 -39.5t38.5 -78.5t71 -82h-262v20zM301 410q0 29 -20.5 49.5t-49.5 20.5t-49.5 -20.5t-20.5 -49.5t20.5 -49.5t49.5 -20.5t49.5 20.5t20.5 49.5z" />
    <glyph glyph-name="Thorn" unicode="&#xde;" horiz-adv-x="173" 
d="M76 136l59 -59q8 11 8 25q0 17 -12.5 29.5t-29.5 12.5q-14 0 -25 -8zM126 69l-58 58q-9 -13 -9 -25q0 -17 12.5 -29.5t29.5 -12.5q12 0 25 9zM126 749q-11 8 -25 8q-17 0 -29.5 -12.5t-12.5 -29.5q0 -14 8 -25zM76 682q13 -9 25 -9q17 0 29.5 12.5t12.5 29.5q0 12 -9 25z
M178 0h-158v820h158v-820z" />
    <glyph glyph-name="germandbls" unicode="&#xdf;" horiz-adv-x="173" 
d="M97 136q-11 8 -25 8q-17 0 -29.5 -12.5t-12.5 -29.5q0 -14 8 -25zM47 69q13 -9 25 -9q17 0 29.5 12.5t12.5 29.5q0 12 -9 25zM47 749l59 -59q8 11 8 25q0 17 -12.5 29.5t-29.5 12.5q-14 0 -25 -8zM97 682l-58 58q-9 -13 -9 -25q0 -17 12.5 -29.5t29.5 -12.5q12 0 25 9z
M-5 0v820h158v-820h-158z" />
    <glyph glyph-name="agrave" unicode="&#xe0;" horiz-adv-x="203" 
d="M109 136l59 -59q8 11 8 25q0 17 -12.5 29.5t-29.5 12.5q-14 0 -25 -8zM159 69l-58 58q-9 -13 -9 -25q0 -17 12.5 -29.5t29.5 -12.5q12 0 25 9zM159 749q-11 8 -25 8q-17 0 -29.5 -12.5t-12.5 -29.5q0 -14 8 -25zM109 682q13 -9 25 -9q17 0 29.5 12.5t12.5 29.5
q0 12 -9 25zM60 780h148v-740h-148v740zM20 0v820h188v-20h-168v-780h168v-20h-188z" />
    <glyph glyph-name="aacute" unicode="&#xe1;" horiz-adv-x="203" 
d="M94 136q-11 8 -25 8q-17 0 -29.5 -12.5t-12.5 -29.5q0 -14 8 -25zM44 69q13 -9 25 -9q17 0 29.5 12.5t12.5 29.5q0 12 -9 25zM44 749l59 -59q8 11 8 25q0 17 -12.5 29.5t-29.5 12.5q-14 0 -25 -8zM94 682l-58 58q-9 -13 -9 -25q0 -17 12.5 -29.5t29.5 -12.5q12 0 25 9z
M143 780v-740h-148v740h148zM183 0h-188v20h168v780h-168v20h188v-820z" />
    <glyph glyph-name="acircumflex" unicode="&#xe2;" horiz-adv-x="394" 
d="M208 208q0 -20 14 -34t34 -14t34 14t14 34t-14 34t-34 14t-34 -14t-14 -34zM208 618q0 -20 14 -34t34 -14t34 14t14 34t-14 34t-34 14t-34 -14t-14 -34zM48 408q0 -28 20 -48t48 -20t48 20t20 48t-20 48t-48 20t-48 -20t-20 -48zM399 40h-48v740h48v-740zM399 0h-108v109
q-49 1 -84.5 36t-36.5 85h-30v58q-49 1 -84.5 36.5t-35.5 85.5t35.5 85.5t84.5 36.5v62h30q0 50 35.5 85.5t85.5 36.5v104h108v-20h-68v-780h68v-20z" />
    <glyph glyph-name="atilde" unicode="&#xe3;" horiz-adv-x="394" 
d="M186 208q0 20 -14 34t-34 14t-34 -14t-14 -34t14 -34t34 -14t34 14t14 34zM186 618q0 20 -14 34t-34 14t-34 -14t-14 -34t14 -34t34 -14t34 14t14 34zM346 408q0 28 -20 48t-48 20t-48 -20t-20 -48t20 -48t48 -20t48 20t20 48zM-5 40v740h48v-740h-48zM-5 0v20h68v780
h-68v20h108v-104q50 -1 85.5 -36.5t35.5 -85.5h30v-62q49 -1 84.5 -36.5t35.5 -85.5t-35.5 -85.5t-84.5 -36.5v-58h-30q-1 -50 -36.5 -85t-84.5 -36v-109h-108z" />
    <glyph glyph-name="adieresis" unicode="&#xe4;" horiz-adv-x="565" 
d="M-5 0v820h575v-820h-575zM283 687l-63 -195h-205l166 -120l-64 -195l166 120l166 -120l-64 195l166 120h-205zM283 411v-101l-149 -108zM293 411l80 -34l59 -175zM293 431l47 50h179zM283 431l-55 55l55 173v-228zM273 421l-82 -43l-144 103z" />
    <glyph glyph-name="aring" unicode="&#xe5;" horiz-adv-x="565" 
d="M-5 20h575v-20h-575v20zM-5 820h575v-20h-575v20zM-5 40v740h575v-740h-575zM283 687l-63 -195h-205l166 -120l-64 -195l166 120l166 -120l-64 195l166 120h-205zM283 411v-101l-149 -108zM293 411l80 -34l59 -175zM293 431l47 50h179zM283 431l-55 55l55 173v-228z
M273 421l-82 -43l-144 103z" />
    <glyph glyph-name="ae" unicode="&#xe6;" horiz-adv-x="68" 
d="M-5 820h78v-820h-78v820z" />
    <glyph glyph-name="ccedilla" unicode="&#xe7;" horiz-adv-x="68" 
d="M-5 20h78v-20h-78v20zM-5 820h78v-20h-78v20zM-5 780h78v-740h-78v740z" />
    <glyph glyph-name="egrave" unicode="&#xe8;" horiz-adv-x="148" 
d="M-5 820h158v-820h-158v820z" />
    <glyph glyph-name="eacute" unicode="&#xe9;" horiz-adv-x="148" 
d="M-5 20h158v-20h-158v20zM-5 820h158v-20h-158v20zM-5 780h158v-740h-158v740z" />
    <glyph glyph-name="ecircumflex" unicode="&#xea;" horiz-adv-x="394" 
d="M208 208q0 -20 14 -34t34 -14t34 14t14 34t-14 34t-34 14t-34 -14t-14 -34zM208 618q0 -20 14 -34t34 -14t34 14t14 34t-14 34t-34 14t-34 -14t-14 -34zM48 408q0 -28 20 -48t48 -20t48 20t20 48t-20 48t-48 20t-48 -20t-20 -48zM399 0h-108v109q-49 1 -84.5 36t-36.5 85
h-30v58q-49 1 -84.5 36.5t-35.5 85.5t35.5 85.5t84.5 36.5v62h30q0 50 35.5 85.5t85.5 36.5v104h108v-820z" />
    <glyph glyph-name="edieresis" unicode="&#xeb;" horiz-adv-x="398" 
d="M190 208q0 20 -14 34t-34 14t-34 -14t-14 -34t14 -34t34 -14t34 14t14 34zM190 618q0 20 -14 34t-34 14t-34 -14t-14 -34t14 -34t34 -14t34 14t14 34zM350 408q0 28 -20 48t-48 20t-48 -20t-20 -48t20 -48t48 -20t48 20t20 48zM-1 820h108v-104q50 -1 85.5 -36.5
t35.5 -85.5h30v-62q49 -1 84.5 -36.5t35.5 -85.5t-35.5 -85.5t-84.5 -36.5v-58h-30q-1 -50 -36.5 -85t-84.5 -36v-109h-108v820z" />
    <glyph glyph-name="igrave" unicode="&#xec;" horiz-adv-x="179" 
d="M20 772q20 0 34 14t14 34h116v-820h-116q0 20 -14 34.5t-34 14.5v723z" />
    <glyph glyph-name="iacute" unicode="&#xed;" horiz-adv-x="179" 
d="M159 772v-723q-20 0 -34 -14.5t-14 -34.5h-116v820h116q0 -20 14 -34t34 -14z" />
    <glyph glyph-name="icircumflex" unicode="&#xee;" horiz-adv-x="179" 
d="M184 780v-740h-83q0 18 -12.5 31t-30.5 13v653q18 0 30.5 12.5t12.5 30.5h83zM184 0h-116q0 20 -14 34.5t-34 14.5v723q20 0 34 14t14 34h116v-20h-100q0 -20 -13 -33t-33 -13v-687q19 0 32.5 -13.5t13.5 -33.5h100v-20z" />
    <glyph glyph-name="idieresis" unicode="&#xef;" horiz-adv-x="179" 
d="M-5 780h83q0 -18 12.5 -30.5t30.5 -12.5v-653q-18 0 -30.5 -13t-12.5 -31h-83v740zM-5 0v20h100q0 20 13.5 33.5t32.5 13.5v687q-19 0 -32.5 13t-13.5 33h-100v20h116q0 -20 14 -34t34 -14v-723q-20 0 -34 -14.5t-14 -34.5h-116z" />
    <glyph glyph-name="eth" unicode="&#xf0;" horiz-adv-x="179" 
d="M81 136l59 -59q8 11 8 25q0 17 -12.5 29.5t-29.5 12.5q-14 0 -25 -8zM131 69l-58 58q-9 -13 -9 -25q0 -17 12.5 -29.5t29.5 -12.5q12 0 25 9zM131 749q-11 8 -25 8q-17 0 -29.5 -12.5t-12.5 -29.5q0 -14 8 -25zM81 682q13 -9 25 -9q17 0 29.5 12.5t12.5 29.5q0 12 -9 25z
M20 772q20 0 34 14t14 34h116v-820h-116q0 20 -14 34.5t-34 14.5v723z" />
    <glyph glyph-name="ntilde" unicode="&#xf1;" horiz-adv-x="179" 
d="M98 136q-11 8 -25 8q-17 0 -29.5 -12.5t-12.5 -29.5q0 -14 8 -25zM48 69q13 -9 25 -9q17 0 29.5 12.5t12.5 29.5q0 12 -9 25zM48 749l59 -59q8 11 8 25q0 17 -12.5 29.5t-29.5 12.5q-14 0 -25 -8zM98 682l-58 58q-9 -13 -9 -25q0 -17 12.5 -29.5t29.5 -12.5q12 0 25 9z
M159 772v-723q-20 0 -34 -14.5t-14 -34.5h-116v820h116q0 -20 14 -34t34 -14z" />
    <glyph glyph-name="ograve" unicode="&#xf2;" horiz-adv-x="108" 
d="M-5 820h118v-820h-118v820z" />
    <glyph glyph-name="oacute" unicode="&#xf3;" horiz-adv-x="108" 
d="M-5 20h118v-20h-118v20zM-5 820h118v-20h-118v20zM-5 780h118v-740h-118v740z" />
    <glyph glyph-name="ocircumflex" unicode="&#xf4;" horiz-adv-x="219" 
d="M131 136l59 -59q8 11 8 25q0 17 -12.5 29.5t-29.5 12.5q-14 0 -25 -8zM181 69l-58 58q-9 -13 -9 -25q0 -17 12.5 -29.5t29.5 -12.5q12 0 25 9zM181 749q-11 8 -25 8q-17 0 -29.5 -12.5t-12.5 -29.5q0 -14 8 -25zM131 682q13 -9 25 -9q17 0 29.5 12.5t12.5 29.5
q0 12 -9 25zM224 780v-740h-123q0 18 -12.5 31t-30.5 13v653q18 0 30.5 12.5t12.5 30.5h123zM224 0h-156q0 20 -14 34.5t-34 14.5v723q20 0 34 14t14 34h156v-20h-140q0 -20 -13 -33t-33 -13v-687q19 0 32.5 -13.5t13.5 -33.5h140v-20z" />
    <glyph glyph-name="otilde" unicode="&#xf5;" horiz-adv-x="219" 
d="M88 136q-11 8 -25 8q-17 0 -29.5 -12.5t-12.5 -29.5q0 -14 8 -25zM38 69q13 -9 25 -9q17 0 29.5 12.5t12.5 29.5q0 12 -9 25zM38 749l59 -59q8 11 8 25q0 17 -12.5 29.5t-29.5 12.5q-14 0 -25 -8zM88 682l-58 58q-9 -13 -9 -25q0 -17 12.5 -29.5t29.5 -12.5q12 0 25 9z
M-5 780h123q0 -18 12.5 -30.5t30.5 -12.5v-653q-18 0 -30.5 -13t-12.5 -31h-123v740zM-5 0v20h140q0 20 13.5 33.5t32.5 13.5v687q-19 0 -32.5 13t-13.5 33h-140v20h156q0 -20 14 -34t34 -14v-723q-20 0 -34 -14.5t-14 -34.5h-156z" />
    <glyph glyph-name="odieresis" unicode="&#xf6;" horiz-adv-x="148" 
d="M-5 820h158v-820h-158v820z" />
    <glyph glyph-name="divide" unicode="&#xf7;" horiz-adv-x="316" 
d="M18 569q0 -14 9 -23t22 -9q17 0 26 12h63q-4 -93 -4 -153q0 -53 2 -129t4 -125l3 -50l14 -36l16 36q9 185 9 304l-5 153h63q9 -12 25 -12q13 0 22.5 9.5t9.5 22.5t-9.5 22.5t-22.5 9.5q-15 0 -25 -13h-63v103q12 9 12 26q0 14 -9 23t-22 9q-14 0 -23 -9.5t-9 -22.5
q0 -17 12 -26v-103h-63q-10 13 -26 13q-13 0 -22 -9t-9 -23zM-5 820h326v-820h-326v820z" />
    <glyph glyph-name="oslash" unicode="&#xf8;" horiz-adv-x="148" 
d="M-5 820h158v-820h-158v820z" />
    <glyph glyph-name="ugrave" unicode="&#xf9;" horiz-adv-x="725" 
d="M363 364q25 28 45 46q-25 21 -46 46q-25 -28 -45 -46q25 -21 46 -46zM702 410q0 41 -29 70t-70 29q-60 0 -150 -72l24 -22q78 61 126 61q32 0 49 -19.5t17 -46.5q0 -30 -18 -48.5t-48 -18.5q-75 0 -213 144l-22 -25q145 -151 235 -151q41 0 70 29t29 70zM56 410
q0 27 18.5 46.5t47.5 19.5q36 0 89 -36t89 -72l35 -35l22 25q-5 6 -15 16.5t-38 36.5t-55.5 45.5t-62.5 36t-64 16.5q-40 0 -69.5 -31t-29.5 -68q0 -39 30.5 -69t68.5 -30q61 0 151 72l-27 21q-80 -61 -124 -61q-27 0 -46.5 21.5t-19.5 45.5zM363 749q-41 0 -70.5 -29
t-29.5 -70q0 -12 2 -24t4.5 -21t8.5 -21t9.5 -18.5t12 -18.5t11.5 -16t13 -17t12 -15l21 27q-61 78 -61 124q0 28 19.5 47.5t47.5 19.5q23 0 44.5 -20.5t21.5 -46.5q0 -39 -36 -92t-72 -87l-36 -34l26 -22q6 6 16.5 16t36.5 39.5t45.5 57t36 62t16.5 60.5q0 41 -29 70
t-70 29zM296 170q0 35 36 88t72 88l35 36l-24 22q-6 -5 -16.5 -15t-36.5 -38.5t-46 -55.5t-36.5 -62t-16.5 -63q0 -40 31 -69.5t69 -29.5q40 0 69.5 30t29.5 69q0 59 -72 149l-22 -25q61 -77 61 -124q0 -27 -19.5 -47t-46.5 -20q-28 0 -47.5 19.5t-19.5 47.5zM-5 820h735
v-820h-735v820z" />
    <glyph glyph-name="uacute" unicode="&#xfa;" horiz-adv-x="725" 
d="M-5 20h735v-20h-735v20zM-5 820h735v-20h-735v20zM-5 780h735v-740h-735v740zM363 364q25 28 45 46q-25 21 -46 46q-25 -28 -45 -46q25 -21 46 -46zM702 410q0 41 -29 70t-70 29q-60 0 -150 -72l24 -22q78 61 126 61q32 0 49 -19.5t17 -46.5q0 -30 -18 -48.5t-48 -18.5
q-75 0 -213 144l-22 -25q145 -151 235 -151q41 0 70 29t29 70zM56 410q0 27 18.5 46.5t47.5 19.5q36 0 89 -36t89 -72l35 -35l22 25q-5 6 -15 16.5t-38 36.5t-55.5 45.5t-62.5 36t-64 16.5q-40 0 -69.5 -31t-29.5 -68q0 -39 30.5 -69t68.5 -30q61 0 151 72l-27 21
q-80 -61 -124 -61q-27 0 -46.5 21.5t-19.5 45.5zM363 749q-41 0 -70.5 -29t-29.5 -70q0 -12 2 -24t4.5 -21t8.5 -21t9.5 -18.5t12 -18.5t11.5 -16t13 -17t12 -15l21 27q-61 78 -61 124q0 28 19.5 47.5t47.5 19.5q23 0 44.5 -20.5t21.5 -46.5q0 -39 -36 -92t-72 -87l-36 -34
l26 -22q6 6 16.5 16t36.5 39.5t45.5 57t36 62t16.5 60.5q0 41 -29 70t-70 29zM296 170q0 35 36 88t72 88l35 36l-24 22q-6 -5 -16.5 -15t-36.5 -38.5t-46 -55.5t-36.5 -62t-16.5 -63q0 -40 31 -69.5t69 -29.5q40 0 69.5 30t29.5 69q0 59 -72 149l-22 -25q61 -77 61 -124
q0 -27 -19.5 -47t-46.5 -20q-28 0 -47.5 19.5t-19.5 47.5z" />
    <glyph glyph-name="ucircumflex" unicode="&#xfb;" horiz-adv-x="871" 
d="M663 410q0 22 -16.5 38.5t-38.5 16.5t-38.5 -16.5t-16.5 -38.5t16.5 -38.5t38.5 -16.5t38.5 16.5t16.5 38.5zM318 410q0 22 -16 38.5t-39 16.5t-39 -16.5t-16 -38.5t16 -38.5t39 -16.5t39 16.5t16 38.5zM876 780v-740h-69l-329 370l330 370h68zM-5 780h68l330 -370
l-330 -370h-68v740zM786 820h90v-20h-78l-348 -390l348 -390h78v-20h-90l-350 393l-351 -393h-90v20h78l348 390l-348 390h-78v20h90l351 -393z" />
    <glyph glyph-name="udieresis" unicode="&#xfc;" horiz-adv-x="871" 
d="M663 410q0 22 -16.5 38.5t-38.5 16.5t-38.5 -16.5t-16.5 -38.5t16.5 -38.5t38.5 -16.5t38.5 16.5t16.5 38.5zM318 410q0 22 -16 38.5t-39 16.5t-39 -16.5t-16 -38.5t16 -38.5t39 -16.5t39 16.5t16 38.5zM876 0h-90l-350 393l-351 -393h-90v820h90l351 -393l350 393h90
v-820z" />
    <glyph glyph-name="yacute" unicode="&#xfd;" horiz-adv-x="701" 
d="M-5 820h711v-820h-711v820zM244 563q32 -49 61.5 -79.5t47.5 -30.5q28 0 106 114q48 70 48 116q0 29 -19 48.5t-45 19.5q-31 0 -59 -15.5t-34 -15.5t-34.5 15.5t-58.5 15.5q-27 0 -45 -20.5t-18 -49.5q0 -43 50 -118zM257 77q30 0 58.5 15.5t34.5 15.5q5 0 34 -15.5
t59 -15.5q26 0 45 20t19 49q0 54 -54 123q-82 106 -108 106q-14 0 -46 -34.5t-57 -75.5q-48 -80 -48 -117q0 -30 18 -50.5t45 -20.5zM25 506q0 -29 15.5 -57.5t15.5 -34.5q0 -5 -15.5 -34t-15.5 -58q0 -27 20.5 -45.5t49.5 -18.5q56 0 119 49q108 83 108 107q0 17 -30 48
t-77 59q-83 49 -120 49q-30 0 -50 -18.5t-20 -45.5zM491 307q80 -49 117 -49q28 0 48 18.5t20 44.5q0 31 -15.5 59t-15.5 34t15.5 34.5t15.5 58.5q0 27 -20.5 45t-49.5 18q-53 0 -117 -49q-111 -84 -111 -107q0 -16 33 -47.5t80 -59.5z" />
    <glyph glyph-name="thorn" unicode="&#xfe;" horiz-adv-x="701" 
d="M-5 20h711v-20h-711v20zM-5 820h711v-20h-711v20zM-5 780h711v-740h-711v740zM244 563q32 -49 61.5 -79.5t47.5 -30.5q28 0 106 114q48 70 48 116q0 29 -19 48.5t-45 19.5q-31 0 -59 -15.5t-34 -15.5t-34.5 15.5t-58.5 15.5q-27 0 -45 -20.5t-18 -49.5q0 -43 50 -118z
M257 77q30 0 58.5 15.5t34.5 15.5q5 0 34 -15.5t59 -15.5q26 0 45 20t19 49q0 54 -54 123q-82 106 -108 106q-14 0 -46 -34.5t-57 -75.5q-48 -80 -48 -117q0 -30 18 -50.5t45 -20.5zM25 506q0 -29 15.5 -57.5t15.5 -34.5q0 -5 -15.5 -34t-15.5 -58q0 -27 20.5 -45.5
t49.5 -18.5q56 0 119 49q108 83 108 107q0 17 -30 48t-77 59q-83 49 -120 49q-30 0 -50 -18.5t-20 -45.5zM491 307q80 -49 117 -49q28 0 48 18.5t20 44.5q0 31 -15.5 59t-15.5 34t15.5 34.5t15.5 58.5q0 27 -20.5 45t-49.5 18q-53 0 -117 -49q-111 -84 -111 -107
q0 -16 33 -47.5t80 -59.5z" />
    <glyph glyph-name="ydieresis" unicode="&#xff;" horiz-adv-x="148" 
d="M-5 20h158v-20h-158v20zM-5 820h158v-20h-158v20zM-5 780h158v-740h-158v740z" />
    <glyph glyph-name="quoteleft" unicode="&#x2018;" horiz-adv-x="148" 
d="M25 700v-96h98v96h-38v60zM-5 820h158v-820h-158v820z" />
    <glyph glyph-name="quoteright" unicode="&#x2019;" horiz-adv-x="148" 
d="M123 664v96h-98v-96h38l1 -60zM-5 820h158v-820h-158v820z" />
    <glyph glyph-name="quotedblleft" unicode="&#x201c;" horiz-adv-x="148" 
d="M-5 20h158v-20h-158v20zM-5 820h158v-20h-158v20zM25 700v-96h98v96h-38v60zM-5 780h158v-740h-158v740z" />
    <glyph glyph-name="quotedblright" unicode="&#x201d;" horiz-adv-x="148" 
d="M-5 20h158v-20h-158v20zM-5 820h158v-20h-158v20zM123 664v96h-98v-96h38l1 -60zM-5 780h158v-740h-158v740z" />
    <glyph glyph-name="uni2116" unicode="&#x2116;" horiz-adv-x="671" 
d="M555 60v96h-98v-96h98zM364 253q0 -24 15.5 -41.5t38.5 -17.5h174q23 0 38.5 17t15.5 41v449q0 24 -15 41.5t-38 17.5h-175q-23 0 -38.5 -17t-15.5 -41v-449zM548 640v-326q0 -8 -5 -14t-12 -6h-54q-15 0 -15 20v326q0 20 15 20h56q15 0 15 -20zM-5 20h681v-20h-681v20z
M-5 820h681v-20h-681v20zM25 60h94v429l112 -429h92v700h-94l-1 -331l-80 331h-123v-700zM-5 780h681v-740h-681v740z" />
    <glyph glyph-name="uniE000" unicode="&#xe000;" horiz-adv-x="330" 
d="M-5 20h340v-20h-340v20zM-5 820h340v-20h-340v20zM24 119q0 -24 15.5 -41.5t38.5 -17.5h174q23 0 38.5 17t15.5 41v583q0 24 -15 41.5t-38 17.5h-175q-23 0 -38.5 -17t-15.5 -41v-583zM208 640v-460q0 -8 -6 -14t-13 -6h-47q-8 0 -14 6t-6 14v460q0 8 6 14t14 6h46
q8 0 14 -6t6 -14zM-5 780h340v-740h-340v740z" />
    <glyph glyph-name="uniE001" unicode="&#xe001;" horiz-adv-x="188" 
d="M163 60v700h-70q-2 -9 -7 -22.5t-22.5 -35.5t-38.5 -22v-60h40v-560h98zM-5 20h198v-20h-198v20zM-5 820h198v-20h-198v20zM-5 780h198v-740h-198v740z" />
    <glyph glyph-name="uniE002" unicode="&#xe002;" 
d="M-5 20h340v-20h-340v20zM-5 820h340v-20h-340v20zM307 248h-98v-68q0 -8 -5.5 -14t-12.5 -6h-50q-4 0 -8.5 5t-6.5 10l-3 5l184 440v82q0 24 -16 41t-39 17h-173q-23 0 -38.5 -18t-15.5 -42v-122h98v62q0 8 5.5 14t12.5 6h50q4 0 8.5 -5t6.5 -10l3 -5l-184 -438v-142h282
v188zM336 780v-740h-341v740h341z" />
    <glyph glyph-name="uniE003" unicode="&#xe003;" 
d="M250 60q23 0 39 17.5t16 41.5v271q0 12 -12.5 25.5t-24.5 20.5l-13 7q6 2 14 6.5t22 17.5t14 25v210q0 24 -16 41t-39 17h-173q-23 0 -38.5 -17t-15.5 -41v-102h98v40q0 8 5 14t12 6h53q16 0 16 -20v-148h-90v-102h90v-210q0 -8 -5 -14t-12 -6h-52q-7 0 -12 6t-5 14v144
h-98v-204q0 -25 15.5 -42.5t39.5 -17.5h172zM-5 20h340v-20h-340v20zM-5 820h340v-20h-340v20zM336 780v-740h-341v740h341z" />
    <glyph glyph-name="uniE004" unicode="&#xe004;" horiz-adv-x="357" 
d="M200 60h94v167h40v96h-40v437h-63l-207 -437v-95h176v-168zM202 323h-83l83 189v-189zM-5 20h367v-20h-367v20zM-5 820h367v-20h-367v20zM362 780v-740h-367v740h367z" />
    <glyph glyph-name="uniE005" unicode="&#xe005;" 
d="M253 492h-130v168h184v100h-282v-370h168q16 0 16 -20v-190q0 -20 -16 -20h-56q-14 0 -14 20v116h-98v-177q0 -24 15.5 -41.5t38.5 -17.5h174q23 0 38.5 17t15.5 41v315q0 24 -15.5 41.5t-38.5 17.5zM-5 20h340v-20h-340v20zM-5 820h340v-20h-340v20zM336 780v-740h-341
v740h341z" />
    <glyph glyph-name="uniE006" unicode="&#xe006;" 
d="M-5 20h340v-20h-340v20zM-5 820h340v-20h-340v20zM-5 780h341v-740h-341v740zM24 118q0 -24 15.5 -41t38.5 -17h172q23 0 39.5 17.5t16.5 40.5v309q0 24 -15 42t-38 18h-131v153q0 8 5.5 14t13.5 6h46q8 0 14.5 -6t6.5 -14v-42h98v104q0 24 -15.5 41t-38.5 17h-174
q-23 0 -38.5 -17t-15.5 -41v-584zM122 390q40 -2 65 -2q8 0 14.5 -6t6.5 -14v-188q0 -8 -6.5 -14t-14.5 -6h-46q-8 0 -13.5 6t-5.5 14v210z" />
    <glyph glyph-name="uniE007" unicode="&#xe007;" 
d="M-5 20h340v-20h-340v20zM-5 820h340v-20h-340v20zM133 60l174 560v140h-282v-182h98v62l18 20h50l18 -20l-184 -580h108zM336 780v-740h-341v740h341z" />
    <glyph glyph-name="uniE008" unicode="&#xe008;" horiz-adv-x="330" 
d="M-5 20h340v-20h-340v20zM-5 820h340v-20h-340v20zM-5 780h340v-740h-340v740zM24 119q0 -24 15.5 -41.5t38.5 -17.5h174q23 0 38.5 17t15.5 41v274q0 12 -12.5 24.5t-25.5 19.5l-12 6q6 2 14 6.5t22 18t14 25.5v209q0 24 -15 41.5t-38 17.5h-175q-23 0 -38.5 -17
t-15.5 -41v-210q0 -12 12.5 -24.5t25.5 -19.5l12 -6q-6 -2 -14 -6.5t-22 -18t-14 -25.5v-273zM122 512v128q0 20 15 20h56q15 0 15 -20v-128q0 -20 -15 -20h-56q-15 0 -15 20zM208 370v-190q0 -8 -5 -14t-12 -6h-54q-15 0 -15 20v190q0 20 16 20h54q16 0 16 -20z" />
    <glyph glyph-name="uniE009" unicode="&#xe009;" 
d="M-5 20h340v-20h-340v20zM-5 820h340v-20h-340v20zM-5 780h341v-740h-341v740zM306 702q0 24 -15.5 41t-38.5 17h-172q-23 0 -39.5 -17.5t-16.5 -40.5v-309q0 -24 15 -42t38 -18h131v-153q0 -8 -5.5 -14t-13.5 -6h-46q-8 0 -14.5 6t-6.5 14v92h-98v-154q0 -24 15.5 -41
t38.5 -17h174q23 0 38.5 17t15.5 41v584zM208 430q-40 2 -65 2q-8 0 -14.5 6t-6.5 14v188q0 8 6.5 14t14.5 6h46q8 0 13.5 -6t5.5 -14v-210z" />
    <glyph glyph-name="uniE00A" unicode="&#xe00a;" horiz-adv-x="639" 
d="M616 760h-101l-56 -363l-51 363h-107l118 -700h83zM-5 820h649v-820h-649v820zM259 60h98l-116 700h-93l-123 -700h96l17 110h105zM155 272l38 242l35 -242h-73z" />
    <glyph glyph-name="uniE00B" unicode="&#xe00b;" horiz-adv-x="639" 
d="M343 760h-104l-56 -363l-51 363h-107l118 -700h83zM-5 820h649v-820h-649v820zM519 60h98l-116 700h-93l-123 -700h96l17 110h105zM415 272l38 242l35 -242h-73z" />
    <glyph glyph-name="uniE00C" unicode="&#xe00c;" horiz-adv-x="773" 
d="M751 760h-103l-40 -359l-45 359h-61l-37 -358l-42 358h-105l100 -700h67l50 318l38 -318h70zM-5 820h783v-820h-783v820zM259 60h98l-116 700h-93l-123 -700h96l17 110h105zM155 272l38 242l35 -242h-73z" />
    <glyph glyph-name="uniE00D" unicode="&#xe00d;" horiz-adv-x="764" 
d="M453 760h-103l-40 -359l-45 359h-61l-37 -358l-42 358h-105l100 -700h67l50 318l38 -318h70zM-5 820h774v-820h-774v820zM644 60h98l-116 700h-93l-123 -700h96l17 110h105zM540 272l38 242l35 -242h-73z" />
    <glyph glyph-name="uniE00E" unicode="&#xe00e;" horiz-adv-x="639" 
d="M502 60v370l116 330h-93l-69 -216l-69 216h-93l117 -330v-370h91zM-5 820h649v-820h-649v820zM259 60h98l-116 700h-93l-123 -700h96l17 110h105zM155 272l38 242l35 -242h-73z" />
    <glyph glyph-name="uniE00F" unicode="&#xe00f;" horiz-adv-x="639" 
d="M228 60v370l116 330h-93l-69 -216l-69 216h-93l117 -330v-370h91zM-5 820h649v-820h-649v820zM519 60h98l-116 700h-93l-123 -700h96l17 110h105zM415 272l38 242l35 -242h-73z" />
    <glyph glyph-name="uniE010" unicode="&#xe010;" horiz-adv-x="673" 
d="M649 660v100h-344v-100h123v-600h98v600h123zM-5 820h683v-820h-683v820zM259 60h98l-116 700h-93l-123 -700h96l17 110h103zM155 272l38 242l35 -242h-73z" />
    <glyph glyph-name="uniE011" unicode="&#xe011;" horiz-adv-x="667" 
d="M367 660v100h-344v-100h123v-600h98v600h123zM-5 820h677v-820h-677v820zM547 60h98l-116 700h-93l-123 -700h96l17 110h105zM443 272l38 242l35 -242h-73z" />
    <glyph glyph-name="uniE012" unicode="&#xe012;" horiz-adv-x="624" 
d="M124 60v360h90v102h-90v138h69q7 0 12 -6t5 -14v-40h98v102q0 24 -15.5 41t-38.5 17h-228v-700h98zM-5 820h634v-820h-634v820zM504 60h98l-116 700h-93l-123 -700h96l17 110h105zM400 272l38 242l35 -242h-73z" />
    <glyph glyph-name="uniE013" unicode="&#xe013;" horiz-adv-x="614" 
d="M489 760v-580q0 -20 -16 -20h-54q-16 0 -16 20v65h-98v-127q0 -24 15.5 -41t38.5 -17h175q23 0 38 17t15 41v642h-98zM367 660v100h-344v-100h123v-600h98v600h123zM-5 820h624v-820h-624v820z" />
    <glyph glyph-name="uniE014" unicode="&#xe014;" horiz-adv-x="633" 
d="M124 760h-98v-700h282v180h-98v-80h-86v600zM609 660v100h-344v-100h123v-600h98v600h123zM-5 820h643v-820h-643v820z" />
    <glyph glyph-name="uniE015" unicode="&#xe015;" horiz-adv-x="618" 
d="M482 60v370l116 330h-93l-69 -216l-69 216h-93l117 -330v-370h91zM124 760h-98v-700h282v180h-98v-80h-86v600zM-5 820h628v-820h-628v820z" />
    <glyph glyph-name="uniE016" unicode="&#xe016;" horiz-adv-x="602" 
d="M479 760v-580q0 -20 -16 -20h-54q-16 0 -16 20v65h-98v-127q0 -24 15.5 -41t38.5 -17h175q23 0 38 17t15 41v642h-98zM228 60v370l116 330h-93l-69 -216l-69 216h-93l117 -330v-370h91zM-5 820h612v-820h-612v820z" />
    <glyph glyph-name="uniE017" unicode="&#xe017;" horiz-adv-x="639" 
d="M-5 20h649v-20h-649v20zM-5 820h649v-20h-649v20zM616 760h-101l-56 -363l-51 363h-107l118 -700h83zM-5 780h649v-740h-649v740zM259 60h98l-116 700h-93l-123 -700h96l17 110h105zM155 272l38 242l35 -242h-73z" />
    <glyph glyph-name="uniE018" unicode="&#xe018;" horiz-adv-x="639" 
d="M-5 20h649v-20h-649v20zM-5 820h649v-20h-649v20zM343 760h-104l-56 -363l-51 363h-107l118 -700h83zM-5 780h649v-740h-649v740zM519 60h98l-116 700h-93l-123 -700h96l17 110h105zM415 272l38 242l35 -242h-73z" />
    <glyph glyph-name="uniE019" unicode="&#xe019;" horiz-adv-x="773" 
d="M-5 20h783v-20h-783v20zM-5 820h783v-20h-783v20zM751 760h-103l-40 -359l-45 359h-61l-37 -358l-42 358h-105l100 -700h67l50 318l38 -318h70zM-5 780h783v-740h-783v740zM259 60h98l-116 700h-93l-123 -700h96l17 110h105zM155 272l38 242l35 -242h-73z" />
    <glyph glyph-name="uniE01A" unicode="&#xe01a;" horiz-adv-x="764" 
d="M-5 20h774v-20h-774v20zM-5 820h774v-20h-774v20zM453 760h-103l-40 -359l-45 359h-61l-37 -358l-42 358h-105l100 -700h67l50 318l38 -318h70zM-5 780h774v-740h-774v740zM644 60h98l-116 700h-93l-123 -700h96l17 110h105zM540 272l38 242l35 -242h-73z" />
    <glyph glyph-name="uniE01B" unicode="&#xe01b;" horiz-adv-x="639" 
d="M-5 20h649v-20h-649v20zM-5 820h649v-20h-649v20zM502 60v370l116 330h-93l-69 -216l-69 216h-93l117 -330v-370h91zM-5 780h649v-740h-649v740zM259 60h98l-116 700h-93l-123 -700h96l17 110h105zM155 272l38 242l35 -242h-73z" />
    <glyph glyph-name="uniE01C" unicode="&#xe01c;" horiz-adv-x="639" 
d="M-5 20h649v-20h-649v20zM-5 820h649v-20h-649v20zM228 60v370l116 330h-93l-69 -216l-69 216h-93l117 -330v-370h91zM-5 780h649v-740h-649v740zM519 60h98l-116 700h-93l-123 -700h96l17 110h105zM415 272l38 242l35 -242h-73z" />
    <glyph glyph-name="uniE01D" unicode="&#xe01d;" horiz-adv-x="673" 
d="M-5 20h683v-20h-683v20zM-5 820h683v-20h-683v20zM649 660v100h-344v-100h123v-600h98v600h123zM-5 780h683v-740h-683v740zM259 60h98l-116 700h-93l-123 -700h96l17 110h103zM155 272l38 242l35 -242h-73z" />
    <glyph glyph-name="uniE01E" unicode="&#xe01e;" horiz-adv-x="667" 
d="M-5 20h677v-20h-677v20zM-5 820h677v-20h-677v20zM367 660v100h-344v-100h123v-600h98v600h123zM-5 780h677v-740h-677v740zM547 60h98l-116 700h-93l-123 -700h96l17 110h105zM443 272l38 242l35 -242h-73z" />
    <glyph glyph-name="uniE01F" unicode="&#xe01f;" horiz-adv-x="624" 
d="M-5 20h634v-20h-634v20zM-5 820h634v-20h-634v20zM124 60v360h90v102h-90v138h69q7 0 12 -6t5 -14v-40h98v102q0 24 -15.5 41t-38.5 17h-228v-700h98zM-5 780h634v-740h-634v740zM504 60h98l-116 700h-93l-123 -700h96l17 110h105zM400 272l38 242l35 -242h-73z" />
    <glyph glyph-name="uniE020" unicode="&#xe020;" horiz-adv-x="614" 
d="M-5 20h624v-20h-624v20zM-5 820h624v-20h-624v20zM489 760v-580q0 -20 -16 -20h-54q-16 0 -16 20v65h-98v-127q0 -24 15.5 -41t38.5 -17h175q23 0 38 17t15 41v642h-98zM367 660v100h-344v-100h123v-600h98v600h123zM-5 780h624v-740h-624v740z" />
    <glyph glyph-name="uniE021" unicode="&#xe021;" horiz-adv-x="633" 
d="M-5 20h643v-20h-643v20zM-5 820h643v-20h-643v20zM124 760h-98v-700h282v180h-98v-80h-86v600zM609 660v100h-344v-100h123v-600h98v600h123zM-5 780h643v-740h-643v740z" />
    <glyph glyph-name="uniE022" unicode="&#xe022;" horiz-adv-x="618" 
d="M-5 20h628v-20h-628v20zM-5 820h628v-20h-628v20zM482 60v370l116 330h-93l-69 -216l-69 216h-93l117 -330v-370h91zM124 760h-98v-700h282v180h-98v-80h-86v600zM-5 780h628v-740h-628v740z" />
    <glyph glyph-name="uniE023" unicode="&#xe023;" horiz-adv-x="602" 
d="M-5 20h612v-20h-612v20zM-5 820h612v-20h-612v20zM479 760v-580q0 -20 -16 -20h-50q-8 0 -14 6t-6 14v65h-98v-127q0 -24 15.5 -41t38.5 -17h175q23 0 38 17t15 41v642h-98zM228 60v370l116 330h-93l-69 -216l-69 216h-93l117 -330v-370h91zM-5 780h612v-740h-612v740z
" />
    <glyph glyph-name="uniE024" unicode="&#xe024;" horiz-adv-x="918" 
d="M799 60h98l-116 700h-93l-123 -700h96l17 110h105zM695 272l38 242l35 -242h-73zM616 760h-101l-56 -363l-51 363h-107l118 -700h83zM-5 820h928v-820h-928v820zM259 60h98l-116 700h-93l-123 -700h96l17 110h105zM155 272l38 242l35 -242h-73z" />
    <glyph glyph-name="uniE025" unicode="&#xe025;" horiz-adv-x="904" 
d="M343 760h-104l-56 -363l-51 363h-107l118 -700h83zM881 760h-104l-56 -363l-51 363h-107l118 -700h83zM-5 820h914v-820h-914v820zM519 60h98l-116 700h-93l-123 -700h96l17 110h105zM415 272l38 242l35 -242h-73z" />
    <glyph glyph-name="uniE026" unicode="&#xe026;" horiz-adv-x="1061" 
d="M259 60h98l-116 700h-93l-123 -700h96l17 110h105zM155 272l38 242l35 -242h-73zM751 760h-103l-40 -359l-45 359h-61l-37 -358l-42 358h-105l100 -700h67l50 318l38 -318h70zM-5 820h1071v-820h-1071v820zM939 60h98l-116 700h-93l-123 -700h96l17 110h105zM835 272
l38 242l35 -242h-73z" />
    <glyph glyph-name="uniE027" unicode="&#xe027;" horiz-adv-x="904" 
d="M259 60h98l-116 700h-93l-123 -700h96l17 110h105zM155 272l38 242l35 -242h-73zM502 60v370l116 330h-93l-69 -216l-69 216h-93l117 -330v-370h91zM-5 820h914l-4 -820h-910v820zM783 60h98l-116 700h-93l-123 -700h96l17 110h105zM679 272l38 242l35 -242h-73z" />
    <glyph glyph-name="uniE028" unicode="&#xe028;" horiz-adv-x="905" 
d="M228 60v370l116 330h-93l-69 -216l-69 216h-93l117 -330v-370h91zM768 60v370l116 330h-93l-69 -216l-69 216h-93l117 -330v-370h91zM-5 820h915v-820h-915v820zM519 60h98l-116 700h-93l-123 -700h96l17 110h105zM415 272l38 242l35 -242h-73z" />
    <glyph glyph-name="uniE029" unicode="&#xe029;" horiz-adv-x="951" 
d="M259 60h98l-116 700h-93l-123 -700h96l17 110h103zM155 272l38 242l35 -242h-73zM649 660v100h-344v-100h123v-600h98v600h123zM-5 820h961v-820h-961v820zM829 60h98l-116 700h-93l-123 -700h96l17 110h103zM725 272l38 242l35 -242h-73z" />
    <glyph glyph-name="uniE02A" unicode="&#xe02a;" horiz-adv-x="958" 
d="M367 660v100h-344v-100h123v-600h98v600h123zM935 660v100h-344v-100h123v-600h98v600h123zM-5 820h968v-820h-968v820zM547 60h98l-116 700h-93l-123 -700h96l17 110h103zM443 272l38 242l35 -242h-73z" />
    <glyph glyph-name="uniE02B" unicode="&#xe02b;" horiz-adv-x="938" 
d="M915 660v100h-344v-100h123v-600h98v600h123zM124 60v360h90v102h-90v138h69q7 0 12 -6t5 -14v-40h98v102q0 24 -15.5 41t-38.5 17h-228v-700h98zM-5 820h948v-820h-948v820zM504 60h98l-116 700h-93l-123 -700h96l17 110h103zM400 272l38 242l35 -242h-73z" />
    <glyph glyph-name="uniE02C" unicode="&#xe02c;" horiz-adv-x="918" 
d="M-5 20h928v-20h-928v20zM-5 820h928v-20h-928v20zM799 60h98l-116 700h-93l-123 -700h96l17 110h105zM695 272l38 242l35 -242h-73zM616 760h-101l-56 -363l-51 363h-107l118 -700h83zM-5 780h928v-740h-928v740zM259 60h98l-116 700h-93l-123 -700h96l17 110h105z
M155 272l38 242l35 -242h-73z" />
    <glyph glyph-name="uniE02D" unicode="&#xe02d;" horiz-adv-x="904" 
d="M-5 20h914v-20h-914v20zM-5 820h914v-20h-914v20zM343 760h-104l-56 -363l-51 363h-107l118 -700h83zM881 760h-104l-56 -363l-51 363h-107l118 -700h83zM-5 780h914v-740h-914v740zM519 60h98l-116 700h-93l-123 -700h96l17 110h105zM415 272l38 242l35 -242h-73z" />
    <glyph glyph-name="uniE02E" unicode="&#xe02e;" horiz-adv-x="1061" 
d="M-5 20h1071v-20h-1071v20zM-5 820h1071v-20h-1071v20zM259 60h98l-116 700h-93l-123 -700h96l17 110h105zM155 272l38 242l35 -242h-73zM751 760h-103l-40 -359l-45 359h-61l-37 -358l-42 358h-105l100 -700h67l50 318l38 -318h70zM-5 780h1071v-740h-1071v740zM939 60
h98l-116 700h-93l-123 -700h96l17 110h105zM835 272l38 242l35 -242h-73z" />
    <glyph glyph-name="uniE02F" unicode="&#xe02f;" horiz-adv-x="904" 
d="M-5 20h914v-20h-914v20zM-5 820h914v-20h-914v20zM259 60h98l-116 700h-93l-123 -700h96l17 110h105zM155 272l38 242l35 -242h-73zM502 60v370l116 330h-93l-69 -216l-69 216h-93l117 -330v-370h91zM-5 780h914v-740h-914v740zM783 60h98l-116 700h-93l-123 -700h96
l17 110h105zM679 272l38 242l35 -242h-73z" />
    <glyph glyph-name="uniE030" unicode="&#xe030;" horiz-adv-x="905" 
d="M-5 20h915v-20h-915v20zM-5 820h915v-20h-915v20zM228 60v370l116 330h-93l-69 -216l-69 216h-93l117 -330v-370h91zM768 60v370l116 330h-93l-69 -216l-69 216h-93l117 -330v-370h91zM-5 780h915v-740h-915v740zM519 60h98l-116 700h-93l-123 -700h96l17 110h105z
M415 272l38 242l35 -242h-73z" />
    <glyph glyph-name="uniE031" unicode="&#xe031;" horiz-adv-x="951" 
d="M-5 20h961v-20h-961v20zM-5 820h961v-20h-961v20zM259 60h98l-116 700h-93l-123 -700h96l17 110h103zM155 272l38 242l35 -242h-73zM649 660v100h-344v-100h123v-600h98v600h123zM-5 780h961v-740h-961v740zM829 60h98l-116 700h-93l-123 -700h96l17 110h103zM725 272
l38 242l35 -242h-73z" />
    <glyph glyph-name="uniE032" unicode="&#xe032;" horiz-adv-x="958" 
d="M-5 20h968v-20h-968v20zM-5 820h968v-20h-968v20zM367 660v100h-344v-100h123v-600h98v600h123zM935 660v100h-344v-100h123v-600h98v600h123zM-5 780h968v-740h-968v740zM547 60h98l-116 700h-93l-123 -700h96l17 110h103zM443 272l38 242l35 -242h-73z" />
    <glyph glyph-name="uniE033" unicode="&#xe033;" horiz-adv-x="938" 
d="M-5 20h948v-20h-948v20zM-5 820h948v-20h-948v20zM915 660v100h-344v-100h123v-600h98v600h123zM124 60v360h90v102h-90v138h69q7 0 12 -6t5 -14v-40h98v102q0 24 -15.5 41t-38.5 17h-228v-700h98zM-5 780h948v-740h-948v740zM504 60h98l-116 700h-93l-123 -700h96
l17 110h103zM400 272l38 242l35 -242h-73z" />
    <glyph glyph-name="uniE034" unicode="&#xe034;" horiz-adv-x="615" 
d="M457 60h94v167h40v96h-40v437h-63l-207 -437v-95h176v-168zM459 323h-83l83 189v-189zM131 60l174 560v140h-282v-182h98v62q0 8 5.5 14t12.5 6h50q4 0 8.5 -5t6.5 -10l3 -5l-184 -580h108zM-5 20h625v-20h-625v20zM-5 820h625v-20h-625v20zM620 780v-740h-625v740h625z
" />
    <glyph glyph-name="uniE035" unicode="&#xe035;" horiz-adv-x="615" 
d="M457 60h94v167h40v96h-40v437h-63l-207 -437v-95h176v-168zM459 323h-83l83 189v-189zM131 60l174 560v140h-282v-182h98v62q0 8 5.5 14t12.5 6h50q4 0 8.5 -5t6.5 -10l3 -5l-184 -580h108zM620 820v-820h-625v820h625z" />
    <glyph glyph-name="uniE036" unicode="&#xe036;" horiz-adv-x="669" 
d="M549 60h98l-116 700h-93l-123 -700h96l17 110h105zM445 272l38 242l35 -242h-73zM307 417v276q0 27 -15 47t-39 20h-228v-700h98v220zM209 644v-172l-86 -66v254h69q7 0 12 -4.5t5 -11.5zM-5 820h679v-820h-679v820z" />
    <glyph glyph-name="uniE037" unicode="&#xe037;" horiz-adv-x="669" 
d="M-5 20h679v-20h-679v20zM-5 820h679v-20h-679v20zM549 60h98l-116 700h-93l-123 -700h96l17 110h105zM445 272l38 242l35 -242h-73zM307 417v276q0 27 -15 47t-39 20h-228v-700h98v220zM209 644v-172l-86 -66v254h69q7 0 12 -4.5t5 -11.5zM-5 780h679v-740h-679v740z" />
    <glyph glyph-name="uniE038" unicode="&#xe038;" horiz-adv-x="1331" 
d="M1191 60v370l116 330h-93l-69 -216l-69 216h-93l117 -330v-370h91zM259 60h98l-116 700h-93l-123 -700h96l17 110h105zM155 272l38 242l35 -242h-73zM751 760h-103l-40 -359l-45 359h-61l-37 -358l-42 358h-105l100 -700h67l50 318l38 -318h70zM-5 820h1341v-820h-1341
v820zM939 60h98l-116 700h-93l-123 -700h96l17 110h105zM835 272l38 242l35 -242h-73z" />
    <glyph glyph-name="uniE039" unicode="&#xe039;" horiz-adv-x="1331" 
d="M-5 20h1341v-20h-1341v20zM-5 820h1341v-20h-1341v20zM1191 60v370l116 330h-93l-69 -216l-69 216h-93l117 -330v-370h91zM259 60h98l-116 700h-93l-123 -700h96l17 110h105zM155 272l38 242l35 -242h-73zM751 760h-103l-40 -359l-45 359h-61l-37 -358l-42 358h-105
l100 -700h67l50 318l38 -318h70zM-5 780h1341v-740h-1341v740zM939 60h98l-116 700h-93l-123 -700h96l17 110h105zM835 272l38 242l35 -242h-73z" />
    <glyph glyph-name="uniE03A" unicode="&#xe03a;" horiz-adv-x="1616" 
d="M366 660v100h-344v-100h123v-600h98v600h123zM1476 60v370l116 330h-93l-69 -216l-69 216h-93l117 -330v-370h91zM544 60h98l-116 700h-93l-123 -700h96l17 110h105zM440 272l38 242l35 -242h-73zM1036 760h-103l-40 -359l-45 359h-61l-37 -358l-42 358h-105l100 -700h67
l50 318l38 -318h70zM-5 820h1626v-820h-1626v820zM1224 60h98l-116 700h-93l-123 -700h96l17 110h105zM1120 272l38 242l35 -242h-73z" />
    <glyph glyph-name="uniE03B" unicode="&#xe03b;" horiz-adv-x="1616" 
d="M-5 20h1626v-20h-1626v20zM-5 820h1626v-20h-1626v20zM366 660v100h-344v-100h123v-600h98v600h123zM1476 60v370l116 330h-93l-69 -216l-69 216h-93l117 -330v-370h91zM544 60h98l-116 700h-93l-123 -700h96l17 110h105zM440 272l38 242l35 -242h-73zM1036 760h-103
l-40 -359l-45 359h-61l-37 -358l-42 358h-105l100 -700h67l50 318l38 -318h70zM-5 780h1626v-740h-1626v740zM1224 60h98l-116 700h-93l-123 -700h96l17 110h105zM1120 272l38 242l35 -242h-73z" />
    <glyph glyph-name="uniE03C" unicode="&#xe03c;" horiz-adv-x="618" 
d="M595 760h-101l-56 -363l-51 363h-107l118 -700h83zM124 760h-98v-700h282v180h-98v-80h-86v600zM-5 820h628v-820h-628v820z" />
    <glyph glyph-name="uniE03D" unicode="&#xe03d;" horiz-adv-x="618" 
d="M-5 20h628v-20h-628v20zM-5 820h628v-20h-628v20zM595 760h-101l-56 -363l-51 363h-107l118 -700h83zM124 760h-98v-700h282v180h-98v-80h-86v600zM-5 780h628v-740h-628v740z" />
    <glyph glyph-name="uniE03E" unicode="&#xe03e;" horiz-adv-x="751" 
d="M124 760h-98v-700h282v180h-98v-80h-86v600zM729 760h-103l-40 -359l-45 359h-61l-37 -358l-42 358h-105l100 -700h67l50 318l38 -318h70zM-5 820h761v-820h-761v820z" />
    <glyph glyph-name="uniE03F" unicode="&#xe03f;" horiz-adv-x="751" 
d="M124 760h-98v-700h282v180h-98v-80h-86v600zM-5 20h761v-20h-761v20zM-5 820h761v-20h-761v20zM729 760h-103l-40 -359l-45 359h-61l-37 -358l-42 358h-105l100 -700h67l50 318l38 -318h70zM-5 780h761v-740h-761v740z" />
    <glyph glyph-name="uniE040" unicode="&#xe040;" horiz-adv-x="502" 
d="M379 760v-580q0 -20 -16 -20h-50q-8 0 -14 6t-6 14v65h-98v-127q0 -24 15.5 -41t38.5 -17h175q23 0 38 17t15 41v642h-98zM124 60v360h90v102h-90v138h69q7 0 12 -6t5 -14v-40h98v102q0 24 -15.5 41t-38.5 17h-228v-700h98zM-5 820h512v-820h-512v820z" />
    <glyph glyph-name="uniE041" unicode="&#xe041;" horiz-adv-x="502" 
d="M-5 20h512v-20h-512v20zM-5 820h512v-20h-512v20zM379 760v-580q0 -20 -16 -20h-50q-8 0 -14 6t-6 14v65h-98v-127q0 -24 15.5 -41t38.5 -17h175q23 0 38 17t15 41v642h-98zM124 60v360h90v102h-90v138h69q7 0 12 -6t5 -14v-40h98v102q0 24 -15.5 41t-38.5 17h-228v-700
h98zM-5 780h512v-740h-512v740z" />
    <glyph glyph-name="uniE042" unicode="&#xe042;" horiz-adv-x="1034" 
d="M894 60v370l116 330h-93l-69 -216l-69 216h-93l117 -330v-370h91zM454 760h-103l-40 -359l-45 359h-61l-37 -358l-42 358h-105l100 -700h67l50 318l38 -318h70zM-5 820h1044v-820h-1044v820zM642 60h98l-116 700h-93l-123 -700h96l17 110h105zM538 272l38 242l35 -242
h-73z" />
    <glyph glyph-name="uniE043" unicode="&#xe043;" horiz-adv-x="1034" 
d="M-5 20h1044v-20h-1044v20zM-5 820h1044v-20h-1044v20zM894 60v370l116 330h-93l-69 -216l-69 216h-93l117 -330v-370h91zM454 760h-103l-40 -359l-45 359h-61l-37 -358l-42 358h-105l100 -700h67l50 318l38 -318h70zM-5 780h1044v-740h-1044v740zM642 60h98l-116 700h-93
l-123 -700h96l17 110h105zM538 272l38 242l35 -242h-73z" />
    <glyph glyph-name="uniE044" unicode="&#xe044;" horiz-adv-x="1209" 
d="M1185 660v100h-344v-100h123v-600h98v600h123zM799 60h98l-116 700h-93l-123 -700h96l17 110h103zM695 272l38 242l35 -242h-73zM616 760h-101l-56 -363l-51 363h-107l118 -700h83zM-5 820h1219v-820h-1219v820zM259 60h98l-116 700h-93l-123 -700h96l17 110h105z
M155 272l38 242l35 -242h-73z" />
    <glyph glyph-name="uniE045" unicode="&#xe045;" horiz-adv-x="1209" 
d="M1185 660v100h-344v-100h123v-600h98v600h123zM-5 20h1219v-20h-1219v20zM-5 820h1219v-20h-1219v20zM799 60h98l-116 700h-93l-123 -700h96l17 110h103zM695 272l38 242l35 -242h-73zM616 760h-101l-56 -363l-51 363h-107l118 -700h83zM-5 780h1219v-740h-1219v740z
M259 60h98l-116 700h-93l-123 -700h96l17 110h105zM155 272l38 242l35 -242h-73z" />
    <glyph glyph-name="uniE046" unicode="&#xe046;" horiz-adv-x="1483" 
d="M799 60h98l-116 700h-93l-123 -700h96l17 110h103zM695 272l38 242l35 -242h-73zM1185 660v100h-344v-100h123v-600h98v600h123zM1359 60h98l-116 700h-93l-123 -700h96l17 110h103zM1255 272l38 242l35 -242h-73zM616 760h-101l-56 -363l-51 363h-107l118 -700h83z
M-5 820h1493v-820h-1493v820zM259 60h98l-116 700h-93l-123 -700h96l17 110h105zM155 272l38 242l35 -242h-73z" />
    <glyph glyph-name="uniE047" unicode="&#xe047;" horiz-adv-x="1483" 
d="M799 60h98l-116 700h-93l-123 -700h96l17 110h103zM695 272l38 242l35 -242h-73zM1185 660v100h-344v-100h123v-600h98v600h123zM-5 20h1493v-20h-1493v20zM-5 820h1493v-20h-1493v20zM1359 60h98l-116 700h-93l-123 -700h96l17 110h103zM1255 272l38 242l35 -242h-73z
M616 760h-101l-56 -363l-51 363h-107l118 -700h83zM-5 780h1493v-740h-1493v740zM259 60h98l-116 700h-93l-123 -700h96l17 110h105zM155 272l38 242l35 -242h-73z" />
    <glyph glyph-name="uniE048" unicode="&#xe048;" horiz-adv-x="1057" 
d="M1035 660v100h-344v-100h123v-600h98v600h123zM453 760h-103l-40 -359l-45 359h-61l-37 -358l-42 358h-105l100 -700h67l50 318l38 -318h70zM-5 820h1067v-820h-1067v820zM644 60h98l-116 700h-93l-123 -700h96l17 110h103zM540 272l38 242l35 -242h-73z" />
    <glyph glyph-name="uniE049" unicode="&#xe049;" horiz-adv-x="1057" 
d="M1035 660v100h-344v-100h123v-600h98v600h123zM-5 20h1067v-20h-1067v20zM-5 820h1067v-20h-1067v20zM453 760h-103l-40 -359l-45 359h-61l-37 -358l-42 358h-105l100 -700h67l50 318l38 -318h70zM-5 780h1067v-740h-1067v740zM644 60h98l-116 700h-93l-123 -700h96
l17 110h103zM540 272l38 242l35 -242h-73z" />
    <glyph glyph-name="uniE04A" unicode="&#xe04a;" horiz-adv-x="671" 
d="M555 60v96h-98v-96h98zM364 253q0 -24 15.5 -41.5t38.5 -17.5h174q23 0 38.5 17t15.5 41v449q0 24 -15 41.5t-38 17.5h-175q-23 0 -38.5 -17t-15.5 -41v-449zM548 640v-326q0 -8 -5 -14t-12 -6h-54q-15 0 -15 20v326q0 20 15 20h56q15 0 15 -20zM25 60h94v429l112 -429
h92v700h-94l-1 -331l-80 331h-123v-700zM-5 820h681v-820h-681v820z" />
    <glyph glyph-name="uniE04B" unicode="&#xe04b;" horiz-adv-x="651" 
d="M23 118q0 -24 15.5 -41t38.5 -17l175 -1q23 0 38 18t15 42v223h-98v-162q0 -20 -15 -20h-55q-16 0 -16 20v460q0 20 16 20h55q15 0 15 -20v-117h98v179q0 24 -15.5 41t-38.5 17h-174q-23 0 -38.5 -17.5t-15.5 -41.5v-583zM535 60v96h-98v-96h98zM344 253
q0 -24 15.5 -41.5t38.5 -17.5h174q23 0 38.5 17t15.5 41v449q0 24 -15 41.5t-38 17.5h-175q-23 0 -38.5 -17t-15.5 -41v-449zM528 640v-326q0 -8 -5 -14t-12 -6h-54q-15 0 -15 20v326q0 20 15 20h56q15 0 15 -20zM-5 20h661v-20h-661v20zM-5 820h661v-20h-661v20zM-5 780
h661v-740h-661v740z" />
    <glyph glyph-name="uniE04C" unicode="&#xe04c;" horiz-adv-x="651" 
d="M23 118q0 -24 15.5 -41t38.5 -17l175 -1q23 0 38 18t15 42v223h-98v-162q0 -20 -15 -20h-55q-16 0 -16 20v460q0 20 16 20h55q15 0 15 -20v-117h98v179q0 24 -15.5 41t-38.5 17h-174q-23 0 -38.5 -17.5t-15.5 -41.5v-583zM535 60v96h-98v-96h98zM344 253
q0 -24 15.5 -41.5t38.5 -17.5h174q23 0 38.5 17t15.5 41v449q0 24 -15 41.5t-38 17.5h-175q-23 0 -38.5 -17t-15.5 -41v-449zM528 640v-326q0 -8 -5 -14t-12 -6h-54q-15 0 -15 20v326q0 20 15 20h56q15 0 15 -20zM-5 820h661v-820h-661v820z" />
    <glyph glyph-name="uniE04D" unicode="&#xe04d;" horiz-adv-x="651" 
d="M23 118q0 -24 15.5 -41t38.5 -17l175 -1q23 0 38 18t15 42v223h-98v-162q0 -20 -15 -20h-55q-16 0 -16 20v460q0 20 16 20h55q15 0 15 -20v-117h98v179q0 24 -15.5 41t-38.5 17h-174q-23 0 -38.5 -17.5t-15.5 -41.5v-583zM535 60v96h-98v-96h98zM344 253
q0 -24 15.5 -41.5t38.5 -17.5h174q23 0 38.5 17t15.5 41v449q0 24 -15 41.5t-38 17.5h-175q-23 0 -38.5 -17t-15.5 -41v-449zM528 640v-326q0 -8 -5 -14t-12 -6h-54q-15 0 -15 20v326q0 20 15 20h56q15 0 15 -20zM-5 20h661v-20h-661v20zM-5 820h661v-20h-661v20zM-5 780
h661v-740h-661v740z" />
    <glyph glyph-name="uniE04E" unicode="&#xe04e;" horiz-adv-x="651" 
d="M23 118q0 -24 15.5 -41t38.5 -17l175 -1q23 0 38 18t15 42v223h-98v-162q0 -20 -15 -20h-55q-16 0 -16 20v460q0 20 16 20h55q15 0 15 -20v-117h98v179q0 24 -15.5 41t-38.5 17h-174q-23 0 -38.5 -17.5t-15.5 -41.5v-583zM535 60v96h-98v-96h98zM344 253
q0 -24 15.5 -41.5t38.5 -17.5h174q23 0 38.5 17t15.5 41v449q0 24 -15 41.5t-38 17.5h-175q-23 0 -38.5 -17t-15.5 -41v-449zM528 640v-326q0 -8 -5 -14t-12 -6h-54q-15 0 -15 20v326q0 20 15 20h56q15 0 15 -20zM-5 820h661v-820h-661v820z" />
    <glyph glyph-name="uniE04F" unicode="&#xe04f;" horiz-adv-x="573" 
d="M476 407v-430q123 -22 251.5 -71t229.5 -112h-937l284 315l-284 298h456zM957 0q9 -5 15 -10l-20 10h5zM918 0q23 -10 53 -36q-40 24 -61 36h8zM878 0q58 -25 93 -55q-45 27 -102 55h9zM838 0q80 -35 134 -77q-83 48 -148 77h14zM795 0q112 -45 176 -97q-116 65 -196 97
h20zM749 0q141 -60 220 -117q-145 80 -249 117h29zM698 0q174 -68 269 -137q-173 94 -308 137h39zM641 0q202 -70 325 -158q-201 112 -379 158h54zM578 0q240 -71 386 -178q-230 129 -458 178v820h72v-820z" />
    <glyph glyph-name="uniE050" unicode="&#xe050;" horiz-adv-x="568" 
d="M92 407h456l-284 -298l284 -315h-937q101 63 229.5 112t251.5 71v430zM-389 0h5l-20 -10zM-350 0h8q-21 -12 -61 -36q30 26 53 36zM-310 0h9q-57 -28 -102 -55q35 30 93 55zM-270 0h14q-65 -29 -148 -77q54 42 134 77zM-227 0h20q-80 -32 -196 -97q64 52 176 97zM-181 0
h29q-104 -37 -249 -117q79 57 220 117zM-130 0h39q-135 -43 -308 -137q95 69 269 137zM-73 0h54q-178 -46 -379 -158q123 88 325 158zM-10 0v820h72v-820q-228 -49 -458 -178q146 107 386 178z" />
    <glyph glyph-name="uniE051" unicode="&#xe051;" horiz-adv-x="573" 
d="M578 780v-740h-31v740h31zM578 20v-20q240 -71 386 -178q-230 129 -458 178v820h72v-20h-51v-780h51zM476 407v-430q123 -22 251.5 -71t229.5 -112h-937l284 315l-284 298h456zM957 0q9 -5 15 -10l-20 10h5zM918 0q23 -10 53 -36q-40 24 -61 36h8zM878 0q58 -25 93 -55
q-45 27 -102 55h9zM838 0q80 -35 134 -77q-83 48 -148 77h14zM795 0q112 -45 176 -97q-116 65 -196 97h20zM749 0q141 -60 220 -117q-145 80 -249 117h29zM698 0q174 -68 269 -137q-173 94 -308 137h39zM641 0q202 -70 325 -158q-201 112 -379 158h54z" />
    <glyph glyph-name="uniE052" unicode="&#xe052;" horiz-adv-x="573" 
d="M-5 780h33v-740h-33v740zM97 407h456l-284 -298l284 -315h-937q101 63 229.5 112t251.5 71v430zM-384 0h5l-20 -10zM-345 0h8q-21 -12 -61 -36q30 26 53 36zM-305 0h9q-57 -28 -102 -55q35 30 93 55zM-265 0h14q-65 -29 -148 -77q54 42 134 77zM-222 0h20
q-80 -32 -196 -97q64 52 176 97zM-176 0h29q-104 -37 -249 -117q79 57 220 117zM-125 0h39q-135 -43 -308 -137q95 69 269 137zM-68 0h54q-178 -46 -379 -158q123 88 325 158zM-5 820h72v-820q-228 -49 -458 -178q146 107 386 178v20h53v780h-53v20z" />
    <glyph glyph-name="uniE053" unicode="&#xe053;" horiz-adv-x="573" 
d="M476 413h-456l284 298l-284 315h937q-101 -63 -229.5 -112t-251.5 -71v-430zM957 820h-5l20 10zM918 820h-8q21 12 61 36q-30 -26 -53 -36zM878 820h-9q57 28 102 55q-35 -30 -93 -55zM838 820h-14q65 29 148 77q-54 -42 -134 -77zM795 820h-20q80 32 196 97
q-64 -52 -176 -97zM749 820h-29q104 37 249 117q-79 -57 -220 -117zM698 820h-39q135 43 308 137q-95 -69 -269 -137zM641 820h-54q178 46 379 158q-123 -88 -325 -158zM578 820v-820h-72v820q228 49 458 178q-146 -107 -386 -178z" />
    <glyph glyph-name="uniE054" unicode="&#xe054;" horiz-adv-x="573" 
d="M97 413v430q-123 22 -251.5 71t-229.5 112h937l-284 -315l284 -298h-456zM-384 820q-9 5 -15 10l20 -10h-5zM-345 820q-23 10 -53 36q40 -24 61 -36h-8zM-305 820q-58 25 -93 55q45 -27 102 -55h-9zM-265 820q-80 35 -134 77q83 -48 148 -77h-14zM-222 820
q-112 45 -176 97q116 -65 196 -97h-20zM-176 820q-141 60 -220 117q145 -80 249 -117h-29zM-125 820q-174 68 -269 137q173 -94 308 -137h-39zM-68 820q-202 70 -325 158q201 -112 379 -158h-54zM-5 820q-240 71 -386 178q230 -129 458 -178v-820h-72v820z" />
    <glyph glyph-name="uniE055" unicode="&#xe055;" horiz-adv-x="573" 
d="M578 40h-31v740h31v-740zM578 800h-51v-780h51v-20h-72v820q228 49 458 178q-146 -107 -386 -178v-20zM476 413h-456l284 298l-284 315h937q-101 -63 -229.5 -112t-251.5 -71v-430zM957 820h-5l20 10zM918 820h-8q21 12 61 36q-30 -26 -53 -36zM878 820h-9q57 28 102 55
q-35 -30 -93 -55zM838 820h-14q65 29 148 77q-54 -42 -134 -77zM795 820h-20q80 32 196 97q-64 -52 -176 -97zM749 820h-29q104 37 249 117q-79 -57 -220 -117zM698 820h-39q135 43 308 137q-95 -69 -269 -137zM641 820h-54q178 46 379 158q-123 -88 -325 -158z" />
    <glyph glyph-name="uniE056" unicode="&#xe056;" horiz-adv-x="573" 
d="M-5 40v740h31v-740h-31zM-5 800v20q-240 71 -386 178q230 -129 458 -178v-820h-72v20h51v780h-51zM97 413v430q-123 22 -251.5 71t-229.5 112h937l-284 -315l284 -298h-456zM-384 820q-9 5 -15 10l20 -10h-5zM-345 820q-23 10 -53 36q40 -24 61 -36h-8zM-305 820
q-58 25 -93 55q45 -27 102 -55h-9zM-265 820q-80 35 -134 77q83 -48 148 -77h-14zM-222 820q-112 45 -176 97q116 -65 196 -97h-20zM-176 820q-141 60 -220 117q145 -80 249 -117h-29zM-125 820q-174 68 -269 137q173 -94 308 -137h-39zM-68 820q-202 70 -325 158
q201 -112 379 -158h-54z" />
    <glyph glyph-name="uniE057" unicode="&#xe057;" horiz-adv-x="573" 
d="M476 407v-430q123 -22 251.5 -71t229.5 -112h-937l284 315l-284 298h456zM957 0q9 -5 15 -10l-20 10h5zM918 0q23 -10 53 -36q-40 24 -61 36h8zM878 0q58 -25 93 -55q-45 27 -102 55h9zM838 0q80 -35 134 -77q-83 48 -148 77h14zM795 0q112 -45 176 -97q-116 65 -196 97
h20zM749 0q141 -60 220 -117q-145 80 -249 117h29zM698 0q174 -68 269 -137q-173 94 -308 137h39zM641 0q202 -70 325 -158q-201 112 -379 158h54zM578 0q240 -71 386 -178q-230 129 -458 178v820h72v-820z" />
    <glyph glyph-name="uniE058" unicode="&#xe058;" horiz-adv-x="568" 
d="M92 407h456l-284 -298l284 -315h-937q101 63 229.5 112t251.5 71v430zM-389 0h5l-20 -10zM-350 0h8q-21 -12 -61 -36q30 26 53 36zM-310 0h9q-57 -28 -102 -55q35 30 93 55zM-270 0h14q-65 -29 -148 -77q54 42 134 77zM-227 0h20q-80 -32 -196 -97q64 52 176 97zM-181 0
h29q-104 -37 -249 -117q79 57 220 117zM-130 0h39q-135 -43 -308 -137q95 69 269 137zM-73 0h54q-178 -46 -379 -158q123 88 325 158zM-10 0v820h72v-820q-228 -49 -458 -178q146 107 386 178z" />
    </font>
</defs>
</svg>
