<?xml version="1.0" standalone="no"?>
<!DOCTYPE svg PUBLIC "-//W3C//DTD SVG 1.1//EN" "http://www.w3.org/Graphics/SVG/1.1/DTD/svg11.dtd" >
<svg xmlns="http://www.w3.org/2000/svg" xmlns:xlink="http://www.w3.org/1999/xlink" version="1.1">
<metadata>
Created by FontForge 20160405 at Tue Oct 16 15:41:17 2018
 By www-data
Copyright (c) 2018 by Weape Studio. All rights reserved.
</metadata>
<defs>
<font id="JellyBeanScriptDEMO-Regular" horiz-adv-x="369" >
  <font-face 
    font-family="Jelly Bean Script - DEMO"
    font-weight="400"
    font-stretch="normal"
    units-per-em="1100"
    panose-1="0 0 0 0 0 0 0 0 0 0"
    ascent="740"
    descent="-360"
    x-height="370"
    cap-height="724"
    bbox="-236.45 -345 1400.1 734"
    underline-thickness="50"
    underline-position="-175"
    unicode-range="U+000D-E067"
  />
<missing-glyph horiz-adv-x="333" 
 />
    <glyph glyph-name="uniE067" unicode="ll" horiz-adv-x="448" 
d="M170 134q0 27 4 50.5t8 46.5l10.5 59.5t19 95.5t26 110.5t32 105t37 78t40.5 30.5q20 0 28 -12t8 -33t-5 -49t-11 -60q-5 -27 -12.5 -64.5t-16.5 -78l-18 -81t-16 -75t-12 -60t-6 -34.5q-1 -5 -0.5 -14.5t2.5 -19t6.5 -16.5t12.5 -7q12 0 34.5 17t44 38t38 38.5
t17.5 18.5q16 16 30 16q7 0 14 -5q4 -4 5 -13t-4 -17q-3 -4 -19 -26t-41 -49.5t-57 -56t-67 -45.5q-19 -8 -37 -8q-26 0 -47 13t-34 38q-8 17 -11.5 35t-2.5 34zM-3 224q3 17 11 60t20 97t28 112t34 106.5t38 79.5t40 31t27 -13.5t6.5 -35.5t-6.5 -51t-12 -61
q-5 -24 -12 -56.5t-14.5 -68.5t-15.5 -73t-15 -70q-3 -15 -6.5 -41.5t-7.5 -57t-10 -61.5t-15 -56.5t-21.5 -41.5t-29.5 -16q-25 0 -37.5 14t-17.5 35.5t-3.5 47.5t5.5 50t8.5 43t5.5 27z" />
    <glyph glyph-name="e_l_l_y" unicode="elly" horiz-adv-x="1239" 
d="M532 134q0 27 3.5 50.5t8.5 46.5l10.5 59.5t19 95.5t26 110.5t32 105t37 78t40.5 30.5q20 0 28 -12t8 -33t-5 -49t-11 -60q-5 -27 -12.5 -64.5t-16.5 -78l-18 -81t-16 -75t-12 -60t-6 -34.5q-1 -5 -0.5 -14.5t2.5 -19t6.5 -16.5t12.5 -7t21 8t27.5 20.5t29.5 26.5
t27 26.5t20 21t9 9.5q2 1 4 3q2 11 7.5 35.5t15.5 49t23.5 43.5t30.5 19t26.5 -11.5t11.5 -27.5q0 -3 -2.5 -19t-6.5 -38.5t-8 -48t-6.5 -47t-2.5 -36t4 -14.5q5 0 13 8.5t17 20.5t17.5 25.5t13.5 22.5q7 13 15.5 34t16 42t13.5 37.5t7 19.5q10 24 31 24q24 0 33 -25
q3 -6 3 -29.5t-1 -52.5t-3 -58.5t-4 -47.5q-2 -16 -5 -37.5t-6 -41.5t-5.5 -34l-2.5 -14q27 11 59.5 35t60.5 70q22 35 29 65.5t6.5 57.5t-5 49.5t-6.5 40.5t2.5 31.5t22.5 22.5q8 5 18 5q24 0 42 -28.5t21 -74.5t-13.5 -103.5t-63.5 -115.5q-18 -22 -40.5 -41.5t-47 -36
t-50 -28.5t-49.5 -19l-3 -11t-7.5 -26.5t-9.5 -32t-10 -27.5q-4 -9 -14 -32.5t-28 -48t-45 -43t-64 -18.5q-20 0 -36.5 8t-29 21t-20 29t-9.5 33q-7 45 18 86q29 46 76.5 70t97.5 40q8 3 9 10q3 15 6 35.5t5 39.5q3 22 6 45q-10 -18 -22 -34q-11 -14 -25 -28.5t-31 -23.5
q-9 -6 -25 -6q-22 0 -36.5 9t-23 24t-12 33.5t-4.5 36.5q-26 -31 -62 -64t-76 -53q-19 -8 -37 -8q-26 0 -47 13t-34 38q-8 17 -11.5 35t-2.5 34zM116 155q1 -25 11.5 -46t38.5 -21q21 0 49.5 16t56 38.5t51.5 47t37 40.5q4 21 12 65t20.5 97.5t28 109.5t33 102.5t37 76
t39.5 29.5t27 -13.5t6.5 -35.5t-6.5 -51t-12 -61q-5 -24 -12 -56.5t-14.5 -68.5t-15.5 -73t-15 -70q-3 -15 -6.5 -41.5t-7.5 -57t-10 -61.5t-15 -56.5t-22 -41.5t-30 -16q-23 0 -35.5 12.5t-17.5 32t-4.5 43.5t3.5 47q-19 -21 -43 -43t-51 -40t-55 -29.5t-57 -11.5
q-33 0 -63.5 14.5t-47.5 35.5q-22 26 -30.5 56.5t-6.5 63.5q3 43 18 86t41.5 77t64 55.5t85.5 21.5q35 0 59.5 -21.5t29.5 -56.5q4 -22 0.5 -43t-11.5 -41q-8 -18 -22.5 -37t-32.5 -34.5t-39 -25.5t-43 -10q-5 0 -15 2h-3q-5 0 -5 -6zM828 -179q0 -25 20 -25q17 0 31.5 15
t27 35.5t21.5 41.5t13 33q-17 -8 -33 -17q-14 -8 -27.5 -16t-22.5 -16q-11 -10 -20.5 -23t-9.5 -28zM204 305q0 5 -2 12t-9 7q-12 0 -23 -11t-20 -26.5t-15.5 -31t-9.5 -24.5q-3 -12 7 -12q14 0 27 8.5t22.5 21.5t16 28t6.5 28z" />
    <glyph glyph-name="e_a_n" unicode="ean" horiz-adv-x="1396" 
d="M116 155q1 -25 11.5 -46t38.5 -21q9 0 19 2.5t19 7.5q32 17 60.5 39.5t50 43.5t34.5 36t14 18q2 2 2.5 3.5t2.5 2.5q9 22 23 44.5t32.5 40.5t41 29t48.5 11q19 0 34 -7t25 -16t15.5 -16.5t5.5 -8.5q2 0 5 7.5t8 17t13.5 20t21.5 16.5q14 6 25 6q15 0 26 -10t16 -28
q3 -12 2 -23.5t-3 -23.5q-5 -28 -11.5 -54.5t-14.5 -53.5q-4 -13 -9.5 -30t-9 -32t-2.5 -25t10 -10q6 0 18 8.5t27.5 21.5t32.5 29t32.5 31t27.5 27.5t17 17.5q2 12 6.5 32t10.5 42t13 41t14 29t16.5 14.5t20.5 4.5q17 0 27 -7.5t16 -19.5t8.5 -26t2.5 -27q0 -10 -1 -25.5
t-2 -29.5t-2 -25t-1 -13q2 1 12 12.5t23.5 27.5t28.5 33t25 28q11 11 23 19.5t29 8.5q15 0 27.5 -8.5t19.5 -25.5q5 -11 6 -22.5t0 -22.5q0 -5 -4.5 -26t-8.5 -49t-5.5 -59.5t4 -58t19.5 -43.5t42 -17q35 0 55 12.5t32 31.5t18.5 41t13.5 41t17.5 31.5t30.5 12.5t29.5 -19
t8.5 -47t-14 -61t-38.5 -61t-64 -47t-91.5 -19q-48 0 -80.5 14.5t-52.5 37t-29 50.5t-9 55t2 51t5 42t5.5 29t2.5 12q-2 0 -10.5 -10t-19 -24t-21 -28.5t-17.5 -25.5q-9 -13 -20.5 -34t-23 -41.5t-19.5 -35.5t-10 -17q-14 -17 -34 -17q-21 0 -32 15.5t-13 34.5
q-3 17 -3.5 34.5t-0.5 35.5q1 6 1 11.5t1 11.5q-14 -15 -35 -37t-45.5 -42.5t-49.5 -34.5t-47 -14q-23 0 -39 10.5t-25.5 26.5t-14 36.5t-5.5 39.5q-12 -14 -24 -27t-25.5 -23.5t-29.5 -17t-36 -6.5q-21 0 -37.5 9t-27.5 24t-16.5 34t-6.5 38q-19 -22 -43.5 -45t-52.5 -42.5
t-57.5 -32t-59.5 -12.5q-33 0 -63.5 14.5t-47.5 35.5q-22 26 -30.5 56.5t-6.5 63.5q3 43 18 86t41.5 77t64 55.5t85.5 21.5q35 0 59.5 -21.5t29.5 -56.5q4 -22 0.5 -43t-11.5 -41q-8 -18 -22.5 -37t-32.5 -34.5t-39 -25.5t-43 -10q-5 0 -15 2h-3q-5 0 -5 -6zM452 126
q11 0 22.5 10t22 23t19.5 27t15 21q4 5 7.5 15.5t4.5 21.5t-0.5 21.5t-7.5 16.5q-2 2 -6 2q-7 0 -19.5 -9t-29.5 -32q-11 -15 -20 -35t-13.5 -38t-3.5 -31t9 -13zM204 305q0 5 -2 12t-9 7q-12 0 -23 -11t-20 -26.5t-15.5 -31t-9.5 -24.5q-3 -12 7 -12q14 0 27 8.5t22.5 21.5
t16 28t6.5 28z" />
    <glyph glyph-name=".notdef" horiz-adv-x="333" 
 />
    <glyph glyph-name="uni0000" horiz-adv-x="0" 
 />
    <glyph glyph-name="uni0000" horiz-adv-x="0" 
 />
    <glyph glyph-name="uni000D" unicode="&#xd;" horiz-adv-x="275" 
 />
    <glyph glyph-name="space" unicode=" " horiz-adv-x="210" 
 />
    <glyph glyph-name="exclam" unicode="!" horiz-adv-x="323" 
d="M80 100q-31 0 -42 29q-5 10 -5.5 20t0.5 20q0 7 4 44t10.5 89.5t13.5 113.5t14.5 115t13.5 94.5t9 51.5q10 35 24 44t31 9q15 0 23.5 -8t12.5 -18.5t5.5 -20.5t1.5 -14q1 -8 -3.5 -48t-11 -96t-15.5 -120t-17.5 -121.5t-16 -100t-12.5 -54.5q-11 -27 -40 -29zM78 46
q12 0 22 -7t17 -17.5t9 -24.5t-2 -27q-6 -18 -20.5 -29.5t-31.5 -11.5q-26 0 -41.5 18t-15.5 43q0 26 19.5 41t43.5 15z" />
    <glyph glyph-name="quotedbl" unicode="&#x22;" horiz-adv-x="261" 
d="M170 722q13 0 19 -9.5t8 -22.5t1.5 -26.5t-1.5 -21.5q-1 -9 -4.5 -25.5t-10.5 -33t-16 -28.5t-20 -12t-18 8.5t-5 19.5q1 7 3.5 14.5t5.5 20t5.5 31.5t2.5 49q0 16 6.5 26t23.5 10zM91 578q-4 -13 -11.5 -24t-23.5 -11q-6 0 -9 1q-9 3 -14.5 10.5t-4.5 17.5q0 9 2 18
l4 18q4 20 7.5 39.5t4.5 39.5q0 13 8.5 20.5t20.5 7.5q17 0 26 -14q4 -7 4 -24t-2 -35.5t-5.5 -36.5t-6.5 -27z" />
    <glyph glyph-name="numbersign" unicode="#" horiz-adv-x="666" 
d="M387 177q2 7 2 10.5t-5 3.5h-3q-6 -1 -20 -4t-29 -6.5t-28 -6.5t-19 -4q-12 -3 -14.5 -10t-5.5 -18q-3 -12 -8 -41.5t-11 -60.5t-11.5 -56.5t-8.5 -31.5q-10 -16 -27 -16q-18 0 -30 14q-15 17 -13 39.5t4 43.5q2 23 7 46.5t10 46.5q1 3 2.5 10t-2.5 9q-1 0 -2 0.5t-2 0.5
q-7 0 -15.5 -3t-12.5 -4q-8 -1 -16.5 -2.5t-17.5 -1.5q-11 0 -21 4.5t-14 16.5q-6 16 0.5 33.5t22.5 22.5q23 8 46.5 13t46.5 12q9 3 12 9t5 14q4 13 7 25.5t6 25.5q2 5 6.5 17.5t1.5 16.5q-2 2 -7 2q-8 0 -20 -2.5t-16 -3.5q-10 -1 -22.5 -4t-24.5 -3q-8 0 -15.5 2.5
t-12.5 10.5q-13 20 -1.5 36t30.5 22q25 8 57 11t57 8q5 1 11.5 21t14 46t14.5 50.5t13 34.5q5 9 14 16.5t20 7.5q9 0 17 -7t11 -16t3 -19.5t-2 -20.5t-4 -19q-1 -5 -5.5 -17t-8.5 -25.5t-7 -25t-3 -16.5h6q8 0 20.5 1.5t25.5 3t24.5 3.5t17.5 2q11 2 15 5.5t7 14.5
q2 6 9.5 25t17 40t18.5 39t13 21q6 5 15 5q11 0 19 -8.5t10 -20.5q5 -23 -2.5 -47.5t-13.5 -46.5q-2 -4 -3.5 -8t3.5 -6q1 0 1.5 -0.5t1.5 -0.5q6 0 19.5 2t18.5 3q20 0 32 -12.5t9 -32.5q-2 -12 -8 -18.5t-14.5 -10t-18.5 -4.5t-19 -2q-10 -2 -23.5 -2t-23.5 -3
q-3 -1 -7 -13.5t-7 -27.5q-4 -17 -8 -39q15 2 29 4q11 2 22.5 3t17.5 1h15q6 0 12.5 -1t12.5 -5q16 -11 14 -28.5t-15 -28.5q-8 -7 -26.5 -13t-38.5 -10t-37 -7t-23 -4q-8 -2 -9 -5t-3 -10q-11 -49 -20 -99t-23 -98q-3 -9 -6.5 -19t-9.5 -18.5t-14 -14.5t-19 -6
q-18 0 -25 16t-4 31q8 50 18 97.5t21 95.5zM411 285q2 2 6 14.5t8 26.5t6 26.5t0 13.5q0 1 -7 1q-9 0 -27 -2t-35.5 -5t-31 -6t-14.5 -6t-5 -15.5t-7.5 -27t-6 -27t-1.5 -14.5h1q0 -1 2 -1q8 0 25.5 2.5t36 6.5t33.5 7.5t17 5.5z" />
    <glyph glyph-name="dollar" unicode="$" 
d="M190 382q5 -6 9 -12q4 -5 8 -9.5t6 -6.5q15 -16 28.5 -35.5t21.5 -39.5q20 -48 10.5 -101.5t-42.5 -93.5q-26 -32 -55.5 -46.5t-69.5 -14.5q-8 0 -11 1h-5q-3 -15 -6 -27q-2 -11 -4.5 -21.5t-4.5 -14.5q-5 -14 -13.5 -20t-19.5 -6q-12 0 -22.5 8.5t-13.5 24.5q-2 8 0 22
t5 28q4 16 9 34q-9 4 -17 10q-8 5 -15 10.5t-12 11.5q-8 11 -16.5 26t-12 31.5t0.5 31.5t21 26q7 4 15 4t15 -4.5t12 -10.5q7 -8 13 -23t14 -23q2 1 7 16.5t12 38.5t14.5 49.5t13.5 49t10 38.5t3 17q-2 4 -7 6.5t-8 4.5q-23 16 -41.5 35t-24.5 47q-5 26 1.5 53t19.5 50
q22 39 53 59t76 20q5 -1 9.5 -1.5t8.5 -0.5q9 0 14 11q7 16 13 31.5t13 30.5q5 11 12.5 20t19.5 9q6 0 9 -1q15 -5 18 -18t1 -29t-7.5 -31.5t-8.5 -24.5q-1 -4 -3 -9.5t-4 -10.5q-2 -6 -5 -13q4 -5 7 -9l6 -8t5 -7q18 -29 19 -60q0 -14 -4.5 -27t-21.5 -15h-2q-12 0 -20 9
q-6 8 -10 16q-2 5 -5 10zM119 131q-2 -5 -3 -9.5t5 -5.5q12 0 24.5 7.5t23.5 19t19 24.5t11 23q8 29 -2 57t-33 48q-6 -12 -12.5 -34.5t-13 -47t-12 -47t-7.5 -35.5zM100 491q-8 -20 -2 -37.5t26 -26.5q10 29 20 57.5t20 57.5q-2 1 -6 1q-21 0 -36 -17.5t-22 -34.5z" />
    <glyph glyph-name="percent" unicode="%" horiz-adv-x="486" 
d="M435 721q17 -7 23.5 -22.5t-1.5 -34.5l-18 -36t-40 -81t-54.5 -110.5t-61.5 -125t-61 -124t-53.5 -108t-37.5 -77t-15 -30.5q-5 -14 -17.5 -27.5t-30.5 -13.5q-7 0 -10 1q-20 5 -27.5 23t3.5 44q8 18 27 56t43.5 88t53.5 108t58 116.5t56.5 113.5t49 98.5t36 71.5
t16.5 32q8 15 22.5 27t28.5 12q7 0 10 -1zM495 191q0 -21 -8 -41.5t-22 -36.5t-33 -26t-41 -10q-25 0 -48.5 12t-36.5 33q-15 24 -13 51.5t15.5 51t36.5 39.5t50 16q17 0 35 -7t32.5 -19.5t23.5 -28.5t9 -34zM97 624q23 0 45.5 -9t34.5 -26q19 -27 18.5 -56t-15 -53
t-40 -39.5t-55.5 -15.5q-38 0 -59.5 26t-23.5 63q0 45 23.5 77.5t71.5 32.5zM92 488q15 0 23.5 8.5t10 19.5t-4 22.5t-19.5 15.5q-2 0 -4 0.5t-4 0.5q-12 0 -18.5 -11t-6.5 -23.5t5.5 -23t17.5 -9.5zM369 172q1 -11 8 -19t18 -8q13 0 20.5 11.5t6.5 23.5q0 14 -8.5 20
t-21.5 6q-12 -2 -18 -12.5t-5 -21.5z" />
    <glyph glyph-name="ampersand" unicode="&#x26;" horiz-adv-x="504" 
d="M243 223q8 2 18.5 6.5t21 9.5t20 11t15.5 11q27 26 36.5 45t9 35t-8.5 30.5t-15 32.5q-6 14 4.5 24.5t24.5 12.5q29 0 44.5 -22t18.5 -48q4 -28 -1 -54t-23 -55q-10 -16 -22.5 -28.5t-23.5 -21t-18.5 -14.5t-7.5 -9q0 -1 2.5 -15t2 -36t-8 -48.5t-27.5 -54.5t-55.5 -54
t-93.5 -45q-22 -8 -44 -8q-39 0 -74 20.5t-55 57.5q-14 26 -17 54t1.5 56t16 54t28.5 48q28 38 49.5 56t25.5 23q-50 29 -72 75t-15 103q5 45 28.5 90t59 81t80.5 58t93 22q35 0 66 -12q24 -9 42.5 -26t29.5 -39t13.5 -47.5t-4.5 -49.5q-4 -13 -15 -32.5t-29 -37t-43.5 -30
t-59.5 -12.5q-44 0 -63.5 21t-6.5 45q4 7 11 11t15 4t13 -4q4 -2 10.5 -4.5t14.5 -2.5q11 0 21 6q11 6 21.5 16.5t16.5 22.5t6 25.5t-8 25.5t-20 17t-26 5q-13 0 -26 -3t-24 -8q-24 -10 -46 -29t-38 -43t-24.5 -51t-5.5 -54q3 -31 22 -49t48 -23q9 -2 25 -4t32.5 -5.5
t31 -8.5t20.5 -13q4 -4 5 -14.5t-0.5 -21.5t-6.5 -21.5t-13 -14.5q-27 -13 -53.5 -18.5t-55.5 -22.5q-23 -15 -43 -34.5t-32 -45.5q-5 -10 -9.5 -23.5t-6.5 -27t0 -26.5t10 -24q10 -13 27 -19t36 -6q21 0 39 8q32 14 49.5 33.5t23 37.5t0.5 30.5t-19 12.5q-18 0 -27.5 -7
t-14 -17t-7 -20.5t-7.5 -16.5q-7 -10 -17 -10q-11 0 -19 11.5t-8 28.5q0 27 15 47.5t34 35t37 22t25 9.5z" />
    <glyph glyph-name="quotesingle" unicode="'" horiz-adv-x="207" 
d="M98 722q13 0 19 -9.5t8 -22.5t1.5 -26.5t-1.5 -21.5q-1 -9 -4.5 -25.5t-10 -33t-15.5 -28.5t-21 -12q-11 0 -18 8.5t-5 19.5q1 7 3.5 14.5t5.5 20t5.5 31.5t2.5 49q0 16 6.5 26t23.5 10z" />
    <glyph glyph-name="parenleft" unicode="(" horiz-adv-x="279" 
d="M191 724q13 -5 19 -16.5t2 -24.5q-2 -6 -4.5 -10t-6.5 -9q-42 -51 -68 -111.5t-41 -123.5q-14 -57 -19.5 -115t-0.5 -117q3 -45 11 -90t28 -87q2 -4 6.5 -11t9.5 -14t9 -13t4 -9q1 -8 -3 -13t-10 -8t-13 -4t-13 -1q-26 0 -43 17t-27 41.5t-15 51t-8 45.5q-9 56 -10 112
t4 112q3 41 8.5 78.5t14.5 72.5t23 69.5t33 70.5q14 26 29.5 51.5t37.5 44.5q7 5 15 9t16 4t12 -2z" />
    <glyph glyph-name="parenright" unicode=")" horiz-adv-x="273" 
d="M6 -18q3 10 10 30.5t15 56t16 89t13 128.5t2.5 136.5t-9.5 109t-16 81.5t-17 53q-5 14 -6 30t15 26q7 4 15 4q11 0 20 -6t16 -14q15 -18 27.5 -58.5t21.5 -93t13.5 -110.5t3.5 -110t-5 -96.5t-11 -85t-18 -79t-26 -79.5q-3 -9 -7.5 -18.5t-11 -17.5t-15 -13.5t-19.5 -5.5
q-16 0 -24 13.5t-3 29.5z" />
    <glyph glyph-name="asterisk" unicode="*" horiz-adv-x="382" 
d="M94 691q3 3 3 10q3 11 8.5 22t19.5 11q17 0 23 -15t8 -28q1 -3 0.5 -6t1.5 -5q3 -1 4.5 0.5l3.5 3.5q11 8 20.5 16.5t20.5 16.5q5 4 10 7.5t12 3.5q14 0 20 -13q7 -11 4 -23.5t-14 -22.5q-11 -8 -21 -16.5t-21 -17.5q-3 -2 -5.5 -3.5t-4.5 -6.5q11 -8 21 -15t21 -14
q2 -2 4.5 -2.5t4.5 -2.5q14 -9 18 -23.5t-2 -29.5q-8 -19 -26 -19q-11 0 -19 7l-18 14t-19 14q-2 2 -4.5 4t-6.5 1q-2 -2 -2 -5t-1 -6q-2 -12 -7.5 -24.5t-21.5 -12.5q-14 0 -20.5 12t-8.5 24q-1 6 -3 6q-1 0 -6 -3q-4 -2 -8 -5.5t-8 -5.5q-8 -5 -14.5 -10t-14.5 -10
q-10 -7 -16 -7t-11 5q-6 5 -8 14t2 17t10 14q12 12 24 22.5t25 21.5l4.5 4.5t4.5 5.5q-3 5 -7.5 7.5t-8.5 5.5q-8 6 -15 11.5t-13 12.5t-9.5 14t-3.5 16q0 27 25 27q2 0 10 -2q7 -2 13 -5.5t12 -6.5q2 -2 4.5 -3.5t5.5 -1.5z" />
    <glyph glyph-name="plus" unicode="+" horiz-adv-x="423" 
d="M165 387q1 8 3 17t6.5 16.5t11.5 13t17 5.5q17 0 24.5 -13.5t8.5 -27.5q1 -8 0.5 -26t-0.5 -27q1 -8 1.5 -11t8.5 -3h5q10 1 25 3t26 2q15 0 28 -6t15 -24q1 -10 -5 -19t-17 -12q-11 -4 -28.5 -5t-55.5 -6q-9 -1 -10 -10q-5 -32 -6 -57t-1 -46q0 -16 -11 -27t-25 -11
q-19 0 -31 14.5t-14 32.5q0 6 0.5 17t1.5 23.5t2.5 24t1.5 17.5q2 9 0 10.5t-12 1.5q-5 0 -20 -0.5t-30 -0.5q-17 0 -31.5 4t-16.5 26q0 11 6.5 17.5t15.5 11t18 6.5t14 2q4 0 12.5 0.5t17.5 1.5t16.5 2t10.5 1q9 1 11 9q2 12 3 24t3 29z" />
    <glyph glyph-name="comma" unicode="," horiz-adv-x="333" 
d="M108 -14q5 15 11 26t3 28q-3 13 -8 25t2 26q5 9 13.5 13.5t17.5 4.5q7 0 17 -4q13 -6 20 -16.5t9.5 -22.5t2 -25t-3.5 -25q-2 -9 -6.5 -21t-11 -22.5t-16 -17.5t-20.5 -7q-5 0 -13 3q-11 5 -15.5 14.5t-1.5 20.5z" />
    <glyph glyph-name="hyphen" unicode="-" horiz-adv-x="375" 
d="M276 334q10 -1 19.5 -7t15 -14.5t5.5 -18.5t-9 -19q-9 -10 -22 -11.5t-26 -1.5h-7h-7q-79 -3 -158 -3q-15 0 -26 4q-10 4 -16 11.5t-7.5 16.5t2.5 18t13 15q11 6 22.5 7.5t23.5 2.5q5 0 17 0.5t28.5 1t35 1t36.5 0.5q19 0 34.5 -0.5t25.5 -2.5z" />
    <glyph glyph-name="period" unicode="." horiz-adv-x="292" 
d="M93 68q0 14 11 24.5t26 10.5q17 0 30.5 -12.5t12.5 -29.5q0 -16 -10.5 -26.5t-26.5 -10.5t-29.5 13.5t-13.5 30.5z" />
    <glyph glyph-name="slash" unicode="/" horiz-adv-x="375" 
d="M-2 -68q-20 5 -27.5 23t3.5 44q8 18 27 56t43.5 88t53.5 108t58 116.5t56.5 113.5t49 98.5t36 71.5t16.5 32q8 15 22.5 27t28.5 12q7 0 10 -1q17 -7 23.5 -22.5t-1.5 -34.5l-18 -36t-40 -81t-54.5 -110.5t-61.5 -125t-61 -124t-53.5 -108t-37.5 -77t-15 -30.5
q-5 -14 -17.5 -27.5t-30.5 -13.5q-7 0 -10 1z" />
    <glyph glyph-name="zero" unicode="0" horiz-adv-x="481" 
d="M260 710q51 0 87.5 -20t59.5 -53t34 -76.5t11 -90.5q1 -48 -6 -97.5t-21.5 -97.5t-36.5 -93t-50 -84q-29 -39 -70.5 -68t-92.5 -29q-38 0 -76 15.5t-64 42.5q-32 32 -45 75.5t-14 88.5q-2 48 3 95t17 93t34 98.5t55 97t76.5 74t98.5 29.5zM102 242q0 -8 1 -32.5
t8.5 -50.5t24.5 -46.5t47 -20.5q24 0 44.5 15.5t38.5 41t32.5 57.5t25.5 64.5t18 63t10 52.5q4 33 1.5 73.5t-11.5 75t-24.5 58t-37.5 23.5q-29 0 -53 -22.5t-43.5 -57.5t-34.5 -78t-25 -84.5t-15.5 -77t-6.5 -54.5z" />
    <glyph glyph-name="one" unicode="1" horiz-adv-x="308" 
d="M211 570q-3 -10 -9 -34.5t-14 -58.5t-16.5 -73.5t-15.5 -79.5q-6 -40 -10.5 -78.5t-7 -71t-3.5 -58t-2 -39.5q-1 -18 -0.5 -36t-16.5 -31q-13 -9 -29 -9q-25 0 -41.5 16t-26 38.5t-13.5 48.5t-4 45q0 47 8.5 111.5t23 132.5t33 132t39.5 110q5 12 12 25t16 24t20 18.5
t24 7.5q12 0 27 -9q17 -10 21 -26t2 -35t-8 -37.5t-9 -32.5z" />
    <glyph glyph-name="two" unicode="2" horiz-adv-x="560" 
d="M73 563q-2 11 1.5 22.5t10.5 23t15.5 21t15.5 15.5q16 13 37.5 24t45.5 19.5t49 13t48 4.5q61 0 103 -33.5t53 -94.5q6 -35 2.5 -68.5t-14.5 -67.5q-10 -31 -26.5 -64t-37 -64t-43 -59.5t-45.5 -51.5l-17.5 -17.5t-31 -30.5t-30.5 -30t-15 -16q1 -1 10 -1q26 0 52.5 -1
t52.5 -4q49 -7 75.5 -20t29.5 -27q1 -6 0 -15.5t-6 -17.5t-16 -14t-29 -6q-1 -1 -5 -1q-9 0 -26 1.5t-38.5 3.5t-46.5 3.5t-50 1.5h-4q-57 0 -93 -6t-57 -6q-16 0 -27.5 8t-17.5 20.5t-6.5 27.5t5.5 30q3 6 16.5 21.5t31.5 33.5l35.5 35.5l27.5 27.5q41 40 78 82.5t67 90.5
q5 8 16.5 27.5t23 45t21 52.5t11 50t-8 37.5t-35.5 14.5q-31 0 -58.5 -10t-49 -22.5t-35 -23t-15.5 -11.5q-7 -3 -15 -3q-12 0 -22 7.5t-13 21.5z" />
    <glyph glyph-name="three" unicode="3" horiz-adv-x="526" 
d="M132 298q-18 15 -18 31.5t10 32t25 29t27 22.5q36 27 73 55t64 65q10 12 16.5 28.5t-1.5 31.5q-9 17 -29 23.5t-38 6.5q-21 0 -43.5 -9t-42.5 -23.5t-34.5 -34t-19.5 -40.5q-3 -13 -11.5 -21t-20.5 -8q-9 0 -18 6q-18 12 -19.5 34.5t3.5 41.5q9 34 32.5 61t54.5 45.5
t66.5 28t68.5 9.5q39 0 75.5 -13.5t62.5 -43.5q18 -21 25 -48.5t5 -55.5q-4 -42 -28 -77t-53 -64q-2 -2 -11 -10t-19.5 -16.5t-18.5 -15.5t-9 -9q4 -3 17.5 -7.5t30 -13.5t32.5 -24.5t23 -39.5q10 -34 5.5 -67t-19.5 -63q-17 -36 -44.5 -62.5t-61 -44t-72 -26t-77.5 -8.5
q-26 0 -50 8t-43.5 20t-31.5 25t-14 23q-3 17 8 30.5t27 16.5q10 2 15 2q18 0 36.5 -5t35.5 -7q8 -2 15 -2h15q35 0 67.5 11t56.5 37q11 11 20.5 26.5t13 31.5t-1.5 30t-25 23q-20 8 -40.5 10t-42.5 2q-7 -1 -13.5 -1.5t-13.5 -0.5q-11 0 -22 3t-20 11z" />
    <glyph glyph-name="four" unicode="4" horiz-adv-x="499" 
d="M261 348q10 2 12 3.5t4 10.5q5 19 14.5 52.5t22 69.5t27 67.5t29.5 44.5q17 15 36 15q14 0 26.5 -8t18.5 -23q5 -12 4 -30.5t-4 -38t-7 -37.5t-7 -29q-10 -36 -20 -73t-19.5 -81.5t-19 -99t-18.5 -126.5q-4 -29 -18.5 -47.5t-37.5 -18.5q-15 0 -26 7.5t-18 19t-10 25.5
t-3 27q0 23 2 55t4 61.5t4 50.5t2 22q0 5 -4 5h-3q-1 0 -18.5 -3.5t-41.5 -8t-49.5 -9t-43.5 -7.5q-7 -1 -13.5 -1.5t-13.5 -0.5q-32 0 -57 17.5t-27 53.5q0 22 17 57.5t43 75.5t57 81t58 74.5t47 56t23 25.5q11 11 24 18t29 7q23 0 38.5 -15.5t13.5 -38.5q0 -10 -3 -18.5
t-8 -16.5q-3 -6 -18 -29t-36 -53.5t-44 -65t-43 -63t-33 -48t-13 -21.5q30 0 60.5 2.5t60.5 6.5z" />
    <glyph glyph-name="five" unicode="5" horiz-adv-x="479" 
d="M115 10q-27 9 -50.5 26.5t-40 40.5t-25 48t-5.5 49q2 20 12 35.5t33 15.5q20 0 39 -17q2 -2 9.5 -14.5t19.5 -26.5t29.5 -25t40.5 -11q19 0 35.5 8.5t29 22.5t20 31.5t8.5 35.5q0 21 -9 34t-23.5 20.5t-31.5 10.5t-34 3q-10 0 -19.5 -0.5t-19.5 -0.5q-19 0 -37 4
t-32.5 13.5t-24 24t-12.5 35.5q-1 11 2.5 31.5t10 46t15 53.5t16.5 52.5t14.5 43.5t10.5 27q14 30 35.5 55.5t55.5 25.5q17 0 48.5 -3.5t64.5 -9t61.5 -11t39.5 -10.5q30 -12 36 -41q4 -29 -22 -44q-9 -5 -26.5 -7.5t-35.5 -2.5q-30 0 -60 5t-59 11q-2 0 -4 0.5t-3 0.5
q-4 0 -4 -8q-5 -44 -15 -85t-21 -83q-3 -11 -1.5 -12.5t12.5 -3.5q24 -4 47 -11t45 -19q54 -29 81.5 -76t19.5 -100q-17 -127 -136 -181q-39 -17 -77 -17q-32 0 -63 10z" />
    <glyph glyph-name="six" unicode="6" horiz-adv-x="500" 
d="M182 0q-42 0 -81 20.5t-63 51.5q-18 23 -27 48.5t-13 52.5q-6 43 -3 84t13 81q8 32 24 71.5t39 80.5t52 80.5t62 70t69.5 49t74.5 18.5q11 -1 20.5 -3.5t18.5 -8.5q20 -14 23 -34.5t-14 -35.5q-1 -1 -14 -6t-31 -15.5t-39 -27t-39 -40.5q-14 -18 -24.5 -37t-18.5 -34
q-9 -18 -15 -35l8 2q5 0 10 0.5t10 0.5q45 0 84.5 -26t62.5 -69q15 -29 19.5 -58t1.5 -59q-2 -27 -16.5 -65t-41 -73t-64.5 -59.5t-88 -24.5zM141 234q-6 -19 -8 -43t2 -44t15.5 -34t33.5 -14q17 0 32 11t27 27.5t20 35.5t11 34t2 36t-6 39.5t-15.5 31.5t-27.5 13
q-27 0 -50.5 -27t-35.5 -66z" />
    <glyph glyph-name="seven" unicode="7" horiz-adv-x="406" 
d="M30 594q-16 8 -24.5 23.5t-2.5 32.5q4 11 28.5 22t58.5 19t72 13t70 5q34 0 66.5 -8.5t51.5 -39.5q12 -20 12 -43.5t-6 -47t-15.5 -46.5t-17.5 -42q-44 -104 -87 -206.5t-85 -206.5q-11 -26 -28 -47t-47 -21q-12 0 -23.5 4.5t-19.5 14.5q-17 19 -17 43.5t5 47.5
q2 9 9.5 31.5t18.5 52.5t24.5 65.5t27 69.5t26 63t20.5 48q6 14 17 37.5t20.5 46t15 39.5t0.5 18h-19h-21q-16 0 -35.5 0.5t-38 1.5t-33.5 3.5t-23 6.5z" />
    <glyph glyph-name="eight" unicode="8" horiz-adv-x="491" 
d="M188 0q-37 0 -68.5 11.5t-55.5 30t-39.5 41.5t-21.5 47q-10 37 -4 69q10 69 46 132t97 101q6 4 6.5 5.5t-3.5 8.5q-25 41 -39 84q-19 63 9 109.5t94 63.5q21 6 44 6q56 0 106 -38q65 -52 56 -124q-3 -19 -11.5 -38t-21 -35.5t-28.5 -30t-33 -22.5q-14 -8 -15 -12t10 -18
l22 -34t21 -34q26 -49 26 -106t-23 -105t-67 -80t-107 -32zM283 211q0 23 -10 46.5t-21 42.5q-14 23 -32 44q-28 -19 -50 -45q-20 -22 -35.5 -54.5t-15.5 -76.5q0 -9 2.5 -21t9.5 -22.5t19 -17.5t31 -7t37 8.5t32.5 23.5t23.5 35.5t9 43.5zM257 613q-30 0 -40.5 -16
t-8.5 -37t12.5 -41t21.5 -28q20 13 36.5 34t21.5 40.5t-4 33.5t-39 14z" />
    <glyph glyph-name="nine" unicode="9" horiz-adv-x="510" 
d="M58 474q0 40 14.5 81.5t41.5 75.5t65.5 56t86.5 22q43 0 69 -13.5t49 -39.5q19 -20 31 -52.5t18.5 -68t8 -70t-1.5 -58.5q-8 -67 -35 -138.5t-71 -131t-105 -98t-137 -38.5q-24 0 -45.5 6.5t-33.5 19.5q-13 14 -17 29.5t4 33.5q11 22 35 22q2 0 4.5 -0.5t4.5 -0.5
q5 -1 10.5 -1.5t10.5 -0.5q23 0 48.5 8t48.5 25q18 14 33.5 31t26.5 32t17 25.5t5 11.5h-11h-16t-16 2q-48 5 -76.5 29.5t-43 58t-19 72t-4.5 70.5zM275 600q-26 0 -44.5 -20.5t-28 -51t-11 -66t7 -66t26 -51t45.5 -20.5q21 0 34 20.5t19 51t5.5 66t-7 66t-18.5 51t-28 20.5
z" />
    <glyph glyph-name="colon" unicode=":" horiz-adv-x="251" 
d="M70 312q3 14 13 24.5t25 10.5q20 0 30.5 -15.5t9.5 -32.5q0 -17 -12 -28t-29 -11q-13 0 -25 9q-20 18 -12 43zM125 73q0 -15 -11 -25t-26 -10q-12 0 -25 8q-23 18 -12 46q8 22 31 22q17 0 30.5 -12t12.5 -29z" />
    <glyph glyph-name="semicolon" unicode=";" horiz-adv-x="305" 
d="M126 105q13 -6 19.5 -16.5t9 -22.5t2 -25t-3.5 -25q-2 -9 -6 -21t-11 -22.5t-16 -17.5t-20 -7q-6 0 -14 3q-11 5 -15 14.5t-1 20.5q4 15 10 26t3 28q-2 13 -7 25t2 26q5 9 13 13.5t17 4.5q5 0 9 -1t9 -3zM166 306q1 -17 -12.5 -30.5t-32.5 -13.5q-16 0 -27.5 11t-11.5 27
q-1 17 14 32t31 15t27.5 -12t11.5 -29z" />
    <glyph glyph-name="less" unicode="&#x3c;" horiz-adv-x="436" 
d="M328 473q10 -15 -6 -35t-45 -45t-54 -47.5t-44 -43.5q-5 -6 -6 -8t4 -7q2 -2 16 -12t34 -24.5t43.5 -31t43.5 -31.5t34.5 -26t16.5 -14q7 -11 6 -21.5t-7 -19t-16 -14t-22 -5.5t-40 13.5t-59 31t-59 35t-41 25.5q-22 14 -43 29.5t-32 40.5q-8 20 -5 35.5t12.5 28.5
t23.5 24.5t27 22.5q14 11 37 29t47 35.5t43.5 31.5t25.5 16q9 3 16.5 5t15.5 2q10 0 18 -4.5t15 -15.5z" />
    <glyph glyph-name="equal" unicode="=" horiz-adv-x="509" 
d="M35 233q10 16 32 20.5t40 4.5q19 0 51 -1t63.5 -3t57.5 -3.5t33 -3.5q16 -3 22 -18t-5 -27q-4 -4 -21 -8t-42 -7t-55 -4.5t-59 -1.5q-37 0 -67 3t-42 10q-11 6 -12.5 17.5t4.5 21.5zM75 382q8 5 17.5 6t18.5 1q16 0 47.5 -1t64 -2.5t58.5 -3t29 -1.5q13 -2 19 -8
q14 -9 13 -25.5t-15 -23.5q-8 -4 -35 -5.5t-61 -1.5q-24 0 -48.5 0.5t-45.5 1.5t-36 2.5t-20 2.5q-23 7 -25 28q-2 20 19 30z" />
    <glyph glyph-name="greater" unicode="&#x3e;" horiz-adv-x="451" 
d="M100 96q-7 -3 -16 -3q-14 0 -22 8q-15 14 -9 36q2 7 16.5 20.5t35 30.5t43.5 35.5t43 35.5t33 30.5t13 19.5t-10 16t-25.5 21t-34 23t-35 21.5t-28.5 16.5t-14 9q-6 5 -11 9.5t-9 11.5q-9 17 -1.5 32.5t26.5 17.5h11.5t11.5 -2q5 -1 32 -15t59 -31.5t59.5 -32.5t33.5 -19
q3 -1 9.5 -6.5t13.5 -14t12.5 -20.5t5.5 -27t-14 -35.5t-36 -43t-49 -45t-54 -42t-51 -34.5t-39 -23z" />
    <glyph glyph-name="question" unicode="?" horiz-adv-x="503" 
d="M144 121q-11 26 -2.5 55t17.5 54q5 14 19.5 43.5t31 63t32 63.5t22.5 43q4 8 10 24.5t10 35.5t5.5 39.5t-3.5 37.5t-17.5 27.5t-35.5 10.5q-37 0 -61.5 -17t-39.5 -38t-23 -40t-11 -24q-11 -17 -30 -17q-18 0 -30 14q-18 20 -16.5 47t12.5 50q10 22 27.5 46t41 44.5
t52 33.5t59.5 13q36 0 69 -13t59 -36t43 -54.5t21 -68.5q3 -32 -2.5 -63.5t-17 -62t-27 -59.5t-31.5 -56q-9 -14 -17 -25t-16.5 -23t-18 -27t-21.5 -38q-12 -22 -19 -39t-11.5 -29.5t-7.5 -20.5t-8 -13q-10 -10 -23 -10t-24.5 8.5t-17.5 20.5zM166 -70q-25 0 -38.5 15
t-14.5 40q0 22 16.5 39.5t38.5 16.5q23 0 38 -15.5t15 -38.5q-1 -23 -17 -40.5t-38 -16.5z" />
    <glyph glyph-name="at" unicode="@" horiz-adv-x="755" 
d="M109 380q-13 -57 -0.5 -113t56.5 -97q38 -35 89.5 -51.5t103.5 -16.5q38 0 75 10t65 38q8 8 16 18t20 13q2 0 3.5 0.5t3.5 0.5q11 0 19.5 -8.5t6.5 -20.5q-1 -7 -6.5 -18t-15 -23.5t-22.5 -26t-29 -25.5q-35 -24 -75.5 -33.5t-82.5 -9.5q-56 0 -109 14.5t-96.5 43.5
t-75 72.5t-43.5 101.5q-13 58 -3.5 118t34.5 114q23 51 58.5 90.5t79.5 66.5t95.5 41t106.5 14q33 0 65 -6t60.5 -19.5t53 -34.5t41.5 -51q32 -56 33 -118.5t-23 -120.5q-8 -20 -22 -42.5t-32.5 -41t-40.5 -30.5t-46 -12q-23 0 -40 10t-31 27q-10 12 -14 27t-8 18
q-2 0 -7 -5t-10.5 -11.5t-10 -12.5t-6.5 -9q-17 -17 -36 -30t-44 -13q-35 0 -62 25q-19 19 -25.5 44t-4.5 50.5t12 50.5t25 44q20 28 52.5 46t66.5 18q19 0 36.5 -6.5t33.5 -21.5q3 -2 6 -6t7 -2q5 2 9.5 9t9.5 11q15 12 32 12q8 0 11 -1q14 -4 20.5 -13.5t8 -21t-1 -24
t-6.5 -23.5q-6 -14 -11 -28t-7 -29q-1 -3 -2.5 -10t-1.5 -14.5t1.5 -14t6.5 -8.5q1 -1 4 -1q11 0 21 9t19 21t15.5 25t9.5 21q11 26 10.5 53.5t-9.5 53.5q-22 62 -61.5 85.5t-103.5 23.5q-49 0 -94.5 -15.5t-82.5 -43.5t-63.5 -68t-36.5 -89zM330 412q-16 0 -32.5 -18
t-25 -40t-6.5 -40t22 -18q7 0 19 8.5t23.5 21.5t21 28t11.5 28t-5 21.5t-28 8.5z" />
    <glyph glyph-name="A" unicode="A" horiz-adv-x="647" 
d="M408 53q1 12 3.5 35t4.5 47t4 43.5t2 24.5q0 10 -5 10h-5q-21 -2 -41.5 -4t-40.5 -4q-26 -3 -52.5 -5t-52.5 -3q-9 0 -13.5 -4t-7.5 -12q-4 -11 -12.5 -39.5t-18.5 -60.5t-18.5 -61.5t-12.5 -43.5q-5 -17 -15 -29t-29 -12q-16 0 -27 8t-17 22q-5 11 -6 22t1 22q1 11 6 33
t10.5 46t10.5 45t7 30q2 4 3 7.5t-1 8.5q-10 -1 -19 -2t-17 -3q-4 -1 -11 -1q-4 0 -12 2q-20 5 -26.5 22t4.5 34q5 7 16.5 15t25 14.5t27.5 11.5t23 7q14 3 17 19q12 48 30 101.5t42 106t54.5 100t67.5 82.5q17 16 37.5 27t44.5 11q35 0 58 -21.5t37 -53t21 -66.5t11 -62
q6 -45 9.5 -89.5t2.5 -89.5q0 -6 1.5 -10.5t7.5 -8.5q11 -8 17 -19t7.5 -23t-2.5 -22.5t-14 -16.5q-20 -15 -22 -38q-1 -19 -2.5 -43t-3.5 -49.5t-5 -49.5t-8 -42q-3 -10 -7.5 -24.5t-11.5 -28.5t-17 -24t-24 -10q-17 0 -26 11.5t-11 26.5q-1 11 -1.5 33t2.5 47zM389 591
q-8 0 -19.5 -15t-24 -38.5t-25.5 -53t-24.5 -58.5t-21 -55t-15.5 -42q-1 -2 -1.5 -4t0.5 -5q1 -1 4 -1h3q38 4 74.5 7.5t74.5 7.5q8 1 9.5 2.5t0.5 10.5q-1 67 -9 133q-1 12 -3 31t-5 37t-7 30.5t-11 12.5z" />
    <glyph glyph-name="B" unicode="B" horiz-adv-x="568" 
d="M416 697q45 -27 61.5 -69.5t2.5 -93.5q-8 -31 -25 -55.5t-40 -45.5q-12 -12 -25.5 -21.5t-27.5 -20.5q-4 -3 -7.5 -5t-5.5 -6q2 -3 4 -3t4 -1q9 -2 17.5 -3.5t17.5 -3.5q25 -5 44 -17t32.5 -28.5t22 -35t11.5 -36.5q5 -29 1 -56.5t-15 -54.5q-21 -48 -58.5 -86
t-84.5 -64.5t-99.5 -41t-103.5 -14.5q-18 0 -38.5 3t-40 10t-35 19.5t-24.5 30.5q-5 14 -4 25q1 16 12 22t25 6q9 -2 21 -8t22 -9q8 -2 10 -2q5 0 5 14q1 16 4 48t7 74t9 90t10.5 95.5t10 91.5t8.5 77.5t6 54t2 21.5q-6 -1 -10.5 -3.5t-9.5 -4.5q-10 -4 -22.5 -12t-24.5 -16
t-21.5 -14.5t-11.5 -7.5q-7 -4 -15 -4q-10 0 -18 5q-15 12 -12 30q3 23 18 39t23 23q59 46 124 70t140 23q58 0 104 -29zM257 287h-5q-8 0 -9.5 -2.5t-3.5 -13.5q-2 -14 -8.5 -47t-14.5 -69.5t-14.5 -67.5t-8.5 -41q-1 -8 4 -8h3q29 7 60.5 21t59 34t47.5 46t27 58
q3 16 -0.5 29.5t-11 24t-18.5 17t-22 8.5q-18 3 -42 6.5t-43 4.5zM366 580q3 15 -8 27q-14 14 -34.5 18.5t-39.5 4.5q-8 0 -16 -0.5t-16 -1.5q-6 -1 -6.5 -2.5t1.5 -7.5q2 -5 3 -23t1.5 -40.5t1 -44.5t0.5 -35q-2 -10 0 -15q2 0 8.5 4t15.5 11l18 14t15 13q17 15 34.5 35
t21.5 43z" />
    <glyph glyph-name="C" unicode="C" horiz-adv-x="475" 
d="M141 261q0 -30 3 -69t13 -74t29 -59t50 -24q27 0 53.5 7.5t47.5 17t34.5 17.5t15.5 8q3 2 10 2q11 0 19.5 -8t8.5 -21q0 -11 -7 -23q-3 -5 -17 -21t-37.5 -32.5t-54.5 -29.5t-69 -13q-34 0 -66.5 13t-59.5 34.5t-48 49.5t-33 57q-16 39 -22.5 81.5t-6.5 91.5
q2 57 17.5 123.5t44.5 128.5t71 113.5t98 78.5q40 20 80 20q30 0 57.5 -10.5t49.5 -29t36 -44t17 -56.5q6 -61 -36 -102q-9 -9 -21 -16t-25 -7q-15 0 -24 11t-7 28l4.5 22.5t2 36.5t-12 34t-37.5 15q-17 0 -47 -21t-59 -64.5t-50.5 -109.5t-21.5 -156z" />
    <glyph glyph-name="D" unicode="D" horiz-adv-x="659" 
d="M545 561q76 -139 48 -290q-5 -32 -18.5 -59.5t-27.5 -55.5q-6 -12 -25.5 -36.5t-53 -54t-82.5 -61.5t-115 -60q-29 -10 -64 -10t-51 24t-19 55q-2 23 -1.5 46.5t2.5 47.5q2 23 5.5 63.5t8.5 88.5t10 97.5t9.5 91.5t8 70t4.5 33q5 23 18.5 39t40.5 16q17 0 28.5 -9
t15.5 -26q1 -4 1 -26v-50.5t-0.5 -57.5t-1.5 -47q0 -12 -1.5 -32.5t-3 -45.5t-3.5 -53t-4 -55q-4 -63 -10 -136q61 35 109 77q20 18 39.5 39.5t34.5 45.5t24.5 51t9.5 56q8 73 -13 142q-12 43 -35 72t-52.5 47.5t-62 26.5t-64.5 9q-39 0 -74.5 -8t-63 -18t-45 -18.5
t-19.5 -9.5q-9 -3 -17 -3q-15 0 -24 11q-16 16 -2 39q10 16 31.5 30.5t47 26.5t51 21t42.5 12q21 4 41 6t39 2q89 0 165 -43t119 -121z" />
    <glyph glyph-name="E" unicode="E" horiz-adv-x="452" 
d="M408 720q15 -3 26 -11q22 -14 20.5 -36.5t-24.5 -34.5l-12 -4t-12 -3q-5 -1 -20.5 -2.5t-37 -3.5t-45.5 -4t-45.5 -3.5t-38 -3t-22.5 -1.5q-8 0 -9.5 -1t-1.5 -9q-1 -51 -5 -101t-9 -101q-3 -14 4 -14h4.5t6.5 1q15 3 40 4t50 1q16 0 29 -0.5t21 -0.5q17 0 29 -4
q25 -8 32.5 -27.5t-6.5 -39.5q-15 -19 -42 -27q-6 -2 -25.5 -4t-44 -4.5t-50.5 -5.5t-45 -7q-11 -2 -12.5 -3.5t-2.5 -11.5q-2 -21 -5 -50t-6 -57t-4.5 -50t-0.5 -30q1 -4 8.5 -5.5t19.5 -1.5q19 0 46.5 3t54 6.5t48.5 6.5t31 3q25 0 39.5 -8t22 -19t8.5 -22t-2 -18
q-6 -15 -19 -24t-27 -13q-6 -2 -38 -9t-76.5 -15t-94 -14.5t-88.5 -6.5q-43 0 -56.5 12.5t-15.5 34.5q-1 5 -0.5 35t1.5 75.5t3 102.5t4.5 116.5t5.5 117.5t6.5 106t7 81.5t6.5 43.5q16 47 58 58q6 1 25 2.5t42.5 3t46.5 2.5t36 1h37t48.5 -1t46 -2t29.5 -3z" />
    <glyph glyph-name="F" unicode="F" horiz-adv-x="403" 
d="M1 665q-3 26 23 41q22 10 66.5 15t98.5 5q27 0 57.5 -0.5t58 -1.5t50 -1.5t33.5 -0.5q22 0 35.5 -13.5t7.5 -34.5q-7 -26 -30 -34t-47 -10q-64 -6 -131 -9q-11 0 -12.5 -1.5t-3.5 -12.5q-7 -43 -11.5 -86t-9.5 -86q-2 -8 -2.5 -16t-1.5 -16q-1 -6 0 -7.5t9 -1.5h41h24
t24 -1q49 0 68.5 -17t11.5 -39q-10 -25 -41 -32q-15 -4 -33 -6.5t-37.5 -4t-37.5 -2.5t-33 -1q-9 0 -10.5 -1.5t-3.5 -10.5q-8 -67 -20.5 -133.5t-23.5 -132.5q-2 -11 -5 -21.5t-6 -21.5q-5 -17 -16.5 -25t-28.5 -8q-19 0 -30.5 10t-17.5 25t-7.5 32t-1.5 31q1 63 6 125.5
t13 124.5q1 7 0 9.5t-9 4.5q-29 10 -30 46q0 14 7.5 22.5t20.5 13.5q14 7 19 12t7 14q7 51 14 101.5t15 101.5q2 9 0.5 10.5t-12.5 2.5q-19 2 -37 10.5t-20 31.5z" />
    <glyph glyph-name="G" unicode="G" horiz-adv-x="495" 
d="M271 208q-20 -16 -43.5 -26t-49.5 -10q-28 0 -49.5 11t-36.5 29t-24.5 42t-12.5 49q-6 45 -0.5 91.5t21 91t40 85t56.5 72.5q33 34 78 59.5t94 25.5q37 0 69 -18.5t43 -56.5q5 -17 4 -35.5t-9 -34.5q-6 -10 -15.5 -17.5t-20.5 -7.5t-19 11q-6 7 -8 16.5t-5 19t-7.5 17.5
t-15.5 11q-2 1 -8 1q-9 0 -18 -5t-17.5 -11.5t-15.5 -14t-12 -13.5q-30 -33 -51 -74.5t-34 -84.5q-7 -24 -11.5 -49.5t-0.5 -50.5q2 -13 6.5 -26.5t20.5 -13.5q8 0 15 2.5t13 5.5q13 6 25 18.5t23 27.5t21 31t17 29q6 11 11 22.5t13 21.5q13 15 32 15q14 0 24 -9
q9 -7 12.5 -17.5t5 -22.5t0.5 -23.5t-1 -21.5q-3 -39 -10 -86t-20.5 -94t-33 -89.5t-47.5 -71.5q-18 -19 -41.5 -36t-50 -30t-55 -20.5t-56.5 -7.5q-27 0 -52.5 8.5t-47.5 27.5q-26 23 -39.5 56.5t-3.5 68.5q7 23 24 41.5t42 18.5q14 0 26 -7t17 -21q3 -10 0.5 -18.5
t-7 -16.5t-8 -16t-0.5 -18q3 -14 13.5 -18.5t23.5 -4.5q25 0 51 8.5t49 23.5t41.5 34.5t29.5 41.5q5 11 9 22l8 22q1 3 3.5 10t4.5 14t3 13t-1 9q-8 -2 -16 -11.5t-15 -14.5z" />
    <glyph glyph-name="H" unicode="H" horiz-adv-x="658" 
d="M331 351q11 2 32.5 4t43 4.5t38.5 5t17 5.5q1 4 4.5 21.5t9 43t12.5 56.5t15 61.5t16 58t15 47.5q4 10 9 21.5t12 21.5t16.5 16.5t22.5 6.5t24 -7t17 -21q2 -7 3 -28.5t-7 -63.5q-16 -82 -32.5 -163t-36.5 -162q-5 -23 -8 -45.5t-6 -45.5q-5 -39 -9.5 -78t-7.5 -78
q-2 -15 1 -27q7 -22 -6 -38.5t-34 -16.5q-17 0 -28.5 8t-18.5 20t-10 27t-3 29q-1 26 1.5 51.5t5.5 51.5q4 34 7.5 67t7.5 67q1 11 -3 11q-1 0 -3 -0.5t-4 -0.5q-35 -8 -69 -16t-69 -16q-8 -2 -10.5 -5.5t-4.5 -10.5q-2 -8 -8.5 -29.5t-15.5 -50.5t-19.5 -61t-20.5 -60
t-18.5 -48.5t-12.5 -26.5q-15 -18 -36 -18q-24 0 -35.5 18t-10.5 39q0 5 2 22t5 40t7 48.5t7.5 47.5t6 38t2.5 19q1 8 -4 8h-3q-19 -2 -37 -3t-37 -1q-5 0 -11 0.5t-11 2.5q-22 6 -28 27t9 38q6 8 14 12t16 7q15 6 31 9t31 7q11 2 21.5 4.5t21.5 4.5q11 3 13 13
q11 51 19 102.5t10 104.5q1 11 1 21.5t-2 21.5q-3 16 -12 16q-4 0 -10 -3q-13 -5 -32.5 -17.5t-38.5 -26t-33.5 -25t-18.5 -13.5q-10 -6 -21 -6q-15 0 -26 11t-13 28q0 26 25 54t59.5 51t70 38t57.5 15q31 0 53 -13.5t36.5 -35.5t22 -49t10.5 -53q2 -14 2.5 -28.5
t-0.5 -25.5q0 -38 -3.5 -72.5t-8.5 -68.5q-2 -9 -1.5 -12.5t5.5 -3.5q2 0 4.5 0.5t5.5 0.5z" />
    <glyph glyph-name="I" unicode="I" horiz-adv-x="292" 
d="M166 64q-6 -22 -13 -45.5t-16.5 -43t-22 -32t-30.5 -12.5q-17 0 -25 13.5t-10 31.5t0 36.5t4 28.5q10 47 21 92.5t22 92.5q12 54 23 108.5t19 110.5q2 10 4 28.5t4 39.5t3 43t0 40t-5 29.5t-12 11.5q-9 0 -20 -9t-20.5 -20t-17 -20.5t-10.5 -11.5q-13 -8 -23 -8
q-17 0 -26 11.5t-9 27.5q1 21 15.5 42t35.5 37.5t45.5 27t45.5 10.5q29 0 50.5 -13t36 -33t22.5 -45.5t9 -50.5q1 -16 0 -37.5t-3.5 -44t-5.5 -43.5t-6 -36q-5 -31 -15 -75t-21.5 -92.5t-24.5 -98t-24 -91.5z" />
    <glyph glyph-name="J" unicode="J" horiz-adv-x="448" 
d="M129 -66q-37 0 -67 16t-51.5 42t-34 59t-13.5 67q-3 55 13 108q2 7 11 25t25 37t38.5 33.5t52.5 14.5q31 0 50.5 -16t28 -35t6.5 -35t-14 -16t-18.5 3.5t-12 7.5t-12 7.5t-17.5 3.5q-16 0 -25.5 -18t-13.5 -41.5t-4 -46.5t3 -34q6 -23 23.5 -43.5t49.5 -20.5
q26 0 45.5 21.5t33.5 50t22.5 58.5t11.5 46q3 14 5.5 43.5t4 66t3 76.5t2.5 76.5t1.5 65.5t0.5 42q0 8 -1 9.5t-9 1.5q-12 0 -32 -1.5t-44 -3.5t-48.5 -3.5t-44.5 -1.5q-25 0 -37 3q-26 8 -30 29t12 41q13 15 43 25.5t64.5 17t67.5 9t52 2.5q32 0 62.5 -2t62.5 -4
q9 -1 17.5 -3.5t16.5 -7.5q15 -10 21 -27t1 -34q-5 -20 -19 -25.5t-32 -5.5q-8 0 -14 -3t-4 -16q12 -102 9.5 -202t-25.5 -203q-10 -43 -29 -89t-48.5 -83.5t-69 -62t-90.5 -24.5z" />
    <glyph glyph-name="K" unicode="K" horiz-adv-x="423" 
d="M189 405q2 1 17 18.5t35 42t41 51.5t34 46q22 30 43 60l42 60q8 11 17.5 19t23.5 8q12 0 22 -7.5t15 -21.5q3 -8 3.5 -17t-0.5 -17q-7 -39 -29 -73q-7 -13 -23 -35.5t-36 -49t-42.5 -55.5t-44 -55t-39 -46t-27.5 -29q-4 -4 -1.5 -24t12.5 -49t29 -65t47 -71
q13 -14 28.5 -28.5t30 -26.5t25.5 -21t15 -12q21 -17 13 -40q-4 -11 -13 -17.5t-21 -6.5q-5 0 -20.5 4.5t-37 16.5t-47.5 32.5t-53 51.5q-16 18 -30 39t-25 39.5t-18 31.5t-9 14q-1 -2 -3 -18t-4.5 -38t-5 -45t-4.5 -38q-1 -13 -6 -29.5t-14 -30.5t-21 -24t-28 -10
q-32 0 -46 33q-16 38 -10 82q1 6 3.5 35t6 65.5t7 73.5t5.5 59q3 25 6 57.5t7 67t7.5 68t6.5 60t4.5 43.5t1.5 18q-2 0 -12 -12t-23.5 -27t-28 -29t-24.5 -17q-8 -3 -16 -3q-16 0 -28 10.5t-13 29.5q-2 18 7 32q12 23 34.5 48t50.5 45.5t58 34t57 13.5q17 0 27 -7t16 -17.5
t8.5 -24t3.5 -26.5q1 -10 0.5 -31.5t-1.5 -49t-2.5 -56t-2.5 -53t-1 -40v-16.5z" />
    <glyph glyph-name="L" unicode="L" horiz-adv-x="386" 
d="M149 523q-1 0 -12 -6t-24 -14t-25 -14.5t-15 -8.5q-25 -10 -47 -10q-21 0 -41 11.5t-25 33.5q-4 18 6 29.5t28 10.5q11 0 25 6t27.5 15t25.5 18.5t19 15.5q29 25 56.5 52t57.5 52q15 12 35 12q22 0 39.5 -12.5t25.5 -32.5q5 -13 6.5 -25.5t0.5 -25.5q-2 -34 -8 -66.5
t-14 -64.5q-14 -59 -29.5 -117t-32.5 -116q-7 -24 -16 -57.5t-17 -64t-13.5 -52.5t-5.5 -23q-2 -7 -1 -9t7 -2q2 0 4 1q13 0 26 0.5t27 0.5q26 0 48 -1.5t42.5 -7.5t39 -18t36.5 -32q17 -19 10.5 -38t-30.5 -20q-1 0 -16.5 1t-39.5 2.5t-54 3t-62 1.5h-17
q-71 -1 -117.5 -7.5t-68.5 -5.5q-16 0 -25.5 7t-12.5 17t-1 21.5t10 20.5q11 12 31 19.5t35 12.5q9 2 9 9q2 50 10.5 97t18.5 95q8 35 18.5 84t20.5 94q12 52 25 108z" />
    <glyph glyph-name="M" unicode="M" horiz-adv-x="866" 
d="M542 539q0 -5 -1 -16t-2 -22.5t-1 -21.5t2 -13q3 3 8 13l11 22t11 23.5t8 16.5q10 20 25 45.5t33.5 48t41 38t47.5 15.5q28 0 45 -15t26.5 -37t13 -47.5t4.5 -46.5q1 -48 -5.5 -94.5t-14.5 -92.5q-3 -15 -9 -47t-13.5 -70.5t-15 -80.5t-14 -78.5t-10 -62.5t-3.5 -34
q2 -23 -11.5 -34.5t-31.5 -11.5q-12 0 -24 5.5t-20 16.5q-13 19 -19.5 41t-8 45t-0.5 46.5t2 45.5q4 53 12 105t19 104q3 13 11 46.5t16 69t12.5 63t0.5 27.5t-13.5 -15t-19.5 -34.5t-19 -38t-13 -26.5q-7 -15 -23 -51.5t-36 -87t-41.5 -111.5t-38.5 -126q-5 -15 -7.5 -30
t-4.5 -31q-3 -20 -13.5 -37.5t-34.5 -17.5q-14 0 -26.5 8.5t-18.5 22.5q-13 29 -18 67.5t-5 80.5t4 84.5t9.5 79.5t10.5 64.5t7 40.5q2 9 5.5 31.5t7.5 47.5t7 45.5t3 24.5q-3 -1 -13.5 -14.5t-22.5 -31.5t-23 -35t-16 -25q-17 -28 -32 -56.5t-29 -57.5q-10 -20 -23 -53.5
t-27.5 -72.5t-29.5 -79t-27 -73.5t-20.5 -56.5t-11.5 -27q-8 -10 -19 -15t-22 -5t-20.5 4.5t-14.5 15.5q-10 19 -10.5 56.5t3.5 78.5t9.5 77.5t8.5 53.5q11 69 21.5 137.5t21.5 137.5q1 5 4 24.5t4.5 41t0.5 38.5t-8 17q-9 0 -19.5 -12.5t-19.5 -29t-16 -33t-10 -23.5
q-11 -30 -18 -62t-9 -64q-2 -12 -2 -24.5t-9 -22.5q-9 -9 -23 -9q-11 0 -20 6q-13 9 -18.5 22.5t-7 29.5t0 31.5t3.5 28.5q4 36 19 82.5t39 87.5t57.5 69t75.5 28q16 0 28 -4q38 -10 57 -37t27.5 -61.5t8.5 -71t-2 -66.5q3 3 14 20t24.5 38t26 40.5t18.5 27.5q11 14 23 28.5
t26 26.5t30 20.5t35 8.5q35 0 56 -24t29 -55q5 -20 5.5 -39.5t-0.5 -39.5z" />
    <glyph glyph-name="N" unicode="N" horiz-adv-x="726" 
d="M235 -44q-11 -8 -25 -8q-13 0 -21 7q-17 14 -23 46t-6 66.5t3 64.5t4 39q2 38 6.5 75t8.5 74q1 12 4 37.5t6 57t5 64.5t1 60t-6 44.5t-15 17.5q-25 0 -41.5 -20t-26.5 -51t-14.5 -67.5t-5.5 -69.5t0 -57t2 -29q2 -12 -3.5 -22.5t-18.5 -15.5q-7 -3 -14 -3
q-13 0 -23.5 7.5t-18.5 19t-13.5 24.5t-8.5 23q-19 66 -6.5 137t46.5 129q12 21 30 42t39.5 38.5t46.5 28.5t51 11q23 0 47 -11q36 -18 54 -50t25 -70t7.5 -77.5t2.5 -72.5q3 2 16 22t29 45t31 48t22 32q14 16 30 33t35 30.5t39.5 22t43.5 8.5q21 0 38.5 -8t31.5 -21.5
t23.5 -31t13.5 -36.5q11 -48 5 -97.5t-15 -97.5q-2 -13 -8 -34.5t-14 -49.5t-16 -60t-15 -65q-6 -31 -10.5 -62t-7.5 -56.5t-5 -43.5t-4 -24q-5 -26 -17 -47t-43 -21q-11 0 -22 4.5t-19 12.5t-16 27t-12 48.5t-3 69.5t11 89q5 27 15.5 67t21.5 83.5t22 86.5t17.5 77.5
t6.5 56t-9 21.5q-14 0 -30.5 -15.5t-34.5 -43t-38 -65.5t-41 -83q-10 -22 -23.5 -55.5t-28.5 -71.5t-29.5 -76.5t-26.5 -70.5t-20.5 -54.5t-10.5 -27.5q-6 -13 -13 -29.5t-19 -25.5z" />
    <glyph glyph-name="O" unicode="O" horiz-adv-x="569" 
d="M13 129q-9 43 -6.5 99t14 115t29.5 116.5t41 102.5q6 13 23 40t47.5 54.5t76 48t108.5 20.5q59 0 100 -47t62 -120.5t20.5 -162t-24.5 -172.5q-13 -46 -38.5 -97t-61.5 -93.5t-82.5 -70.5t-100.5 -28q-42 0 -76.5 16t-61 43t-44.5 62t-26 74zM285 370q28 16 46 40.5
t26.5 51.5t9.5 54t-4.5 48.5t-17.5 35t-28 13.5q-24 0 -47.5 -21t-42.5 -48.5t-32 -54.5t-18 -39q-7 -21 -17.5 -60t-17.5 -84t-8.5 -92t7.5 -85t31.5 -62t63.5 -24q29 0 53 15t43 36.5t32.5 44.5t21.5 39q13 27 23.5 61t18 65t11.5 54.5t3 30.5q-2 -1 -12.5 -14.5
t-26.5 -30t-36 -31.5t-43 -18q-3 0 -6 -0.5t-6 -0.5q-19 0 -32.5 8t-18 20t0.5 25t23 23z" />
    <glyph glyph-name="P" unicode="P" horiz-adv-x="522" 
d="M161 -66q-19 0 -31.5 11t-19.5 27.5t-10 35.5t-4 34q-3 66 2 134t13 136.5t19 136t20 132.5q1 8 -3 8q-1 0 -2.5 -0.5t-3.5 -0.5l-66 -15q-5 -2 -15 -3.5t-21 -1.5q-6 0 -12.5 1t-12.5 4q-17 9 -20 27t8 33q8 12 27 23t44.5 21.5t55.5 19.5t58.5 15.5t53.5 10t42 3.5
q49 0 94.5 -16t81.5 -45t57.5 -71t22.5 -95q0 -17 -2 -33t-7 -33q-8 -28 -26.5 -64.5t-51 -72t-81.5 -66t-118 -47.5q-9 -2 -10.5 -4t-2.5 -12q-3 -32 -5 -64.5t-6 -64.5q-2 -15 -6 -33t-11.5 -33.5t-20 -26.5t-30.5 -11zM260 288q12 5 36.5 22t49 41t44.5 53t24 59
q5 42 -9 70t-36.5 45t-47 24t-39.5 8q-7 0 -7 -6q-5 -78 -11 -154t-13 -154q-1 -10 2 -10q1 0 7 2z" />
    <glyph glyph-name="Q" unicode="Q" horiz-adv-x="501" 
d="M196 -64q-37 0 -70 13t-59.5 35.5t-45.5 52.5t-29 65q-10 37 -10.5 73t7.5 72q17 73 54 132q8 12 5 28q-26 106 16 200q22 50 65.5 84.5t100.5 34.5q35 0 67 -11.5t59 -31.5t48 -47t33 -59q14 -33 20.5 -66.5t8.5 -68.5q2 -52 -3 -102t-16 -100q-9 -42 -22 -82.5
t-34 -78.5q-5 -8 3 -14q22 -19 44 -36t47 -31q11 -5 20 -14q13 -14 9 -30.5t-21 -21.5q-7 -3 -16 -3q-16 0 -30.5 5.5t-28.5 13.5l-38 24t-39 24q-5 4 -9 4q-2 0 -7 -5q-29 -26 -58.5 -42.5t-70.5 -16.5zM256 407q-23 -6 -38 -22t-28 -34q-10 -11 -2 -25q26 -49 56.5 -94
t67.5 -87q2 -3 4 -3t6 6.5t7.5 15t7 16.5t4.5 11q13 38 22 77.5t13 81.5q3 34 4 67.5t-5 68.5q-4 26 -12 50t-21.5 44t-33.5 33.5t-49 18.5q-3 1 -6.5 1h-6.5q-25 0 -43 -14.5t-30 -36t-18.5 -46t-8.5 -44.5v-4t2 -6q17 8 32.5 13t34.5 5t37 -7t29 -23q13 -18 8 -35.5
t-25 -25.5q-4 -2 -8 -2zM145 214q-2 3 -3 5.5t-6 4.5l-2 -4q-6 -28 -7 -56t5 -57q5 -26 21.5 -48.5t46.5 -22.5q17 0 31.5 8.5t27.5 20.5q4 4 -1 8q-30 35 -58.5 69t-54.5 72z" />
    <glyph glyph-name="R" unicode="R" horiz-adv-x="515" 
d="M188 -32q-8 -16 -22.5 -25.5t-31.5 -9.5q-23 0 -36 12.5t-20 33.5q-7 22 -4 77.5t12 159.5q5 52 13 115t16 118.5t14 95t6 45.5q-3 0 -12.5 -4t-23 -9.5t-29 -10.5t-30.5 -6q-23 1 -35 17t-7 37q6 20 31 38t56.5 33t62.5 24.5t49 12.5q21 3 42 3q35 0 70 -8t66.5 -25.5
t59 -44t47.5 -64.5q14 -26 23.5 -52t12.5 -55q10 -83 -38 -153q-28 -40 -69.5 -68.5t-115.5 -48.5q-6 -2 -7 -3.5t2 -7.5q6 -13 22.5 -38t38.5 -52.5t47 -54.5t48 -45q8 -6 12.5 -17.5t3 -22.5t-10.5 -19.5t-28 -8.5q-22 0 -45.5 12t-46.5 30t-44 39t-37.5 39t-26.5 30.5
t-11 12.5q-2 -4 -5.5 -23.5t-7 -42.5t-6.5 -43t-5 -23zM231 317q0 -12 4 -12l8 2q22 7 48.5 21t49 33.5t38 43.5t15.5 50q0 27 -10.5 51.5t-28.5 45t-41.5 34.5t-48.5 20q-7 2 -7 -5q0 -1 -1.5 -18t-4 -43.5t-5.5 -59t-6 -64t-5.5 -58t-4.5 -41.5z" />
    <glyph glyph-name="S" unicode="S" horiz-adv-x="455" 
d="M180 -59q-40 0 -78 13.5t-63 46.5q-27 36 -31 81.5t16 85.5q11 21 32 40.5t45 19.5q19 0 35 -15t19 -33q2 -11 -3 -18t-13 -15q-17 -14 -17.5 -33t16.5 -33q10 -8 22 -11.5t25 -3.5q14 0 28.5 3t28 9t24 16t14.5 24q8 25 2 45.5t-19.5 38.5t-32 32.5t-36.5 27.5
q-37 27 -74 54.5t-61 67.5q-21 35 -25 74t7 78q11 38 33.5 73t53.5 61.5t68.5 42.5t78.5 16q45 0 84.5 -19t63.5 -57q23 -36 19 -77.5t-33 -73.5q-11 -12 -26.5 -23.5t-33 -20.5t-35.5 -14.5t-35 -5.5q-14 0 -23 4q-16 5 -24 21t6 30q7 7 17 9t18 5q20 8 35 21
q12 10 22 25.5t2 32.5q-6 14 -20 19.5t-28 5.5q-22 0 -40 -11.5t-32 -28.5t-23 -38t-12 -40q-4 -25 6 -45t26 -37.5t35.5 -32.5t34.5 -30q32 -32 62 -66.5t46 -78.5q14 -39 11.5 -77t-19 -71.5t-45.5 -60t-67 -40.5q-20 -8 -43 -10.5t-44 -2.5z" />
    <glyph glyph-name="T" unicode="T" horiz-adv-x="350" 
d="M288 594q0 -35 -3 -86.5t-7.5 -106.5t-9 -106.5t-7.5 -86.5t-6.5 -81t-12 -87t-24 -69t-42.5 -28q-28 0 -40.5 19.5t-15 55.5t2 87.5t10.5 115.5q5 56 11.5 119t13 118.5t11.5 94t6 44.5q2 8 0 10t-10 2q-53 0 -89 3.5t-41 5.5q-28 11 -29 40q-1 15 6 25t19 18
q3 2 19 6.5t46.5 9t77.5 8.5t112 4q58 0 95 -5t58.5 -12t30.5 -15.5t10 -16.5q2 -20 -7 -35.5t-29 -23.5q-7 -3 -26.5 -5t-42 -3.5t-43.5 -2.5t-31 -1t-11.5 -2t-1.5 -13z" />
    <glyph glyph-name="U" unicode="U" horiz-adv-x="543" 
d="M295 298q9 20 22 55.5t27.5 77t29 85t26 79t19.5 59t9 25.5q17 26 43 26q14 0 24 -6.5t16 -17t9 -22.5t3 -24q0 -11 -8.5 -48.5t-20.5 -86.5t-24 -102.5t-18 -97.5q-8 -54 -12 -108t-6 -97.5t-2.5 -72t-0.5 -31.5q-2 -26 -17 -42t-38 -16q-22 0 -37.5 11.5t-24.5 29.5
t-13 38.5t-5 38.5v15.5t0.5 19t1 17.5t0.5 10q-1 -1 -8.5 -13t-19.5 -30t-28.5 -38.5t-37.5 -38.5t-46 -29.5t-54 -11.5q-36 0 -56.5 20.5t-30 52t-12 69.5t-2.5 73t5 86.5t12.5 106t16 104t16.5 79.5q2 9 6 26t10.5 37.5t16 42.5t22 39.5t29.5 29t38 11.5q27 0 35 -23
t6 -53.5t-9 -59.5t-9 -41q-2 -13 -8 -40t-13.5 -62.5t-15.5 -76.5t-15 -81.5t-12 -78t-5 -66.5t5 -46.5t17 -17.5q10 0 23 13t27 33t28.5 44.5t27.5 48.5t23 44.5t15 31.5z" />
    <glyph glyph-name="V" unicode="V" horiz-adv-x="433" 
d="M168 -55q-23 0 -41 15.5t-32.5 40.5t-24.5 55.5t-17 61t-11 57t-6 42.5q-4 33 -10 84t-10 108t-4.5 114t5.5 103t21 74.5t42 28.5q17 0 28 -6t18 -14t10.5 -16.5t5.5 -13.5q8 -25 14.5 -74t12.5 -107.5t11.5 -119.5t10.5 -111t9.5 -82t9.5 -32q7 0 14.5 31t21.5 83
t36.5 121t58.5 145q20 39 43 75.5t49 71.5q24 26 41.5 36t31.5 10q13 0 24 -8q6 -4 11 -11.5t6.5 -19t-2.5 -27t-15 -35.5q-32 -57 -63 -113.5t-57 -116.5q-9 -19 -21.5 -51t-26.5 -69.5t-29.5 -78.5t-30.5 -80q-12 -31 -21.5 -62t-23 -55t-34 -39t-55.5 -15z" />
    <glyph glyph-name="W" unicode="W" horiz-adv-x="781" 
d="M325 81q-2 9 -2 20.5t-5 19.5q-3 1 -7 -6t-6 -9q-3 -4 -13.5 -19t-23 -33t-25.5 -35.5t-22 -26.5q-20 -21 -47.5 -36.5t-56.5 -15.5q-27 0 -52 17.5t-42 61.5q-18 45 -26 89.5t-11 88t-1.5 85.5t3.5 81t10 84.5t20 89t26.5 81t29.5 61.5q13 20 32 35t54 15q14 0 24 -6
t16 -15t8.5 -20.5t2.5 -22.5q0 -28 -10.5 -65t-23.5 -80t-25 -89.5t-15 -93.5t-5 -91t-0.5 -77.5t9 -54t22.5 -20.5q5 0 14.5 11.5t19 27t18.5 31.5t14 25q9 16 20.5 40.5t25 52.5t27.5 58t26.5 56t22 45.5t14.5 28.5q14 22 27.5 30t26.5 8q10 0 18.5 -3.5t14.5 -7.5
q16 -12 21.5 -30.5t5.5 -39.5t-3 -41.5t-5 -37.5q-1 -15 -5 -40.5t-8.5 -55t-8 -59.5t-3.5 -54.5t4 -40t14 -15.5t20.5 11.5t20 30t19 41t17 45.5t14 43t10.5 33q26 85 39 172t24 175q1 11 4 23t8.5 22.5t15 17.5t22.5 7q16 0 30 -11q16 -14 24 -33t11 -40t3 -43v-41
q-1 -55 -9 -120t-23.5 -129.5t-38.5 -125.5t-54 -109q-16 -26 -32.5 -47t-36 -36t-43.5 -23t-56 -8q-31 0 -53.5 12t-37.5 32t-24 46t-13 53z" />
    <glyph glyph-name="X" unicode="X" horiz-adv-x="411" 
d="M115 674q2 -4 5.5 -16.5t9 -30.5t12 -39t13.5 -43q15 -51 34 -113q52 58 95 105q19 21 37.5 41.5t34.5 37.5t28 29.5t17 17.5q6 6 15 13.5t19.5 13.5t21 10.5t19.5 4.5q17 0 29 -11t14 -28t-7.5 -37t-18.5 -34q-5 -8 -20.5 -29.5t-36 -50t-45 -61.5t-47.5 -65t-43 -59.5
t-32 -45.5q-8 -10 -6 -25q1 -2 4 -13t8.5 -27.5t14 -37.5t20.5 -44q11 -20 24 -40.5t24.5 -37.5t20 -28.5t9.5 -14.5q7 -11 7 -23.5t-5.5 -23.5t-16.5 -18t-26 -7q-17 0 -32.5 7t-28.5 18q-22 19 -37.5 44t-27.5 50t-23 47t-24 34q-23 -32 -41 -62.5t-30.5 -55t-19 -40.5
t-8.5 -19q-7 -13 -20 -21t-28 -8q-17 0 -32 11t-21 31q-5 18 -2 40q10 75 45 146.5t79 133.5q9 13 2 27q-7 19 -16 49.5t-18.5 65.5t-18.5 71.5t-16.5 68t-12.5 55.5t-6 33q-3 29 21 50q11 9 26 9q23 0 37.5 -17.5t20.5 -37.5z" />
    <glyph glyph-name="Y" unicode="Y" horiz-adv-x="503" 
d="M108 183q1 -10 -2.5 -31.5t-3.5 -43t8 -37.5t33 -16q34 0 61 19.5t48.5 49t37 64.5t25.5 65.5t14 52t3 23.5q-5 -2 -17 -15t-30 -27.5t-42.5 -26t-54.5 -11.5q-41 1 -72 27.5t-39 64.5q-9 43 -8.5 89t5.5 86.5t12 71.5t10 43q4 13 10 30t15 32.5t21.5 26t29.5 10.5
q20 0 36.5 -15.5t19.5 -39.5q2 -24 -2.5 -49.5t-7.5 -49.5q-1 -9 -4 -28.5t-6 -43.5t-4.5 -50t-0.5 -47.5t5.5 -35t15.5 -13.5q23 0 44 20t40 50t35 66.5t28 69.5t19.5 58t10.5 33q5 17 16 31.5t31 15.5q26 0 36.5 -16t13 -38t-1 -45.5t-5.5 -39.5q-15 -100 -32 -200
t-52 -195q-15 -43 -36.5 -84t-51 -73.5t-68.5 -52t-90 -19.5q-35 0 -69 11t-60 35q-25 22 -38.5 53.5t-11.5 64.5q1 16 7.5 36t18 37.5t27 29.5t33.5 12q14 0 26 -9.5t14 -25.5z" />
    <glyph glyph-name="Z" unicode="Z" horiz-adv-x="480" 
d="M378 606q-59 0 -121.5 -14t-116.5 -35q-8 -3 -19 -7.5t-28 -5.5h-4q-20 0 -33.5 11.5t-18 28t2 36.5t26.5 36q24 20 61.5 33.5t79 22t82.5 12.5t73 4q24 0 44 -2.5t37 -9.5q35 -13 52.5 -40t13.5 -66q-2 -19 -10 -40.5t-18 -43t-21.5 -41.5t-21.5 -35q-11 -18 -40 -53
t-65 -77.5t-75 -87t-71.5 -81t-53 -60.5t-20.5 -25t3 -1q6 0 21 1.5t34.5 3.5t42 3.5t43.5 1.5q16 0 43.5 -2t54.5 -7.5t48 -16t24 -27.5q2 -10 -2.5 -22.5t-15 -23t-25.5 -17.5t-35 -7h-9q-8 1 -18 1.5t-24 0.5q-31 0 -72.5 -1.5t-81 -3t-71.5 -3t-44 -1.5q-31 0 -49 9
t-23 39q-2 15 9 41.5t27 55.5t32.5 54.5t25.5 38.5q43 60 88 117.5t92 114.5q15 18 36 42t42.5 50t40 52t28.5 47z" />
    <glyph glyph-name="bracketleft" unicode="[" horiz-adv-x="317" 
d="M113 12q1 -1 6.5 -2t13 -2t14.5 -1.5t11 -1.5q12 -2 22.5 -7.5t15.5 -17.5q7 -22 -10 -36q-11 -8 -28 -8q-5 0 -9 0.5t-8 0.5h-5q-8 0 -16 -0.5t-16 -0.5q-17 0 -34 4t-28 19q-8 10 -12 23t-5 26.5t-0.5 27t0.5 26.5q2 37 6 95.5t10 126t13.5 138t16 130t17 102
t17.5 54.5q5 8 21.5 11t37.5 3q17 0 34 -2t32.5 -5t27 -7.5t15.5 -9.5q14 -17 6 -35.5t-29 -20.5q-3 -1 -12 -1q-8 0 -18.5 0.5t-20.5 0.5q-12 0 -21.5 -1t-11.5 -3q-1 -1 -3.5 -27.5t-6.5 -70.5t-9 -99.5t-10.5 -114t-10 -114.5t-8 -100t-5 -71.5t-0.5 -28.5z" />
    <glyph glyph-name="backslash" unicode="\" horiz-adv-x="398" 
d="M44 684l16 -32t36 -71.5t49 -98.5t56.5 -113.5t58 -116.5t53.5 -108t43.5 -88t26.5 -56q12 -26 4.5 -43.5t-27.5 -22.5q-6 -2 -10 -2q-18 0 -30.5 13.5t-17.5 27.5q-1 1 -15 31t-37.5 77.5t-53.5 108t-61 124t-61.5 124.5t-54.5 110t-40 81t-18 37q-8 18 -1.5 33.5
t22.5 22.5q3 1 5.5 1.5t5.5 0.5q14 0 28.5 -12t22.5 -28z" />
    <glyph glyph-name="bracketright" unicode="]" horiz-adv-x="339" 
d="M203 718q35 -9 39 -46q2 -17 2.5 -33.5t-0.5 -34.5q-2 -23 -6 -76t-9 -120t-11 -139.5t-11.5 -134.5t-9.5 -105.5t-6 -52.5q-3 -15 -13 -23t-24 -12q-11 -3 -34 -5t-46 -2q-18 0 -33 1.5t-22 5.5q-16 9 -16.5 24.5t11.5 25.5q7 6 19.5 10t27 6t27.5 3t22 2q3 0 7.5 27.5
t9 72t9.5 101.5t9.5 116t8.5 116t7 101.5t5 72l2 27.5q1 7 0.5 8.5t-5.5 1.5h-4q-4 0 -16 -0.5t-27 -0.5t-30 0.5t-23 2.5q-12 3 -20 10q-14 12 -11 30t20 25q5 2 11 2.5t12 0.5q11 -1 30.5 -2t39.5 -2t36.5 -1.5t21.5 -2.5z" />
    <glyph glyph-name="asciicircum" unicode="^" horiz-adv-x="481" 
d="M338 539q6 -19 -6 -34q-10 -10 -24 -10q-5 0 -8 1q-2 0 -10.5 9.5t-20.5 24t-25.5 31t-26 30.5t-21.5 23.5t-12 9.5q-4 0 -18.5 -15.5t-31 -35t-32 -38t-22.5 -23.5q-7 -6 -14 -10t-16 -4q-10 0 -21 8q-13 13 -9 31q0 2 8.5 16.5t22.5 35.5t32 45t37 44.5t37.5 34
t33.5 13.5t31.5 -13.5t32.5 -34t31 -44.5t26.5 -44.5t18 -35t7.5 -15.5z" />
    <glyph glyph-name="underscore" unicode="_" horiz-adv-x="395" 
d="M271 6q18 -6 23 -23.5t-9 -31.5q-12 -12 -32 -14q-7 -1 -22 -2.5t-35 -2.5t-42 -1.5t-42 -0.5q-24 0 -43 1.5t-25 4.5q-17 8 -17.5 26.5t16.5 29.5q9 6 37.5 9.5t61.5 5t63 1.5h43h11.5t11.5 -2z" />
    <glyph glyph-name="grave" unicode="`" horiz-adv-x="265" 
d="M175 583q-1 -14 -9.5 -22.5t-21.5 -8.5q-12 0 -30.5 13.5t-37 31.5t-32 35.5t-14.5 26.5q-2 12 5 22.5t19 14.5q4 1 10 1q13 0 32 -15t36.5 -34.5t30 -38t12.5 -26.5z" />
    <glyph glyph-name="a" unicode="a" horiz-adv-x="464" 
d="M273 379q12 6 24 6q15 0 26 -10t16 -28q3 -12 2.5 -23.5t-2.5 -23.5q-5 -28 -12 -54.5t-15 -53.5q-4 -13 -9.5 -30t-8.5 -32t-2.5 -25t9.5 -10t34 20.5t52 46t49 47t24 24.5q12 11 23 11q5 0 13 -4q12 -8 7 -26q-1 -4 -14.5 -24t-37 -48t-56 -59.5t-72.5 -58.5
q-26 -18 -55 -18q-23 0 -39 10.5t-25.5 26.5t-14 36.5t-5.5 39.5q-21 -28 -49 -51t-66 -23q-21 0 -36.5 8.5t-26.5 23t-17 32.5t-7 36q-3 29 5 57q7 27 20.5 56t33.5 53t46 39.5t57 15.5q20 0 34.5 -7t24.5 -16t15.5 -16.5t6.5 -8.5q2 0 4.5 7.5t8 17t14 20t21.5 16.5z
M84 126q10 0 21.5 10t22 23t19.5 27t15 21q5 5 8 15.5t4.5 21.5t0 21.5t-7.5 16.5q-4 2 -6 2q-8 0 -20 -9t-30 -32q-11 -15 -19.5 -35t-13 -38t-3.5 -31t9 -13z" />
    <glyph glyph-name="b" unicode="b" horiz-adv-x="437" 
d="M287 113q27 14 52 35.5t46.5 41.5t39.5 34.5t31 14.5q9 0 15 -10t-7 -31q-4 -7 -24.5 -30.5t-54 -51.5t-77.5 -54.5t-96 -39.5q-9 -2 -18 -3t-18 -1q-39 0 -61.5 19.5t-36.5 53.5l-2.5 -9.5t-9.5 -21.5t-19 -21.5t-31 -9.5q-27 0 -36 20.5t-9 48t5.5 55.5t8.5 42
q7 38 15.5 91t18.5 111t22.5 115t28 102.5t35 73.5t43.5 28q29 0 42 -17.5t14.5 -45t-5 -62t-16 -68t-19.5 -63t-15 -46.5q-3 -11 -9 -30t-11 -37q-6 -21 -13 -44q15 17 30 32l26 26t22 19q14 10 30 16t34 6q21 0 37 -8.5t27 -22t18 -31.5t10 -36q2 -14 1 -36t-7.5 -48
t-20 -54t-36.5 -53zM158 130q13 0 26 9.5t23.5 22t18 25t10.5 18.5q5 10 10 28t7 35.5t-0.5 30.5t-13.5 13q-13 0 -28 -10t-29 -24.5t-25.5 -29.5t-18.5 -25q-15 -21 -9 -44q1 -5 4 -13t7 -16t9 -14t9 -6z" />
    <glyph glyph-name="c" unicode="c" horiz-adv-x="329" 
d="M269 325q-3 -26 -25 -26q-5 0 -8 1q-10 3 -20 3q-22 0 -42 -14t-35.5 -35t-26 -44.5t-13.5 -42.5q-1 -6 -1.5 -18t3 -24t12 -21.5t24.5 -9.5q31 0 60.5 14t55 33.5t45.5 40.5t31 34q20 23 39 23q7 0 11 -3q11 -8 6 -24t-17 -30q-2 -2 -14 -15t-31 -31.5t-43 -39t-50 -38
t-52.5 -29t-50.5 -11.5q-26 0 -46 5.5t-34 15t-24 22t-17 25.5q-17 31 -20 63.5t5 65.5q25 104 120 162q17 10 34.5 15.5t36.5 5.5q25 0 45 -9.5t34 -31.5q9 -16 8 -32z" />
    <glyph glyph-name="d" unicode="d" horiz-adv-x="464" 
d="M77 43q-18 0 -32.5 7.5t-25 20t-17.5 28t-10 31.5q-9 63 6 117.5t57 99.5q13 14 36.5 27.5t48.5 13.5q21 0 34.5 -6.5t21 -15t11 -15.5t4.5 -7q2 4 6 32.5t10.5 68.5t15.5 86t22.5 85t31.5 64.5t41 25.5q25 0 34.5 -14.5t11 -33.5t-1.5 -36t-5 -23q-1 -6 -10 -45.5
t-21 -95t-24 -118.5t-19.5 -116.5t-8.5 -89t9 -35.5q20 0 45 18.5t48.5 42t40 43.5t19.5 23q13 15 24 15q3 0 7 -2q11 -5 11 -14t-3 -17q-1 -2 -8.5 -14.5t-20 -30t-29.5 -38.5t-37.5 -41t-43.5 -37t-48 -26q-11 -4 -25 -4q-17 0 -30.5 7.5t-24 19.5t-17.5 27t-10 30
q-1 4 -1.5 11t-1 13.5t-1 11t-1.5 3.5q-9 -18 -20.5 -35t-26 -31t-32.5 -22.5t-40 -8.5zM92 148q20 0 37 23.5t28 52t12.5 52t-10.5 23.5q-16 0 -32 -23.5t-26.5 -52t-14 -52t5.5 -23.5z" />
    <glyph glyph-name="e" unicode="e" 
d="M137 18q-33 0 -63.5 14.5t-47.5 35.5q-22 26 -30.5 56.5t-6.5 63.5q3 43 18 86t41.5 77t64 55.5t85.5 21.5q35 0 59.5 -21.5t29.5 -56.5q4 -22 0.5 -43t-11.5 -41q-8 -18 -22.5 -37t-32.5 -34.5t-39 -25.5t-43 -10q-5 0 -15 2h-3q-5 0 -5 -6q1 -25 11.5 -46t38.5 -21
q9 0 19 2.5t19 7.5q32 17 60.5 39.5t50 43.5t34.5 36t14 18q8 13 21 13q4 0 7 -1q18 -6 13 -28q0 -1 -11 -16.5t-30 -38t-44.5 -48t-55 -47.5t-62 -36.5t-64.5 -14.5zM125 231q-3 -12 7 -12q14 0 27 8.5t22.5 21.5t16 28t6.5 28q0 5 -2 12t-9 7q-12 0 -23 -11t-20 -26.5
t-15.5 -31t-9.5 -24.5z" />
    <glyph glyph-name="f" unicode="f" horiz-adv-x="273" 
d="M108 213q-8 -33 -6.5 -53.5t24.5 -20.5q19 0 42 9t44.5 23t40 31t27.5 32q2 4 6 6t9 2q6 0 11.5 -3.5t6.5 -11.5q0 -7 -9 -25.5t-28.5 -40t-48.5 -43.5t-68 -36q-8 -1 -3 -8q3 -5 10.5 -15.5t14 -26.5t11 -36.5t1.5 -46.5q-4 -21 -14 -48t-26 -51t-36.5 -41t-46.5 -17
q-21 0 -37 11t-27 28t-18.5 37t-11.5 37t-5 46t-0.5 60t2 59t3.5 43q4 29 13 77.5t22 105.5t30 117.5t37 115t42 98t45 65.5q14 14 29 14q13 0 22.5 -9.5t10.5 -23.5q0 -8 -6.5 -32t-15 -51.5t-16 -51.5t-10.5 -33q-6 -19 -16 -59.5t-20.5 -85t-20 -85.5t-14.5 -62zM106 -93
q8 22 5 52t-11 58q-8 33 -22 67q-2 -1 -6 -17t-7 -42q-1 -13 -4 -40.5t-4 -55t1 -48.5t10 -21q6 0 11.5 5t11 12t9.5 15.5t6 14.5z" />
    <glyph glyph-name="g" unicode="g" horiz-adv-x="359" 
d="M165 75l-7.5 -5.5t-17 -13t-18 -13.5t-11.5 -8q-8 -3 -16 -5.5t-17 -2.5q-22 1 -38 14t-26.5 32.5t-15.5 42t-6 40.5q-3 38 8 77q6 23 17.5 49.5t28.5 48.5t39.5 36.5t50.5 14.5q29 0 52.5 -16.5t38.5 -40.5q2 -2 3 -5t4 -5q6 5 9 13.5t11 14.5q5 4 12 4q18 0 26.5 -16
t8.5 -31q0 -16 -2 -31.5t-4 -30.5q-20 -128 -45 -251q6 -5 20 -7t26 -13q17 -14 14 -32q-2 -9 -7.5 -12t-13.5 -3l-42 3q-11 0 -13 -11q-7 -35 -19.5 -76t-32 -78t-48.5 -64.5t-70 -36.5q-5 -2 -10 -2h-10q-38 0 -65 26t-36 61q-13 53 4 101q25 70 73.5 100t117.5 37
q8 1 11 9q0 4 3 17t6.5 28t5.5 27t1 14zM-8 -234q4 -33 25 -33q24 0 44.5 21t35.5 50.5t24 61t10 52.5q-45 -5 -79 -29.5t-51 -66.5q-5 -12 -8 -26t-1 -30zM100 193q0 -1 -2 -8.5t-3 -15t0.5 -14t7.5 -6.5q7 0 17.5 7.5t15.5 12.5q13 13 24.5 27t22.5 28q7 9 7.5 19.5
t0.5 20.5q-5 28 -25 28q-10 0 -20.5 -12.5t-19.5 -29t-16 -33t-10 -24.5z" />
    <glyph glyph-name="h" unicode="h" horiz-adv-x="386" 
d="M161 91q-1 17 2 40.5t6.5 45t6 36.5l2.5 15q-8 -13 -20.5 -38.5t-26.5 -52.5t-27 -50t-23 -32q-14 -11 -27 -11t-24 10t-18.5 24.5t-11.5 30t-5 26.5q-1 35 5 75q4 28 11.5 71.5t18 93.5t23.5 100.5t27 91.5t29.5 66.5t30.5 25.5q17 0 24 -16t7.5 -42t-3.5 -57.5t-10 -62
t-12 -57t-9 -41.5q-3 -17 -7.5 -41t-8.5 -46.5t-6.5 -39t-2.5 -18.5q17 27 34 51q14 20 28 38.5t23 24.5q13 10 27 10q22 0 36 -13.5t19 -33.5q3 -14 3 -29t-2 -29q-2 -15 -8 -41t-11.5 -51.5t-6.5 -44t7 -18.5q9 0 26 15t35.5 34.5t35 39.5t23.5 30q11 15 23 15
q9 0 13 -10.5t-4 -24.5q-12 -22 -32.5 -53t-46 -60t-54.5 -49.5t-58 -20.5q-30 0 -44.5 22.5t-16.5 50.5z" />
    <glyph glyph-name="i" unicode="i" horiz-adv-x="254" 
d="M110 415q10 0 17 -5.5t11 -13t6 -15t2 -11.5q2 -17 -0.5 -34t-7.5 -34q-7 -31 -16.5 -61t-17.5 -60q-1 -4 -3 -15t-2.5 -22.5t1.5 -20t9 -8.5q13 0 31.5 11.5t37.5 28t37 35t30 32.5q5 7 10 11t14 4q2 0 3 -0.5t3 -0.5q7 -3 8 -8.5t-1 -10.5q-1 -5 -11 -21t-26 -36.5
t-37 -42.5t-44 -40.5t-47 -30.5t-46 -12t-37.5 12t-25.5 30.5t-14 39.5t-4 39q2 57 19.5 112t40.5 106q1 2 5 9t11.5 14.5t18 13t25.5 5.5zM95 545q3 16 15 29.5t29 13.5q21 0 30 -13.5t11 -32.5q-1 -11 -4.5 -24.5t-10.5 -25t-16.5 -19.5t-23.5 -8q-17 0 -25.5 13.5
t-8.5 28.5q1 10 2 19.5t2 18.5z" />
    <glyph glyph-name="j" unicode="j" horiz-adv-x="187" 
d="M68 -86q-5 -20 -10.5 -38.5t-13.5 -38.5q-10 -27 -27 -54.5t-39.5 -49.5t-50.5 -35.5t-59 -13.5q-22 0 -40.5 8.5t-32 23t-22 32.5t-9.5 37q-3 34 14 68q13 25 34 46t46 36t53 24.5t56 13.5q8 2 9.5 3.5t3.5 9.5q8 44 13 87t7 87q2 38 3 76t5 76q1 9 2 17.5t3 16.5
q3 13 11 21t22 8q9 0 16 -4.5t13 -11.5q10 -12 15.5 -36.5t8 -52.5t3 -54t0.5 -41q1 -46 -3.5 -91.5t-12.5 -90.5q-1 -2 -1 -4t-1 -4q-1 -7 6 -7q10 -1 19.5 -1t18.5 -1q14 -1 30 -4.5t24 -14.5q12 -17 2 -30q-6 -9 -17 -9q-5 0 -11 2q-9 4 -20 4q-11 2 -22.5 2h-23.5h-7
q-9 0 -11 -1.5t-4 -10.5zM78 432q-13 -12 -30 -12t-28.5 10.5t-13.5 27.5q-1 7 -3 13t-1 11q0 12 3.5 24t10.5 21.5t17 16t24 6.5t26.5 -8.5t17.5 -25.5q7 -20 0.5 -45t-23.5 -39zM-41 -93q-15 -4 -33 -12.5t-35 -20.5t-30.5 -27t-18.5 -31q-7 -16 -3 -29q6 -20 22 -20
q5 0 13 3q19 8 33 22.5t24 32.5t17 37.5t12 38.5q1 3 -1 6z" />
    <glyph glyph-name="k" unicode="k" horiz-adv-x="362" 
d="M78 44q-5 -14 -15 -19.5t-21 -5.5q-19 0 -30.5 7t-18 18t-8.5 26.5t-2 31.5q0 21 4 55t10.5 75.5t15 88t18.5 91.5t20 86.5t19 72.5q2 8 8 28t15.5 40t21.5 35.5t27 15.5t23 -11.5t11.5 -26.5t3 -30.5t-1.5 -23.5q0 -4 -5 -27t-11.5 -56t-13.5 -70t-13 -68.5t-8.5 -52
t-0.5 -20.5q3 0 13 10t22 23.5t25 27.5t23 21q9 6 19 11t21 5q20 0 30 -16q7 -11 5.5 -23t-10.5 -22l-10.5 -8.5t-26 -21.5t-33.5 -28t-33 -29t-25 -25t-10 -15q0 -6 10 -19.5t22.5 -27.5t24 -26t14.5 -14q14 -7 23 -7q13 0 27 11q21 15 38 34.5t31 36t26 28t22 11.5
q13 0 17 -12.5t-7 -29.5q-13 -20 -30 -44t-37.5 -45t-44.5 -35.5t-51 -14.5q-22 0 -44 9t-39.5 20t-28.5 20.5t-13 9.5q-1 -4 -4 -15.5t-6 -24t-5 -23t-3 -12.5z" />
    <glyph glyph-name="l" unicode="l" horiz-adv-x="267" 
d="M123 119q8 0 20.5 8t27 20t29.5 26.5t27 26.5t20 20.5t9 9.5q8 9 16 12.5t14 3.5q8 0 13 -5q4 -4 5.5 -13t-4.5 -17q-3 -4 -18.5 -25.5t-40.5 -49.5t-56.5 -56t-66.5 -45q-17 -7 -37 -7q-25 0 -46 13t-34 37q-9 17 -12 35t-2 34q0 26 3.5 49.5t7.5 46.5q3 17 10.5 59
t19 95t26.5 110t32 104t36.5 77.5t39.5 30.5t28 -12t8.5 -33t-4.5 -48.5t-11 -59.5q-5 -27 -13 -64t-16.5 -77t-17.5 -80.5t-16 -75t-12 -59.5t-6 -34v-14.5t2 -19t6.5 -16.5t12.5 -7z" />
    <glyph glyph-name="m" unicode="m" horiz-adv-x="633" 
d="M399 332q13 15 30.5 29t38.5 14q18 0 32.5 -11t22.5 -31q5 -13 6.5 -25.5t0.5 -26.5q0 -13 -6 -39t-11 -52.5t-6 -46.5t8 -20t26 12.5t35 30.5t33.5 37t22.5 32q6 11 15 11q3 0 9 -2q15 -8 10 -25q-5 -24 -25 -59.5t-48 -69t-60 -57t-61 -23.5q-17 0 -31 5.5t-27 22.5
q-11 14 -16 35t-6 43t1.5 42.5t5.5 32.5q-1 0 -9.5 -12.5t-20 -31t-24.5 -39.5t-24 -39.5t-19 -31.5t-9 -14q-15 -20 -38 -20q-18 0 -29.5 8.5t-19 21.5t-10.5 28.5t-4 29.5q-1 10 0 25t2.5 30t3.5 27t2 15q-2 -1 -11.5 -15t-21.5 -33t-24 -39.5t-19 -35.5q-2 -4 -7 -13
t-13.5 -17t-21.5 -14.5t-33 -6.5q-26 0 -38.5 19.5t-15.5 41.5t-3 43.5t2 42.5q5 55 13.5 108.5t23.5 105.5q1 5 5.5 14.5t12.5 19.5t19 17.5t25 7.5t22.5 -7t13 -16t6.5 -18t2 -13q1 -13 -0.5 -43t-4.5 -61.5t-5.5 -56t-2.5 -26.5q2 1 14 18.5t28 41.5t34 49.5t31 41.5
q5 6 10 11l10 10q12 11 28 11q14 0 26.5 -9.5t19.5 -27.5q5 -13 5.5 -25.5t-0.5 -26.5q0 -7 -2 -18.5l-4 -23t-3 -19.5t-1 -10q2 0 11 14.5t21.5 34t25.5 38.5t21 29z" />
    <glyph glyph-name="n" unicode="n" horiz-adv-x="421" 
d="M61 9q-6 -8 -15 -12.5t-18 -4.5q-22 0 -32.5 15.5t-13.5 34.5q-5 30 -3 69.5t8 80t14 78.5t16 63q3 11 7.5 21.5t11 19t15.5 14t22 5.5q19 0 31.5 -12.5t17.5 -29.5q4 -15 3.5 -35t-2 -39.5t-3 -35t-0.5 -20.5q5 2 18 17t29.5 34.5t33 38.5t28.5 27q16 11 32 11
q15 0 27.5 -8.5t19.5 -25.5q5 -11 6 -22t0 -23q0 -6 -4 -20.5t-9.5 -32t-10.5 -36.5t-7.5 -34.5t-1.5 -25.5t8 -10q11 0 32.5 19.5t44 43.5t40 45t19.5 23q8 8 16 8q5 0 13 -4q13 -10 7 -27q-1 -3 -11 -18t-26.5 -36.5t-36.5 -46t-41.5 -45t-42 -34t-36.5 -13.5
q-34 0 -51.5 14.5t-24.5 34.5t-6.5 40.5t1.5 31.5q1 8 3.5 20.5t5 24.5t5 21t2.5 11q-2 0 -10.5 -9.5t-19 -23.5t-21 -29t-17.5 -26q-18 -29 -35.5 -65t-37.5 -62z" />
    <glyph glyph-name="o" unicode="o" 
d="M257 187q-1 -8 6 -8q23 0 41.5 9.5t32.5 21.5t22.5 22.5t10.5 12.5q6 7 14 7q6 0 10 -3q14 -8 9 -24q-10 -20 -27.5 -38t-38.5 -31.5t-44 -21.5t-46 -8q-5 0 -6.5 -1.5t-4.5 -9.5q-7 -20 -20 -39.5t-30 -34.5t-37.5 -24t-43.5 -9q-27 0 -50 10.5t-40.5 28.5t-28 41.5
t-12.5 49.5t1.5 50t13.5 48q9 24 22.5 50.5t32 48t42 35.5t53.5 14q28 0 53 -13.5t42 -40.5q9 -13 14.5 -31t8 -37.5t2.5 -39t-2 -35.5zM173 149q-21 17 -27 42q-7 24 2.5 42t32.5 26q0 6 -2 10t-6.5 7t-13.5 3q-18 0 -31.5 -14t-22.5 -35.5t-13 -46t-2.5 -46t9 -35.5
t21.5 -14q20 0 34 16t22 31q6 8 -3 14z" />
    <glyph glyph-name="p" unicode="p" horiz-adv-x="399" 
d="M94 69q-4 10 -8 13q-7 -2 -11.5 -25t-7.5 -56.5t-5.5 -73.5t-4.5 -77t-4 -66.5t-5 -41.5q-4 -14 -13.5 -22t-21.5 -8q-11 0 -21 7q-13 5 -25.5 21.5t-16.5 54.5q-3 36 0.5 85.5t10 101.5t15 100t14.5 81q3 16 10 50t16.5 71t20.5 69.5t22 44.5q9 10 20 10q20 0 28 -22
q4 -9 4 -24.5t-1.5 -32.5t-4 -32.5t-3.5 -24.5q11 8 19.5 20.5t16.5 26.5t18 27t24 23q20 14 42 14q23 0 38 -12.5t25 -31t14.5 -40t5.5 -39.5q2 -42 -6.5 -80t-25.5 -75l-2.5 -5t-1.5 -7q4 1 27.5 20t47.5 51q14 17 24 30.5t22 30.5q4 5 9 9.5t12 4.5q5 0 8 -2
q8 -5 9 -14.5t-2 -17.5q-1 -4 -7.5 -14t-15.5 -23.5t-20.5 -29.5t-23.5 -31q-12 -16 -29.5 -33t-37.5 -30.5t-42 -22t-44 -8.5q-18 0 -38 6q-26 7 -42.5 15.5t-31.5 34.5zM161 95q20 0 34 14.5t22.5 36.5t11 47.5t0 47.5t-10.5 36.5t-21 14.5q-9 0 -20.5 -12t-22.5 -29.5
t-18.5 -36t-7.5 -30.5t2 -27.5t6 -29t10.5 -23t14.5 -9.5z" />
    <glyph glyph-name="q" unicode="q" horiz-adv-x="328" 
d="M57 340q34 34 80 34q23 0 37 -6.5t21.5 -14t10 -14t3.5 -6.5q4 4 8 14t7 15q10 17 29 17q8 0 15.5 -3.5t12.5 -11.5q8 -11 8 -22.5t-2 -23.5q-4 -15 -10.5 -41.5t-14 -61t-14.5 -74.5t-13 -81q-7 -52 -11.5 -102.5t-6.5 -91t-2 -67v-29.5q3 -11 1 -24q-2 -15 -11 -24
t-22 -9q-16 0 -28 9.5t-20 24t-12 30.5t-4 29q0 5 1.5 28t4 55t6 67.5t6.5 66t4.5 51.5t1.5 22q-17 -17 -39.5 -34.5t-48.5 -17.5q-16 0 -28.5 7.5t-21.5 19t-14.5 25.5t-7.5 28q-8 64 10 118t64 98zM68 112q15 0 32 20t31.5 44.5t23.5 45.5t9 22q0 5 -1 14t-4 17t-7.5 14
t-11.5 6q-14 0 -27 -13.5t-24 -34t-18.5 -44t-10.5 -44t-1.5 -34t9.5 -13.5z" />
    <glyph glyph-name="r" unicode="r" horiz-adv-x="311" 
d="M94 359q3 -7 3.5 -14t-0.5 -15q-2 -23 -6 -46l-8 -46q8 8 17 20.5t20.5 27t26.5 28t34 23.5q15 7 32 7q11 0 22 -2.5t20 -10.5q11 -10 16 -23.5t4 -28t-8 -27.5t-19 -21q-10 -7 -23 -7q-11 0 -20 5.5t-14 17.5q-3 6 -4 6q-4 0 -11 -5t-13.5 -11.5t-12 -13t-7.5 -10.5
q-13 -20 -23 -41.5t-19 -43.5q-8 -18 -15 -36.5t-15 -35.5q-6 -13 -15 -24t-25 -11q-18 0 -28 14.5t-15 29.5q-4 15 -5 34.5t-0.5 39.5t2.5 39t5 34q2 9 6.5 31t10.5 46.5t12.5 46.5t12.5 30q11 18 29 18q23 0 33 -25z" />
    <glyph glyph-name="s" unicode="s" horiz-adv-x="290" 
d="M65 125q-4 18 -15 35q-7 11 -13.5 20.5t-13.5 20.5q-12 19 -19 39.5t-6 43.5t11 44.5t26 38t37.5 26.5t45.5 10q29 0 54 -20q20 -16 23.5 -37.5t-9.5 -40.5q-5 -8 -12 -11.5t-13 -3.5q-7 0 -10 4q-6 7 -15 7q-7 0 -8 -4q-13 -13 -10.5 -28.5t11 -34.5t18 -42t9.5 -52
q0 -5 1 -8.5t5 -3.5q1 0 1.5 0.5t2.5 0.5q27 14 48.5 30t36.5 30.5t25 26t14 17.5q9 11 20 11q6 0 10 -3q8 -4 10.5 -12.5t-0.5 -17.5q-8 -24 -27.5 -46t-43.5 -40.5t-50.5 -32t-48.5 -21.5q-18 -6 -26 -21q-16 -30 -44 -47.5t-63 -18.5q-34 2 -64.5 21.5t-34.5 57.5
q-2 25 12 41.5t37 16.5q6 0 16 -2q15 -5 30 -6.5t31 -1.5q10 1 11.5 3t-0.5 11z" />
    <glyph glyph-name="t" unicode="t" horiz-adv-x="250" 
d="M171 455q-16 -59 -30.5 -116.5t-28.5 -116.5q-2 -10 -7 -34.5t-7.5 -49t0.5 -43.5t16 -19q14 0 34.5 21.5t41.5 48.5t37.5 52.5t21.5 33.5q6 10 17 10q10 0 17 -7.5t2 -17.5q-14 -30 -35 -66.5t-48 -68t-59.5 -53t-70.5 -21.5q-41 0 -62 24.5t-23 62.5q-2 32 1 63t8 63
q2 12 7.5 34.5t13 49t15.5 55t14.5 51.5t10.5 38t3 16q-3 1 -12.5 1.5t-21 1t-20.5 1t-10 0.5q-13 3 -19.5 11t-5.5 19q2 23 31 25h20h41h7q10 0 12 1.5t5 10.5q4 10 10 26t13 33t15 32t15 24q6 6 13 11.5t17 5.5q16 0 23.5 -11t8.5 -25q2 -17 -1 -34t-5 -34q-2 -7 -3 -13
t-2 -13q-2 -8 -0.5 -9.5t10.5 -1.5h13.5h16.5t14 -0.5t7 -0.5q20 -2 22 -20q2 -19 -16 -25q-1 -1 -9.5 -2.5t-19 -3t-21.5 -3t-18 -1.5q-11 -1 -13.5 -3t-5.5 -13z" />
    <glyph glyph-name="u" unicode="u" horiz-adv-x="434" 
d="M207 280q3 10 8 23t11 26.5t13 25.5t15 20q12 12 28 12q23 0 32 -19t9 -38q-1 -26 -6.5 -52t-12.5 -52.5t-13.5 -52.5t-8.5 -53q-1 -13 9 -13q11 0 22 7t19 13q8 7 22 21.5t28 30.5t26.5 29.5t17.5 18.5t10 9t13 4q6 0 11 -5q10 -9 7 -23q-1 -7 -4 -13t-7 -12
q-6 -10 -22 -30t-37 -43.5t-44.5 -45.5t-45.5 -35q-18 -8 -34 -8q-26 0 -43.5 11.5t-28 29.5t-15 40.5t-4.5 44.5q-3 -1 -11.5 -10.5t-19 -22.5t-22 -25t-19.5 -17q-17 -13 -38 -13q-18 0 -31.5 8.5t-23.5 21.5t-16 29.5t-8 31.5q-3 17 -2.5 34.5t2.5 34.5q3 16 10.5 45.5
t20 58t30 49.5t38.5 21q15 0 27 -11.5t14 -31.5q0 -3 -4.5 -26.5t-11 -54l-13 -61t-9.5 -47.5q-2 -7 -3 -13.5t1 -13.5q8 0 23.5 16.5t32 36.5t29.5 38t16 22q8 11 13 29z" />
    <glyph glyph-name="v" unicode="v" horiz-adv-x="319" 
d="M107 120q11 0 23 18.5t23 46.5t21.5 60.5t18 60.5t12 47.5t4.5 20.5q8 21 29 19q22 -2 28 -21q8 -27 2 -50q-1 -7 -6.5 -31.5t-15.5 -57t-24 -68t-33.5 -66t-44.5 -50t-55 -19.5q-28 0 -46.5 19.5t-29 45t-14.5 50.5t-4 36q0 20 1.5 48.5t7.5 57.5t17 54t29 38q10 4 17 4
q25 0 32 -17t7 -37q0 -9 -2.5 -28t-5 -42t-4.5 -48t-2 -45t3.5 -33t11.5 -13z" />
    <glyph glyph-name="w" unicode="w" horiz-adv-x="512" 
d="M256 105q17 0 29.5 19t21.5 45t14.5 53t7.5 43q1 9 1 21.5t0.5 25t1.5 24t5 19.5q9 21 32 21q11 0 20 -6.5t14 -17.5t6 -27.5t0 -27.5q0 -6 -2 -24t0 -35q2 -22 7.5 -36.5t21.5 -14.5q14 0 28.5 8.5t27.5 19.5t23 20.5t16 10.5q2 1 6 1q10 0 13.5 -9t-1.5 -16
q-2 -2 -13 -15.5t-27.5 -28.5t-36.5 -27.5t-40 -12.5q-17 0 -28 3t-17 6.5t-8.5 6t-2.5 0.5q-8 -19 -20.5 -40t-29 -38.5t-36.5 -28.5t-44 -11q-36 0 -53.5 24.5t-25.5 55.5q-6 -2 -13 -11t-16 -20t-21 -20.5t-28 -12.5h-10q-19 0 -34.5 11t-26.5 27.5t-17.5 35.5t-7.5 35
q-3 32 1.5 63.5t12.5 61.5q3 12 9.5 30.5t16.5 36t22.5 30t28.5 12.5q14 0 25.5 -9.5t16.5 -26.5q2 -9 1.5 -18t-2.5 -18q-1 -6 -8 -34t-13.5 -59t-9 -56t4.5 -25q8 0 19.5 14.5t23 33t21.5 37.5t15 28q8 14 17.5 18.5t23.5 4.5q21 -4 28.5 -24t5.5 -38q-1 -11 -4 -30.5
t-4.5 -39t0.5 -34t11 -14.5z" />
    <glyph glyph-name="x" unicode="x" horiz-adv-x="326" 
d="M199 94q14 0 28.5 11.5t28.5 28t27 36.5t25 36.5t22.5 28t18.5 11.5t10.5 -7t2.5 -13q0 -10 -13.5 -41.5t-37.5 -66t-57.5 -61.5t-73.5 -27t-62.5 16.5t-40.5 37.5q-6 6 -7 6t-6.5 -7t-11.5 -15.5t-11.5 -16.5t-6.5 -10q-10 -18 -29 -18q-7 0 -10 2q-12 4 -18.5 14
t-5.5 23q1 9 7 20.5t13.5 23.5t15.5 22.5t13 17.5q10 11 4 25q-12 30 -20 60.5t-11 62.5q-4 37 9 55.5t26 20.5q25 0 35.5 -15.5t16.5 -36.5q2 -6 5.5 -14.5t7 -17.5t6.5 -15.5t4 -7.5q2 1 9.5 9.5t17.5 19.5t20.5 23t17.5 19q10 10 23 20.5t28 10.5q14 0 23.5 -10.5
t5.5 -26.5q-2 -7 -4.5 -12.5t-6.5 -11.5q-22 -32 -46 -61.5t-48 -58.5q-8 -9 -2 -19q2 -3 9 -14.5t15.5 -24t17.5 -22.5t16 -10z" />
    <glyph glyph-name="y" unicode="y" horiz-adv-x="343" 
d="M108 302q-2 -13 -8 -40.5t-11 -56t-6.5 -50t4.5 -21.5q5 0 13.5 8.5t17.5 20.5t17 25t13 22q14 26 24 53t19 54q2 7 5.5 15.5t8 16t11 13t15.5 5.5q24 0 33 -25q5 -11 6 -23.5t0 -24.5q-2 -66 -10 -133t-19 -132q-3 -11 5 -16q4 -2 7 -9q7 -13 2 -25t-19 -14
q-8 -1 -11 -11q-8 -34 -21.5 -74.5t-35.5 -76t-52 -59.5t-71 -24q-20 0 -36.5 8t-29 21t-20 29t-9.5 32q-6 46 19 86q14 23 33.5 40t42.5 30t47.5 22.5t49.5 17.5q8 2 9 10q3 15 6 35.5t6 39.5q3 22 6 45q-7 -12 -18 -28t-25 -30.5t-29.5 -24.5t-30.5 -10q-21 0 -41 17
q-13 11 -21 27.5t-12 35t-5 37t1 34.5q1 14 7 44t16.5 60.5t26 53.5t35.5 23q3 0 9 -2q10 -3 16 -11.5t8.5 -19t2.5 -21t-1 -19.5zM76 -171q10 11 19 27.5t16 33.5q9 19 17 39q-17 -8 -33 -17q-14 -8 -27.5 -16t-22.5 -16q-10 -9 -19.5 -22.5t-9.5 -27.5q0 -30 17 -30
q19 0 43 29z" />
    <glyph glyph-name="z" unicode="z" horiz-adv-x="338" 
d="M21 28q-19 5 -29 19.5t-5 33.5q3 14 13 30q18 30 47 57t57 48.5t48.5 37.5t20.5 23q0 3 -5 3q-6 0 -17.5 -3.5t-25.5 -7.5t-29 -7.5t-27 -3.5q-27 0 -41 14.5t-14 32.5t14.5 35t44.5 21q43 7 86.5 10.5t87.5 3.5q26 0 40.5 -18t8.5 -44q-2 -11 -7 -20t-12 -18
q-11 -15 -23.5 -28.5t-25.5 -27.5q-14 -13 -35.5 -32t-41.5 -36.5t-33.5 -31t-11.5 -16.5q2 -2 7 -2q14 0 42 6t54 6q32 0 47.5 -12t15.5 -26t-9.5 -27.5t-33.5 -13.5q-9 0 -29 -0.5t-45.5 -1.5t-53 -2t-50.5 -3h-15q-10 0 -15 1z" />
    <glyph glyph-name="braceleft" unicode="{" horiz-adv-x="234" 
d="M133 170q-6 -26 -9 -52t-1 -52q2 -27 11 -47t39 -24q11 -2 18 -9.5t9 -18.5q2 -12 -6.5 -20.5t-19.5 -11.5q-10 -2 -15 -2q-22 0 -42 12.5t-35.5 32t-25 42t-10.5 42.5q-1 26 2 52t8 51q3 14 7 26.5t8 25.5q5 14 3.5 26.5t-7.5 26.5q-9 20 -19 39t-5 41q5 23 22 38t32 31
q9 9 12 20t3 23t-2 24t-3 24q-3 26 -2.5 51.5t7.5 50.5q5 18 15 38t24.5 37t33 28t39.5 11q9 0 18 -3t16.5 -10t10.5 -16t2 -18.5t-8 -16.5q-6 -7 -15 -8t-17 -5q-19 -7 -30 -26q-14 -19 -19.5 -42.5t-3.5 -47.5q1 -13 3.5 -26t4.5 -26t2.5 -25.5t-3.5 -24.5q-8 -26 -20 -44
t-23 -29.5t-19 -18.5t-7 -11q0 -5 6 -12.5t8 -12.5q7 -14 12 -32q7 -27 2 -51.5t-11 -49.5z" />
    <glyph glyph-name="bar" unicode="|" horiz-adv-x="280" 
d="M190 685q2 -7 2 -40.5t-1.5 -83.5t-3.5 -112t-4.5 -126t-5.5 -125t-5.5 -110t-4.5 -81t-3 -37q0 -3 -2 -9.5t-7 -13.5t-13.5 -12.5t-22.5 -5.5q-13 0 -21 6t-12 13.5t-5 14.5t-1 9q-1 11 -0.5 46.5t2 86.5t3 113t3.5 125t4 122.5t4 107t3 77t1 32.5q2 19 12.5 31.5
t30.5 12.5q19 0 31.5 -11.5t15.5 -29.5z" />
    <glyph glyph-name="braceright" unicode="}" horiz-adv-x="245" 
d="M105 331q3 11 -3.5 19t-11.5 17q-13 22 -17 45t-3 46.5t6 46.5t10 45q5 23 6.5 48t-10.5 48q-4 9 -12 17.5t-14.5 17.5t-7.5 18t8 19q8 8 20 8q15 0 31 -11t26 -22q17 -19 26.5 -42.5t10.5 -48.5q2 -26 -3 -51t-10 -49q-5 -23 -9 -47.5t4 -47.5q3 -11 10 -20.5t13 -19.5
t9.5 -20.5t1.5 -22.5q-2 -11 -7 -20.5t-10 -18.5q-11 -20 -19 -43q-7 -22 -10.5 -45t-0.5 -47q3 -25 9.5 -49.5t1.5 -49.5q-5 -30 -17 -52t-26.5 -37t-29 -22t-25.5 -7q-8 0 -16.5 3.5t-14.5 10t-8 14.5t1 17q1 4 7 7t13.5 7.5t16 10.5t14.5 15q14 20 18 38.5t0 41.5
q-4 26 -8 50t-4 50q2 49 16 91q4 11 9 21t9 21z" />
    <glyph glyph-name="asciitilde" unicode="~" horiz-adv-x="569" 
d="M130 308q-9 -7 -15.5 -16.5t-18.5 -11.5q-2 -1 -6 -1q-19 0 -29 18q-7 12 -6 25.5t6 26.5t13.5 24.5t17.5 19.5q19 17 40 24.5t43 7.5q29 0 56.5 -10t52.5 -25q10 -6 21.5 -14t24 -14.5t25.5 -11.5t26 -5h6q11 2 18 9t13 15.5t13 16t17 9.5q13 0 23.5 -6t10.5 -21
q1 -13 -5.5 -27t-14.5 -24q-20 -26 -50.5 -37.5t-62.5 -12.5q-31 1 -59.5 9.5t-56.5 21.5q-15 8 -33 15t-35 7q-20 0 -35 -12z" />
  </font>
</defs>
</svg>
